<mxfile host="Electron" modified="2023-05-09T14:48:08.111Z" agent="Mozilla/5.0 (Macintosh; Intel Mac OS X 10_15_7) AppleWebKit/537.36 (KHTML, like Gecko) draw.io/21.2.8 Chrome/112.0.5615.165 Electron/24.2.0 Safari/537.36" etag="nxMG-9D31ugkHUnlS-EW" version="21.2.8" type="device">
  <diagram name="Page-1" id="yZpiQl2r-Q9EN07XAcpG">
    <mxGraphModel dx="1114" dy="999" grid="1" gridSize="10" guides="1" tooltips="1" connect="1" arrows="1" fold="1" page="1" pageScale="1" pageWidth="850" pageHeight="1100" math="0" shadow="0">
      <root>
        <mxCell id="0" />
        <mxCell id="1" parent="0" />
        <mxCell id="epuEaKkqdymQAd3olJLZ-2" value="&lt;font style=&quot;font-size: 20px;&quot;&gt;Cloud Service Provider - Client&lt;/font&gt;" style="outlineConnect=0;gradientColor=none;html=1;whiteSpace=wrap;fontSize=12;fontStyle=0;strokeColor=#FF9900;fillColor=none;verticalAlign=top;align=right;fontColor=#FF9900;dashed=0;spacingTop=3;spacingRight=4;spacing=3;strokeWidth=2;rounded=0;horizontal=0;" vertex="1" parent="1">
          <mxGeometry x="80" y="40" width="650" height="710" as="geometry" />
        </mxCell>
        <mxCell id="epuEaKkqdymQAd3olJLZ-3" value="" style="outlineConnect=0;gradientColor=none;html=1;whiteSpace=wrap;fontSize=12;fontStyle=0;strokeColor=#858B94;fillColor=none;verticalAlign=top;align=center;fontColor=#858B94;dashed=1;spacingTop=3;strokeWidth=3;perimeterSpacing=1;" vertex="1" parent="1">
          <mxGeometry x="130" y="60" width="560" height="440" as="geometry" />
        </mxCell>
        <mxCell id="epuEaKkqdymQAd3olJLZ-4" value="" style="edgeStyle=orthogonalEdgeStyle;rounded=0;orthogonalLoop=1;jettySize=auto;html=1;entryX=0.15;entryY=0.5;entryDx=0;entryDy=0;entryPerimeter=0;" edge="1" parent="1" source="epuEaKkqdymQAd3olJLZ-5" target="epuEaKkqdymQAd3olJLZ-6">
          <mxGeometry relative="1" as="geometry" />
        </mxCell>
        <mxCell id="epuEaKkqdymQAd3olJLZ-5" value="" style="sketch=0;outlineConnect=0;gradientColor=none;fontColor=#545B64;strokeColor=none;fillColor=#879196;dashed=0;verticalLabelPosition=bottom;verticalAlign=top;align=center;html=1;fontSize=12;fontStyle=0;aspect=fixed;shape=mxgraph.aws4.illustration_users;pointerEvents=1" vertex="1" parent="1">
          <mxGeometry x="209.87" y="77.5" width="100" height="100" as="geometry" />
        </mxCell>
        <mxCell id="epuEaKkqdymQAd3olJLZ-6" value="" style="fontColor=#0066CC;verticalAlign=top;verticalLabelPosition=bottom;labelPosition=center;align=center;html=1;outlineConnect=0;fillColor=#CCCCCC;strokeColor=#6881B3;gradientColor=none;gradientDirection=north;strokeWidth=2;shape=mxgraph.networks.laptop;" vertex="1" parent="1">
          <mxGeometry x="345" y="80" width="155" height="95" as="geometry" />
        </mxCell>
        <mxCell id="epuEaKkqdymQAd3olJLZ-7" value="" style="shape=image;verticalLabelPosition=bottom;labelBackgroundColor=default;verticalAlign=top;aspect=fixed;imageAspect=0;image=data:image/png,iVBORw0KGgoAAAANSUhEUgAAAHMAAAB+CAYAAAAX3S44AAAABGdBTUEAALGPC/xhBQAAACBjSFJNAAB6JgAAgIQAAPoAAACA6AAAdTAAAOpgAAA6mAAAF3CculE8AAAABmJLR0QA/wD/AP+gvaeTAAATFUlEQVR42u1deZRU1Zn/fbeWXgpaacS2EVRwidIuycEkokeDigcVQUUBUTMzOo4h8TAjx6gxcXIqQ5wobnOCxxmNmRmdqBkaM+O4EBVpVAQXcG9OMorLsDRLC9jQdFfVe/c3f9Re9V7Vq+pXS1t1T/epqvfefa/q/r7l933fve8JhlGbdcfKtoiXE6g5gYIJoJ4AYhyJZoABgC0EmkAESLYAAMg+ghEQ+wmGQBwAeIDEHgi2UusdALZAY5Ni5ONVd8zdimHapGqBu+vFsYZ4p4A4XUOfJuApJAIAY3+pr4zhlv4KEky8Ro8HGDs8vX/8OAD9BN8B8CqgV73q3bgawaCug1kogP+0ss0My1xCrgR4WhIYKwCQAZAVgHGAkv3tz2MrEJ+SfNjb6H9odfDSvXUw87Tp9/2x1cuGW0DeSKIha7BjgGQD6ARIJwKRX7MF+ktSFq9p+tPSatXUioM5895Vl2nKbwCOste6ArTPEkj3BEITK8Limb/hrrlf1cFMaRfd17WAGg8A8KT6Nbe1L7V/2nmyTK+zc5PYSI/MeOPO+Z/XwQQw875V39NaugBIfiCzBzuf1hWt2fkEIrntzx4vpqy586o91QKmqsRFL/j18w1ayyNJIJEYMCvGmRxY5PBvcCAQuTTb6nqZ54lti777hmGyc86cZZ6aBlOFG2cAOMZuQEkYIB8l5XIhpoqW72vhc/mJCmxDECvNRsECkXE9zXM3HxG6pqbN7EV3dy0neJmNX+qlmDNeuPX8tzL7nffLFXMA/g6AvwQhSM6YNIep3+71Ro57fclf76tJzaTwDCJhW1NMFyDU86yABICXbr+gE+Qt+Uxl7pg0N5BFmPrDImHvvJo0szN+9dooEIfZ+KXVK26bvipX/92Htj1IoCcpApmaZu3zrJILKEogLDRb4fKaBFN5whPs/BLBl/L13/CDUyOA7soiKglgM7Wd2fqfMwSBY81OCITmOccs/HVDzYGpwYAdwRDSUbqMGnuYi3Hmi0kzQM4EP22bJcvOOrevlQePrT2fqVWznV/SwFEOadvEQkIQWBCtvCEI7TSblttMT+Tw2tNMD/12fkkRl01+aL0vV/+pwecOA3E2CghByhGTQnhQ7WmmCVu/pMGJo3t3/czevlI8Si8F0JibqABlj0nNyhMgb2Uua01UYm9/Pm3ximbVqH7x4s3T++M9zr3j6TYsfvYBEJc7K4shD3PNVd90IhDZ16tBMA2QylpbokMjIryZIeO6aYuf6xJwlyaOhMnvgWhKHFlACFKamDRDk1HDmunAL40CONsWNCB/CILCQ5DiY9Iazc2WLFdqN9hOQpBMgcgrbBmmvlbBLN4vlTAEyQQNTmLSNF9fe2CaWUzSuV8qf1nMoUDUrGYaZciVljIEsTP1hlmrZrZIv1SREASONLsKwszys9lwY3hdw4DvPDNRSpW4ugISK7Dq6Lb4EUbaoQLATCvEikjsOAEMI9U3XwXir8pSFqtFMFf/eGYvgJXluNYZtzw5BSJlK4vVZmhSBdkmt8tiw14zZ/zqtVGmNzTeozFaA6MpWqychwnTIndpJl7MzG1Zb622mxYf0y9CzY6ylsXiR2+76UgIv+NMndQeaLMHfmOzjF7aV1YwZ9y7+mxoPYfAmWS4Q1FEx3+sFkCypVcY3Z7ulyQ6oAJIguhIcnAkvX/CnEmyP8mo7yRBIZA4Ln8CYEgxqWVZLMWLe3AWKI85MxwERAERv8HtN70C0csRxqMy/v6BkoAZDFJtaFl9jdZYBOoOS1muxHSNgmLS0pbF3LGSPBca58LLm7l90Y1y2P3PuOozL1jy8tEbRr6yUms8ArADZc6VOg9B8gkEShaTuuLXySRzBidCm//DnoV3ugbmzHu6LvF4PB9p8uxK5UpRYLam3DGpa0BCR/9TQSVv5ZYb7hgymDPu7bqaIp0kGyuaK80zXaMwUw9nwuZUIFwDkhmgpmiq8DZu++ElRYN50b2vXCiQx0h6qytXipwCkd/UWwhEsWWxIYOoo//ZJja5PbpPoPlb7riurWAwL773lfEAH41Ry+GbK3WqfcWUxVzVRp2umYl9OnVfK8Lq9oLBNIWPgTykenOlQzX1GHJZzCWSkwEcc4BKALyeny04yjGYF97XdT6IqU5reOXwS+6XxViBECQHybHalwWqBkg/VOSHjsH0QAULr+GV0C9VWVmsZCQnEzi7PqL/kuuv9+UFc9b9q87QWn/XTb+EYvySo1wphxyTlj4EKYjkZGij7b42jBmcnhdMw1CzC63hFU9UhporhbNcqVsC4SQsEKYkhilFkJxssC39Ky7Km84T4aVDXNpWufk7KCAmLVEIYojsTHzQeqS1iYU1cLn2kZnmegYJEclmYwoALrhn5SSQEyrpl1iiEMR+tZiT9KPz5ougJ/lJH1IkyXHCdsfhi+8fb2tmBZ7TS5ErRUlzpSh5TFpA2ztxz6idKZ+PL5rk5GS78ffm6fY+kzy90rlSVllMWiDZeb6zc66ZUtb67hBITg62GwNb6yk5fCZPq0yutNJlMXeYqxCJUhW33HAcyAnp/pA5wpTUMXDYh7QEU80MPtMM4huVyZUWVxaDa2UxulEF+XyfL/JfSWTlyjyZnGJTesntwuPZPWdEFpiREU0dBFXFc6UFlMVYwRDEIpr8+0+W/m0IAPjxwgZAX+cCycknCArNuiN7BoqWjsrmSktbFnOcfiyuvfh+2/YnEp+azb8Bebg7JCePIJAnZvlMksdXNlda9jtrWYJfRNsUCXvnx+9wye0LDoXBX1j6Q6e+Ms1vIncfjROzExfgEcM1V1qBECTe/leJeX73b6/bHTuNIMKHALZaZ3LcTOnFNFs40YrNjnN1adswK4sV4SVXmuDc9x68IXkDxK0LfgrhJVFT6DiT45Dt2p5vfBaYmjjcSQ3v61gWK7B9RsFt7z+4YFl0Hmg8FFnwA4CLbdN2pUnpRTNB2UkDjnSNqKAMudKyhiCyDcC/acGs/d7wCe8/uOA/40CSEG5Z8DOA/xydlVECkpOb7R7C9ZN96WY2+uSBKsiVpkH9GaBXaco7SvNTQO2mikQzLAJIBPG3AATRj0bqxuhr4jhJbHBy50cq3RveeWhPd+fcsOX+7QsOxRY+DOiLS0Nycml3oo9g9PgAsGFvks2CTdWRK0VEa/4OUA+9cc/8N1GFjR8vbEBj+HoYDCbIzlAyOUMVhJBuBrA3VTMNgv4K50r/WytZ9MaSKz+vShC3/egEaD0fCF8L8PAykpzcYHuN5gw2y0EQ/grlSveTvH7d3Vc+aTmIO28+FtRHQWMsgDZAXLo/bvzhB2bKR52+TzgGxERQfxtaj3NuBl0lObn7GDTTkwbAQOxJPQ5CEFeXEPRQzOnrllz9YRqAOxZNBOR6UC6D1sek+cEhr5/LNF2ITzTOCFcI6KH6tlzAuSQIEfNApmb2EmgramlbkWUxENtBOXPdkqs3JYZ5z40HY9BzO4iFAPwlMJYOfFuezEv5SU7uPo3+gXQwNbYC7ChXrpTEAKgvWHv3VZvSzOmgfhaC40rk9VzybRUgOfZ9Qjhmxb4MM8ut5cyVQvB3a5dc9V6SXNx0FrR+GoKDSwciCjSDRZCSUpEc+/NtzpwHpCD4rGy5Uo1Va++64pFkvPbjCVB4CiglkETBE4/harkqvTbJImqd1uf7P6uqycYyhSAE9E2JDMrmRU0AnwFwiOsg5qs4uObbykBy7DSY/CQLTKV0tzakHLnS59fenTSv8KqFADrqJKdIQRC+nZWbDYdHfEJgsORLCDR/kxjyL34yCoJbS0ty7KZi5CkvuTsDPf/kLKd9svbpDVlgrg6ebQB819F0jaLLYjxwUGjUHxNXbQxfAaDVPRB14b6NLs7JKfR8hdQtrQVrHwb6P7KcaknKGyW742O0vb5i6YWhlM2XVA/J0WUkOS4IQhSTlXLqhoglmIC5rpTzdzTkg7RkNWTq0EmOW6urihAEVpztrrAalei8WY9aC0OXbgkB9BeJK45sGAvQXyc5RbNdDcN83mpkFACsun3mVhIflGoJATSSd55SPLxOcpySHEvtflW+uW6rLZgxGJ4v2RICMHmrSc2D3Sc5uowkpwSTs2zPp62syhN2o5QA06PVH8pzx0cl7pMclpHklIHt0koQAAgGEPF35gXz5cWz3gawvhR31qqTnKGk9NKG5HH51uq9ecGMQfZgye6sVYw2shATNBTfVoYZ6I4EIVOwMmvq8i+5Ri0NzF5lPA7iz8WGIPZlMbNOcgojOVYzBV+Qk9dscAxmd3BuGAoL3V5CYJp1kuNcEGwGR8lP841g1k2dXvmH2S8B8rjrZbE6yXEgCHbDI/8uk157p2AwAUD5+q4D8JZrZbE6yXFOcrLbp2iM3OjEtlmCuTp4zaA2jEsJvO9GWaxOcgogOeltD5SaI8e+2Vc0mADw+pL522g2nAngmSGXxSpCcnQZSY52ieSktZ0QnuPEvOYFMwroxfvW3DlvloicB/KjoZTFks0sE8mpZrabx/cI/wM0TpaOte8VEtA5ehTGmjvnrfQ1H/YtrXkeqJcC6Ab5ldOyWHZoom3MYM2SnF4AbwP4OUSdKB1r/0JOenNHodG546cnRIvYWImUB8xMWbSsydMQacw6+Kv0t7rN158ue2Wbk3MPPOofrX/RV85++FfRPBpslxw5PI9df8+efunoDrtR3R3Sc03W3T93AEBhj2wwjdjvcmk5eM4+ekCO/P0e1EirzJNtXZt4nK9uWVutAmCaMZNTjonHPIObLr813W/r5BqhzMVCZuq2jP060/fH9unYK43lctLaTbWnmU7X/g99Bvo5IM9Jtwiw6IeUBUQ25xOLuDn2BKToMZ6PAGyqYTPr8rSKii6z07VqZuEiyakWQagToK/B5KxaZ7PukpziGfKQBaHm2ayRMg7DeZldPTSJ3uFFhuLbimC7hZGcN0Eujy6Z46GAXARw+nCIXytnZquP5JgQ/khO6Ho448s+wA/PnAHhkwBGVjOYFXjmtFmddUvRt1sAGc2qnvTacwCvqfYMUAXAjD9/uKrKVTugd92X81ufuPYpQN6yPcAjrD0wlbGrvMvsHAnCy44qF8QKey6g+mvQZ8qWpGZUjORk7ut19tWxy34kZVvtaea4ge0gv6yyyVnjHX77I2y278VHbZ/WHJginSaA5VU2OWsa3516cE4Lu2yOB9CX2mjsUzK306w9zQQAMR+rsjk5I+EL35XzO5+wbREgx9pA/UQ1sFmp1IX56bzfA5xX+ZReGsFZCh24TU55MUFm2DXVizHGTRDeAcJjMYQvyIlrzq9tMD+f3Q7t+RDk6DKRHKcpuZ0QPgvIFyDbALkQwFE2x/bD9Jwkp7z6WU2DCQDcNPvboLwMcOQwLFdFQJktJ615toaTBimSdPQf3gbNWSB3l2cGumtADgKcX01AVlwzExr6ycXjQb0ckO8Mg3LV5xC5QjrWVN2tx1VVSNQxT28GjLMA8ycA97mf0nOlhSC4G16cXI1AVo1mpmnpxunt8HpuBXktwJElIjmFmVThEzC8v6wWojNswEySo2kHwVDXgrgS4KkVIDnvgngS3si/yglvfYlh0GQ4fEl+fM7RMORiCM+F5lkAR9iDWnTbC+BVAF0Q/ax0rPsEw6zJcPvCXD/Zh+aRk6H1ZAgnA/gmyKMBthQGnGyE8AMA78GU9fhT+3vVkJKrKTBtQe6e0grtHQeFMRCMhGmOAJRAYRDQhFa9gLEDqnGzdKzej3qrt3qrt3qrt3qrt3qrt3qrt3qrt3r7WiUNJBgMSnd3t3R0dCS+e3t7uwBAT09P3t/T3t5OANiwYQPGjh1LAJg0aRI7OzuxbNkyLRJfCl0H05XvNGfOHNXR0SHbtm2TsWPHSmtrq+zevVsAoKWlRfr6+iQQCEh/f7+MGTMG+/fvFwBoamrK+3sCgQB7e3sxYsQIAsCuXbsQCATY39/PlpYW9vX1JZ4S0N7ezp6eHk6aNIkbN25kMBis6tVDFQczGAyqSZMmycaNGwWASgFOBQIBaW5ulsbGRtm1a5dqaGgQAGhoaBC/3y+Dg4Pi8/kEAEKhkABA/LNdi0QijJ2D8ffhcJiNjY0MhUIMhUJsbm7mwMAABwYGGAgE6PF4dF9fH1tbW9nQ0KB7enrY3d3Nzs5OXU3gVgRMktLZ2aniAAJQLS0tYpqmam5uFtM01YEDB4SkigOntVY+n0+8Xq+Ew2Hxer1p7z0ej8TAkqamJsRAEgDw+/0EgIGBAfh8PpqmSb/fzwMHDsDv99MwDBqGwUgkQqWUjgMdDocpIjoUCnHMmDF6cHCQXq9X9/f30+v16t27dxOArhZgpRImdNq0aSoUCqm4BgJQTU1NCfBIqkAgoEKhkDQ1NSmv1ytaa+X1esU0TRUH0e/3K4/HI5FIRDwejyilxDAMaWhoQCQSSfw2n8/HUCgEr9dLrTV9Ph8HBwehtaaIaNM0aZomlVI6DqxSSsfBVUrpOLAej0cPDAxQKaXjGovEpCToYDBYsTtV/D9UPjF4RiPtpgAAACV0RVh0ZGF0ZTpjcmVhdGUAMjAyMi0xMS0wN1QxOTo1NTozMiswMDowMPlEdksAAAAldEVYdGRhdGU6bW9kaWZ5ADIwMjItMTEtMDdUMTk6NTU6MzIrMDA6MDCIGc73AAAAAElFTkSuQmCC;" vertex="1" parent="1">
          <mxGeometry x="546.01" y="88.98000000000002" width="70.32" height="77.05" as="geometry" />
        </mxCell>
        <mxCell id="epuEaKkqdymQAd3olJLZ-8" value="" style="strokeColor=#dddddd;shadow=1;strokeWidth=1;rounded=1;absoluteArcSize=1;arcSize=2;" vertex="1" parent="1">
          <mxGeometry x="330.82" y="620" width="179.75" height="79.76" as="geometry" />
        </mxCell>
        <mxCell id="epuEaKkqdymQAd3olJLZ-9" value="&lt;div&gt;&lt;font style=&quot;font-size: 18px;&quot; color=&quot;#000000&quot;&gt;gcloud&lt;/font&gt;&lt;/div&gt;&lt;div style=&quot;font-size: 18px;&quot;&gt;&lt;font style=&quot;font-size: 18px;&quot; color=&quot;#000000&quot;&gt;CLI&lt;/font&gt;&lt;font size=&quot;3&quot; color=&quot;#000000&quot;&gt;&lt;br&gt;&lt;/font&gt;&lt;/div&gt;" style="editableCssRules=.*;html=1;fontColor=#999999;shape=image;verticalLabelPosition=middle;labelBackgroundColor=#ffffff;verticalAlign=middle;labelPosition=right;align=left;spacingLeft=20;part=1;points=[];imageAspect=0;image=data:image/svg+xml,PHN2ZyB4bWxucz0iaHR0cDovL3d3dy53My5vcmcvMjAwMC9zdmciIHhtbG5zOnY9Imh0dHBzOi8vdmVjdGEuaW8vbmFubyIgd2lkdGg9IjQyNCIgaGVpZ2h0PSI0MjQiIHZpZXdCb3g9IjAgMCA0MjQgNDI0Ij4mI3hhOwk8c3R5bGUgdHlwZT0idGV4dC9jc3MiPiYjeGE7CS5zdDB7ZmlsbDojNDI4NWY0O30mI3hhOwk8L3N0eWxlPiYjeGE7CTxwYXRoIGNsYXNzPSJzdDAiIGQ9Ik00MjQgMHY0MjRIMFYwek0yMTIgOTcuODQ2Yy0zNy44ODQgMC03MC4xNjQgMjMuOTktODIuNDc4IDU3LjYwOGgwbC0zLjQwMy4wMDFjLTQyLjYzNCAwLTc3LjE5NiAzNC41NjItNzcuMTk2IDc3LjE5NnMzNC41NjIgNzcuMTk2IDc3LjE5NiA3Ny4xOTZoMCAxNzEuNzYzYzQyLjYzNCAwIDc3LjE5Ni0zNC41NjIgNzcuMTk2LTc3LjE5NnMtMzQuNTYyLTc3LjE5Ni03Ny4xOTYtNzcuMTk2aDBsLTMuNDAzLS4wMDFDMjgyLjE2NCAxMjEuODM3IDI0OS44ODQgOTcuODQ2IDIxMiA5Ny44NDZ6IiBmaWxsLXJ1bGU9ImV2ZW5vZGQiLz4mI3hhOzwvc3ZnPg==;" vertex="1" parent="epuEaKkqdymQAd3olJLZ-8">
          <mxGeometry width="50" height="50" relative="1" as="geometry">
            <mxPoint x="15" y="15" as="offset" />
          </mxGeometry>
        </mxCell>
        <mxCell id="epuEaKkqdymQAd3olJLZ-10" value="&lt;font style=&quot;font-size: 24px;&quot; color=&quot;#808080&quot;&gt;Dataproc&lt;/font&gt;" style="sketch=0;html=1;verticalAlign=top;labelPosition=center;verticalLabelPosition=bottom;align=center;spacingTop=-6;fontSize=11;fontStyle=1;fontColor=#999999;shape=image;aspect=fixed;imageAspect=0;image=data:image/svg+xml,PHN2ZyB4bWxucz0iaHR0cDovL3d3dy53My5vcmcvMjAwMC9zdmciIHhtbG5zOnY9Imh0dHBzOi8vdmVjdGEuaW8vbmFubyIgd2lkdGg9IjE5LjM2MzAxMjMxMzg0Mjc3MyIgaGVpZ2h0PSIxNy45NzU1MjY4MDk2OTIzODMiIHZpZXdCb3g9IjAuMDAwNTYwMDI1NjI2MzI3ODQyNSAwLjYxOTYyOTc0MDcxNTAyNjkgMTkuMzYzMDEyMzEzODQyNzczIDE3Ljk3NTUyNjgwOTY5MjM4MyI+JiN4YTsJPHN0eWxlIHR5cGU9InRleHQvY3NzIj4mI3hhOwkuc3Qwe2ZpbGwtcnVsZTpldmVub2RkO30mI3hhOwkuc3Qxe2ZpbGw6I2FlY2JmYTt9JiN4YTsJLnN0MntmaWxsOiM0Mjg1ZjQ7fSYjeGE7CS5zdDN7ZmlsbDojNjY5ZGY2O30mI3hhOwk8L3N0eWxlPiYjeGE7CTxnIGNsYXNzPSJzdDAgc3QxIj4mI3hhOwkJPHBhdGggZD0iTTQuNjkgMTYuNGwxMC4xOS01Ljg5Ljk3IDEuNjktMTAuMTggNS44OHoiLz4mI3hhOwkJPHBhdGggZD0iTTcuNSA0LjR2MTAuMzVsLTEuODcgMS40MVY0LjR6Ii8+JiN4YTsJCTxwYXRoIGQ9Ik0xNy40OSAxMS4ybC0uOTcgMS42OC04Ljk2LTUuMTktLjI2LTIuMzZ6Ii8+JiN4YTsJPC9nPiYjeGE7CTxwYXRoIGNsYXNzPSJzdDAgc3QyIiBkPSJNMTIuMzkgOC4yNkw3LjMgNS4zM2wuMjYgMi4zNiAxLjUxLjg2YTQgNCAwIDAgMCAzLjMyLS4yOXoiLz4mI3hhOwk8cGF0aCBjbGFzcz0ic3QwIHN0MSIgZD0iTTYuMTMgNi4yOWgwYTMuNzggMy43OCAwIDAgMSA1LjE2NS01LjE2M0EzLjc4IDMuNzggMCAwIDEgOS40IDguMThhMy44IDMuOCAwIDAgMS0zLjI3LTEuODl6TTExIDMuNDlhMS44NCAxLjg0IDAgMCAwLTEuNTktLjkyQTEuODMgMS44MyAwIDAgMCA3LjU3IDQuNGExLjg0IDEuODQgMCAwIDAgMi43OTQgMS43MDZBMS44NCAxLjg0IDAgMCAwIDExLjI0IDQuNGExLjggMS44IDAgMCAwLS4yNC0uOTF6Ii8+JiN4YTsJPHBhdGggY2xhc3M9InN0MCBzdDIiIGQ9Ik01LjYzIDEwLjk0djUuMjJsMS44Ny0xLjQxdi0xLjYzYTMuMjkgMy4yOSAwIDAgMC0xLjg3LTIuMTh6bTUuNyAzLjg3bDQuNTItMi42MS0yLjIxLTEtMS4yNS44YTQuMjMgNC4yMyAwIDAgMC0xLjA2IDIuODZ6Ii8+JiN4YTsJPHBhdGggY2xhc3M9InN0MCBzdDEiIGQ9Ik0uNTEgMTYuN2gwYTMuNzcgMy43NyAwIDAgMSAxLjM4LTUuMTYgMy43MiAzLjcyIDAgMCAxIDIuODYtLjM4QTMuNzggMy43OCAwIDEgMSAuNTEgMTYuN3ptNC44NS0yLjgxQTEuNzkgMS43OSAwIDAgMCA0LjI1IDEzYTEuODMgMS44MyAwIDAgMC0yLjA2IDIuNjloMGMuMzI5LjU2Ni45MzQuOTE0IDEuNTg5LjkxM2ExLjgzIDEuODMgMCAwIDAgMS41ODUtLjkyYy4zMjYtLjU2OC4zMjQtMS4yNjctLjAwNC0xLjgzM3ptNi45NyAyLjQ3aDBhMy43OSAzLjc5IDAgMCAxIDAtMy43NyAzLjc5IDMuNzkgMCAwIDEgNS4xNi0xLjM5IDMuNzggMy43OCAwIDAgMS0xLjg5IDcuMDQ0IDMuNzggMy43OCAwIDAgMS0zLjI3LTEuODg0em00Ljg2LTIuODFhMiAyIDAgMCAwLS42Ny0uNjcgMS44NSAxLjg1IDAgMCAwLTIuNTEuNjggMS44NiAxLjg2IDAgMCAwIDAgMS44MyAxLjgzIDEuODMgMCAwIDAgMi4wNy44NSAxLjgyIDEuODIgMCAwIDAgMS4xMS0uODUgMS44OCAxLjg4IDAgMCAwIDAtMS44NHoiLz4mI3hhOwk8cGF0aCBjbGFzcz0ic3QwIHN0MyIgZD0iTTcuNDkgMTQuMTVsLTIuOCAyLjI1IDIuODYtMS42NWE0LjA3IDQuMDcgMCAwIDAtLjA2LS42ek04LjE1IDhsLS41OS0zLjZ2My4yOWEzLjQ3IDMuNDcgMCAwIDAgLjU5LjI3em01LjE1IDMuNDdsMy4yMiAxLjQxLTIuODYtMS42NGExLjY5IDEuNjkgMCAwIDAtLjM2LjIzeiIvPiYjeGE7PC9zdmc+;" vertex="1" parent="1">
          <mxGeometry x="367.94" y="799.76" width="105.5" height="100.48" as="geometry" />
        </mxCell>
        <mxCell id="epuEaKkqdymQAd3olJLZ-11" value="&lt;font style=&quot;font-size: 18px;&quot;&gt;AWS CLI&lt;/font&gt;" style="sketch=0;outlineConnect=0;fontColor=#232F3E;gradientColor=none;strokeColor=#ffffff;fillColor=#232F3E;dashed=0;verticalLabelPosition=middle;verticalAlign=bottom;align=center;html=1;whiteSpace=wrap;fontSize=10;fontStyle=1;spacing=3;shape=mxgraph.aws4.productIcon;prIcon=mxgraph.aws4.tools_and_sdks;" vertex="1" parent="1">
          <mxGeometry x="130.16" y="590" width="99.84" height="130" as="geometry" />
        </mxCell>
        <mxCell id="epuEaKkqdymQAd3olJLZ-12" value="Databricks" style="shape=image;verticalLabelPosition=bottom;labelBackgroundColor=default;verticalAlign=top;aspect=fixed;imageAspect=0;image=data:image/png,iVBORw0KGgoAAAANSUhEUgAAAgAAAAIACAYAAAD0eNT6AAAAGXRFWHRTb2Z0d2FyZQBBZG9iZSBJbWFnZVJlYWR5ccllPAAAA4ZpVFh0WE1MOmNvbS5hZG9iZS54bXAAAAAAADw/eHBhY2tldCBiZWdpbj0i77u/IiBpZD0iVzVNME1wQ2VoaUh6cmVTek5UY3prYzlkIj8+IDx4OnhtcG1ldGEgeG1sbnM6eD0iYWRvYmU6bnM6bWV0YS8iIHg6eG1wdGs9IkFkb2JlIFhNUCBDb3JlIDUuNi1jMTQ1IDc5LjE2MzQ5OSwgMjAxOC8wOC8xMy0xNjo0MDoyMiAgICAgICAgIj4gPHJkZjpSREYgeG1sbnM6cmRmPSJodHRwOi8vd3d3LnczLm9yZy8xOTk5LzAyLzIyLXJkZi1zeW50YXgtbnMjIj4gPHJkZjpEZXNjcmlwdGlvbiByZGY6YWJvdXQ9IiIgeG1sbnM6eG1wTU09Imh0dHA6Ly9ucy5hZG9iZS5jb20veGFwLzEuMC9tbS8iIHhtbG5zOnN0UmVmPSJodHRwOi8vbnMuYWRvYmUuY29tL3hhcC8xLjAvc1R5cGUvUmVzb3VyY2VSZWYjIiB4bWxuczp4bXA9Imh0dHA6Ly9ucy5hZG9iZS5jb20veGFwLzEuMC8iIHhtcE1NOk9yaWdpbmFsRG9jdW1lbnRJRD0ieG1wLmRpZDphMjE1MWZmYi0wNGMyLTQ1YjAtODAyZC0wMjI5MGU3Zjc2NmMiIHhtcE1NOkRvY3VtZW50SUQ9InhtcC5kaWQ6MkVDNTc4NTc2MDA0MTFFQUFCMkI5NjA5QjFEMTZFRDQiIHhtcE1NOkluc3RhbmNlSUQ9InhtcC5paWQ6MkVDNTc4NTY2MDA0MTFFQUFCMkI5NjA5QjFEMTZFRDQiIHhtcDpDcmVhdG9yVG9vbD0iQWRvYmUgUGhvdG9zaG9wIENDIDIwMTkgKE1hY2ludG9zaCkiPiA8eG1wTU06RGVyaXZlZEZyb20gc3RSZWY6aW5zdGFuY2VJRD0ieG1wLmlpZDo5MTE0Y2I0Ny04MDc5LTRmYTEtYjhkNC00MDVjNzhhMTA1N2IiIHN0UmVmOmRvY3VtZW50SUQ9ImFkb2JlOmRvY2lkOnBob3Rvc2hvcDozMWQzNmY2Zi05NjRjLTRlNDItYjdmYS02NGNjNDFjNzY2YzQiLz4gPC9yZGY6RGVzY3JpcHRpb24+IDwvcmRmOlJERj4gPC94OnhtcG1ldGE+IDw/eHBhY2tldCBlbmQ9InIiPz5KHgaIAABeEklEQVR42uydB9hdVbH+h0jvvSsBpIfQixDpTQlKuYhcRMpFBBGUEnoJvYM0QUTKP0ZEBKQKSJUiBAIIoQYhKC30Fnr5z+tax+8jJvDly1nnzN7n9z7PPDvPvZLM2TNrrXev9a6ZST777DMDAAAAQGehD68AAAAAgAAAAAAAAAIAAAAAAAgAAAAAACAAAAAAAIAAAAAAAAACAAAAAAAIAAAAAAAgAAAAAACAAAAAAAAAAgAAAAAACAAAAAAAIAAAAAAAgAAAAAAAAAIAAAAAgC/DpO36hyeZZBLePgBtwmcr9l3eHyfmj4A9Jhk26h7eCgBtGIuffda2f3uSdv3jEAAA2rLwz+ePI922Guv/daHb/k4ERvGWAIAAQAAAqM/CP4M/9nP7mduU4/mffeB2qttRTgTe4K0BAAGAAABQ3YVfx3w7uR3iNmsP/7NX3Q51O8uJwEe8RQAgABAAAKq1+G/kjxPcFu7lXzHSbR8nAZfxNgGAAEAAAIi/8C+XF/41mvRX/tVtTycC9/J2AYAAQAAAiLfwf9UfR1kS+JUYYEPdDnAi8AxvGwAIAAQAgPYv/NP7Y1+33W38Ar9m4X23U9yOdiLwJm8fAAgABACA1i/8Evjt6DbYbbYW//OvWJdQ8GOiAQAEAAIAQGsWfwn8jndbpM2uPOG2t5OAy4kKABAACAAA5Rb+Zgv8mgWEggBAACAAABRY+Oe1JPD7gZUR+DULv7VUUfBfRA0ACAAEAIDeL/zT+WMffV1beYFfsyCh4MluxzgReIsoAgABgAAA0POFXwK/HSwJ7Wav6M942ZJA8WyEggBAACAAAHz54j/QH8e5LVaTn/S42yAnAVcSXQAgABAAAP574V/GksBvrZr+xFvc9nIiMJxoAwABAIAJIAn81KJ3a4st8GvKz7VUURChIAAQAAA6duGvosCvWZBQ8ES3Y50IvE02AAgABACATlj4JfDb3u1wq67Ar1l4yVKr4nMQCgIIAAQAgDov/t+2JPBbgrfxOTxqqaLgVbwKAAGAAABQp4V/KUtb3mvzNr4QN1kSCt7PqwAQAAgAAFVe+OfxxxFu21j9BX5Ne21uQyy1Hn6W1wEgABAAAKq08E9rXQK/qXgjvQJCQQABgAAAUJmFvyHwO8xtjsCuPum2r9unWmDdFgrs62i3g93ORSgIIAAQAAAiLv5VEPi9lsnJmb6Yfpj9nswfO1lS488S2PeHLQkFryHbAAQAAgBAhIW/v6UKfusGdlOL/WluR/gC+sZ4fseM/tjfbTe3KQL/lhsttR7+O9kHIAAQAADasfDPbeku/3YWW+B3sdu+vmA+1cPf1dcfx7htEfn1u13gdqD/rufIRgABgAAA0IqFXwK/QW57uU0d2NU7LV2p+1svf+dKlkR4qwb+je9Zl1DwHbITQAAgAACUWPi/kr/29dU/Z2BX9aWvGwiX+KL4WRN+92Z5R+DrgX9zQyj4G//Nn5CtAAIAAQCgWYv/Bv443q1fYDdfz+TkjIbAr4m/f3J/7JwX2ZkDv4MRlloPX0vWAggABACAiVn4qiDw+8i6BH6vF34fEgoe6Lar2+SB38lfLB1/PEgWAwgABACACVnoainwa+L7WcDSscDmkcPodp7bQf5+nierAQQAAgDAFy1s01gS9+1tsQV+Evbt2VuBXxPf1zcs7ZCsEvhdvZt9PB6hIIAAQAAAGHsh62NdAr+5Arv6tKUKfhc3Q+DXpHenwSyhoCoKLhD43b2o3QDtCiAUBBAACAAAWsDWy1+ISwZ2U8V71FTotGYL/Jr4HqUJ2CUvsjMFfpcSCkofcB3ZDyAAEADQmQu/Fnwp+9cP7KYEfme4He4L1msVea9a/BtCwckCuyoCoBsDDzEaAAQAAgA6Y+HXFn9D4NcnsKuXuO3jC9Q/KvqeF7R0LLBZYDfVDKkhFHyB0QEgABAAUM+FvyHwUxW/aQK7epelLeo7avLeVUlQRywrB3ZzjKXdoBP8vY9htAAIAAQA1GMBQuDX/hhowOvKoK4Ozh/YVe0CNISCnzJ6AAQAAgCqu/CsY6lWfP/AboYX+DUxHhIKShsgjcCMgV2VLkC7MNczigAEAAIAqrXQqGTvcW7fCuymBH5nuh3mC82rHRYflRNWWeGfWHyhoIjACEYVgABAAEDshUVNeg5z297tK4FdvdRSBb+RHR6vhSwdC2wa2E3VDDhXhMXj9SKjDEAAIAAg1kKiqn17WuqCF1ngN8xSBb/bidrn4jfA0lHNioHdlDhQtxpO9Pi9S9QABAACANq7cEjgt42lM/S5A7s6ym0/t4vqJvBrYiw1KWzhdrRb38Cuqq+ANAwXIBQEEAAIAGjPglEFgd+b1iXw+4Co9SiuU1iXUHCGwK6q06B2c24gagACAAEArVkglrB0ZxuBX73jPIs/DnHb2W3SwK7+2W1vhIIAAgABAOUWhDn8cajbDhZb4HeZpQp+I4laU+K+sKWz940Duymh4G8sCQVHEzUAAYAAgOYsAFNZl8Bv2sCu3uu2hy8AtxG1InnwTX+c5LZ8YDffsS6h4HtEDUAAIACgdxO+BH5bux3pNk9gV59x29/tQgR+xXNCE8eWbke5zRfY1efcDnAbglAQQAAgAGDCJvq1LdWPXzqwm2/mhehUn+TfJ2otzY8p/bFbJl6RhYIPWCokdCNRAxAACAD44ol9cUsV/DYM7ObHbme5HeoT+ytEra35MpsloeBOFlsXcrUloeAjRA1AACAA4PMTeVUEfn+yJPB7gqiFyp9FMnH8TmA3JRQ8R4QFoSCAAACSH4EfaG4+rW6pNsRygd2UUFDlj09CKAggAKATJ2oJ/LaydIY+b2BX/2mpgh8Cv+rk1iQ5tyQe/VpgV5+1pGEYilAQAgABAJ0yQa9pSeC3bGA337JUkvYUvtIqm2faXfpZJnDTB3b1PktCwZuJGgQAAgDqOiEvaqmC38DAbuqctiHwe5mo1SLvZvfHYLcdLba+5Cq3QZ53jxE1CAAEADABtxZXWFJqP07UIKBtJKBna7x4Hr5E1CAAEABQ1QlXW7C7u+3rNl1gV4dbaupyK1HriLyswhHU25aEgidzBAUBgACAKk2wVRL4qVrbUAR+5GhQSCi4HzkKAYAAgCpMrGtYuoaFwA9UIV8bu1RaZCNfQ2WXCgIAAQBhJ9KqFGLR+eohCPzAWPlblUJU6FQgABAAEGbirEopVhTWoCf5XIVS1NxUgQBAAEBbJ0ruWIM653cVmlFxlAUBgACAlk6MVFkDnZLrVWlHjZgVAgABAMUnxCrUWef6FGh23jf6Veg66zSBXZVQcHf6VUAAIACgmRNglQR+FFABpcbBnP44zG17o2MlgABAAGo+4c1qqYIfAj8AusZFv0yIvxXYzY+tSyj4ClGDAEAAQE8nuCn9sZulM/QZArv6gKW70TcRNdCGcbKOpSOx/oHdfNNSsaNTfZy8T9QgABAAML4JTUHZMk8Y8wV29TlLoqchCPxAm8eMhILbuB3hNndgV5/JhJ621hAACAD4r4nsm/44yW35wG6+43asvroQ+IFg42dqfwzKFlkoeK/bHggFIQAQAKCJa+G8qG4c2E0J/M6xVMFvNFEDgcfTXP443G07tz6BXb3MklBwJFGDAEAAOm+iksCvUcFv0sCuXm2p9OkjRA1UaHwtaan18PqB3fzI7Uy3w3x8vUrUIAAQgPpPTFUS+KmC341EDVR4vK1nqaLgkoHdlFBQGobTfLx9QNQgABCA+k1EeuHft1Q6FIEfAK0bezoK0JGAjgbmCuzqKEulvS9CKAgBgADUZwIaYOm60oqB3RxjSYtwAgI/UNNxKHHg3m57uU0d2NVhlq7X3k7UIAAQgOpOOAtZKou7aWA3JfA71+1gn3BeJGqgA8bl3NYlFIw8EV7qti9CQQgABKBaE8wsWlDddnabLLCrf7Yk8BtB1EAHjlMVEJI+YN3AbkooeIYIi4/T14gaBAACEHdCmcIfu7odaLEFfg9a2mK8gagBxm3fDSzdGOgX2M03rEso+CFRgwBAAOJMIHqZW1gS+PUN7OrzmZxcgMAPgM+NYfXa2C4vsnMEdvVpS10RL0YoCAGAALR/4qiSwE8V/N4lagCMdzxP6499LLUfniqwq3dZuqZ7B1GDAEAAWj9RLGipIxkCPwDqN77nybsB6jMQebK8xFJFwX8QNQgABKD8xDCzPw5y28ViC/yus9Si9yGiBkCvx/tSlnb41g7sJkJBCAAEoPBEMLl1CfxmDOyqFnxtDV5P1ABo2vj/tqUdvyUCu/m6peuNZyAUhABAAJoz8PWiNrd0n3/+wK6+YGln4jwEfgAUmQvUs2P7vMjOHtjVpyzpGC5BKAgBgAD0fsCvaume8MqB3ZTAT1eYVMFvDFEDoPi8MJ11CQWnDOzqnZZ2A/9G1CAAEICeD3AJ/KSa3yywm/rKP09f/T7AXyBqALR8npjXH0e6bW2xhYIXW6oo+BRRgwBAAMY/oBH4AQAmdN5YxtJO4VqB3ZRQ8DS3I3zeeJ2oQQCIfNcAnjwv+irfi8APANCbeWSgJaHgYoHdRCgIAYAA5AGrl6Btfm33LxDYVd3hbwj8PmHIAhB2TpFQcAe3w9xmC+zqk5aOBS6BAEAAOnGgfsPStt0qgd18N/t4vA/Ud5heAajM/DK9pZK9u1tsoaAqCaovyN0QAAhAJwxMfenrSt/mkd20LoHf80ynAFR2vvmqP45y28piCwUvctvP55unIQAQgDoOxJksFfFRMZ/IAr+/WDrnf5DpE4DazD/LWdrNWyOwm9IENISCb0AAIAB1GHgNgZ/O0GcK7OoIS8r+a5kuAajtfLSRpbodiwR2U+WEpWE4sxOEghCAeg40BH4AgIhzk4SCP3Yb7DZrYFc7QigIAajfAFvJUgOPVQO7+V7+EkDgB0BnEoEZ/LGf288stlDwdrftfJ56EgIAAYg8oFSr/2i3LSK76XaB24E+oJ5jGgSg44nAfJYqCm4V2E0RgPMhAM3FpKR/UwaQivc0BH6TB3b1RktXbv5O1AAA//4YGzbqGX/8wOexX1jauVyNt9IZgABM3MKvxX5nSxX8Zg7s6sNue/tAv4aoAQDGQwTu9cfqPq9911JFwYV5K/VGH15Brxf/zfLC+ovAi/9oS2KfpVn8AQA9JAKX+2MJt93cXuWNsAMAuhb+qgj85OOxCPwAAL0gAR/74zSf74b4c/9MBqbgzdQszogAe7zwI/ADAHTqh09fSxUFt2yTC4gA2QFoS+LPmBmwrspEFvjd5LYHAj8AQIEdgVH++F+fD0/250luA3gr1QcEYPwLv8r17uR2iNssgV191JLA7yqiBgAoTATu8cc3fX7cxFKRs4V4K9UFIsBxL/5Kbgn8Tg28+L9k6QZCfxZ/AECLicBl/ujn9nNLpXtBFeOIBuBzC/8KFn97633rEvi9TQoDANo8b5aug/KW20Y+3/21lu+PSoBtT+C+1l6BS4/cdJMi9wAfCM8y7QAAghGBZgul1ZvkLLdDfc57ubbvDQLQVuZahSsuEvipRe/9TDMAgOBEoBlXpa+wpG16vPbvCwLQ8gRF4AcAAGXn2UY31AUn4D+7z9Jtpls75j1BAFqalFUoc6ntLpUXPicX5AAAgCqSAGkCdrHUcnymL/if6lhTu7FDfc77tKPeEQSgJYm4vMVvdCGBn+7ZHuOD4C2mDwBATYiAFv+GUHCybv8vCZmP0bznc957HfluIABFE68KrS4VhKFiwD4I/sV0AQCoKRFYIC/4umr9a7fBPue91NHvBAJQJNFm8Md+lir4TRk4/rdYEvgNZ3oAAHQIEZjR57w3eBMQgGYnlqobNgR+swaOu9Stg3wQXMkQAAAACECrUatSwBUS+A12OxuBHwAAAAjAxC38CPwAAACATiEAvvB/1VIFPwn8IvcXlsBvPwR+AAAAIAATt/BP74993Xa32AI/1a7e0xf+e0k1AAAAEIDeL/zyd0dLZ+izBXb1CUsV/C4nxQAAAEAAJm7x38gfx7stEtjNV9wOdTsLgR8AAAAIwMQt/Mv54wS3NQK7KYHfKW5H+8L/JmkFAAAAAtD7hb9KAj+16H2GdAIAAAAB6P3Cj8APAABAZeHr2Pz++InbBb5GjIjqZ5hKgFngt4OlM/TZA8d2pCWB359IcwAAAN3WMZWgP8BtN7cp3NTZ8Dy3g33NeH6c/02nlwL2lzbQUgW/xQLH9lXrEvh9RKoDAADo9gH7Y0s31MZVgv5dt5O0zvn68TYEwAmAv7RlLAn81goc2w/cTnU7iuYVAAAAxlr8J+SG2kv5Q/I/peA7kgDYSvNrC+ATiy3wu9BSi95RpDkAAIBuC//SlkrQ9+YDVrVi9tFRcicTgE+DxvZ2tz08OPeQ5gAAALot/HP740i3bZrwAXu73f30N9v1WyYlnJ/DyMzKLuNVAAAA6LbwT+OPQdmmbtJfO6CdvwkCkIDADwAAwLgW/j7+2NbtCLe56vTbOp0AfOh2mgKLwA8AAMBYi//altT7/ev4+zqZAFxkqUXv06Q5AACAbgv/opZuqG1Y59/ZiQTgDksV/O4mzQEAAHRb+NVldrClO/1fqfvv7TQCoFsH17s9RKoDAADIC7/Kzqt6n6r4Td8pv7tTrwGqJOP+bkMmGTbqU9IfAAA6cuHXOrSF2zFu87XFibufblstnD4dGnfd4zzfbbgnwJoMAwAA6LjFf1V//M1Swbf5OvEd9OnwHFAlp5s8Ea5wW4QhAQAAtV/4F3D7g6WCbyt18rvoQzr8G6rl/LAnxWlus/I6AACgdgv/jG5S9j/qtjlvpP0EYHigdyHF50/dnvQk2cttCtIDAAAqv/BP5rar5na3Pd0m5620mQBMMmyU1IcruG3t9s9A70T9nNXZ6VFPmu9lkQgAAIDqLf7f9ccISx1dZ+GNjLUOt7MdcLcgTeWP3d32dZsu2Du601LdgLtIFwAAqMTCv6ylTn1rhHe2jbcAQhCAbkGb3VIRhh0tXhEGKgcCAEDshX8efxxlaWe5Gru3EID/CqLKMGobfmCwUH1gaSvpSCcCbzLcAAAgxMI/rT/2sXTGP1WlnIcAjDeouqMv1eaywUL2iqWdil85EfiY4QcAAG1Z+KVj297tcLc5K/kjKAQ0HpIwbNTNloSCP3R7NpBruip4utsIT8CBDEMAAGj54r+uPx5w+3VlF/92r7GRdwDGCnZkoeBNbns4Yfk7KQUAAEUX/sUt7Qx/qxY/iCOACQp+VKGgXuT5bgc6EXieYQoAAE1d+DX3H+r2I6tTpz4IQK+SIapQ8F2348RQnQiMYdgCAMBEzfXa/f25234Wb/cXAtAOAtAtOaIKBV+w1FryAjoOAgDABM/tWiS2dDva7Wu1/aGIACeCSMQVCs7ldq7bfZ7IazOcAQCgx4v/AC2NbkODLf4f1Ok9V34HYKykiSwUvMptkBOWxxjeAAAwzjl8QX8c67ZZMNdet3TVUMe6v2IHIOZuwHtuqgL1dbcz3T4J5J60Cro2eLrbbAx1AAD4z8I/k9tJljr1RVr8P3KTXwv62nKyPz9kByDoDsA4kiqqUFBVBEVUTvGk+oDhDwDo0IVfnfl2djvEbaZg7l3stq/P0U9183dbf5zHDkA1dgQec9vI/6gz+AcCuaaOg9rmeswTags6DgIAOnDx38RSp75fBFv81QBuFV87vtd98a8j+nRConkQVahnOText+cCudbX7fdKOB8MqzAlAAA6YOFf3u1W/+OlbgsFck2L/eZuA3zN+FsnxKJPpySdruK5XZAT7iC3dwK5t7LbHT4o/uA2P1MEAKCGC/9X3Yb4H4e5rRbItTfc9nBbzNeIP7p91ikxqbUG4EuScQ5LVaV2sFhVpSQyaXQcfINpAwBQ8YVfN7IanfqmDOSaBH5nuB3uc+1rPfwt21qNNAAdSwC6BVR1pVW5b8Ng4+ZVSyWPz6LjIACgggu/Pqz+z+0wtzmCuXeJSInPrf+YwN9UKwLQp9OT1BPgETfdEljHYgkFZ3E7ze1hT7qNmE4AABVa/NfP8+mvgi3+d1k64/+fCV3864g+pOp/iMCNFlMouLDbFT6gbnJbhkgBAAIv/P3crvU/yvoFcu1pty0sqfvvIFIQgHGRgMhCQfU8GO6D6zy3eYgWACDQwj+H29n5q3/9QK5JR7WX26I+t/+hkwR+PVrzOl0D8GVJbTGFgu9ZKnB0vCf0O6QxAKBNc6TKr0tBr/Lr0wZybYIFfj38vdsaIsDOIADdgh5VKKiOg9qpOI+OgwCAFs6JmsC3stSpb95g7vVK4NeJBIAjgJ6QlbhCQXUcPMftfk/MdYgUAKAFi/83/XGP25Bgi7/qC3wTgR8EoBQRiCoU7O/2Fx+YV7ktRqQAAAUW/oXcLvM//jXPg1Ewym1Lt5V9jr6dSEEASpKAyEJBHVE85IP0l3QcBAA0aeGf2U31+h922ziQa2qqNsiSwO/3CPx6sZ6hAZjowSGhoApdqOBFJKHgW9bVcfB9Uh0AMIFzmzr17eJ2sNuMgVyTwE/t3g/zue3VFr+TbQ0NAOi2IzDa7cf+x6Xd/hzItendjrHUcXBLOg4CACZgodvMH4+4nRRs8VcDoSV8zv1Zqxf/OgIC0DwiMMLt2/7Hdd0eDOTafG6/c7vLB/WqRAoA8AUL/wput/kf/+i2YCDXGgK/zdxGEikIQFQicIM/VLFve7fnA7m2otvtPrgvdluASAEAui3887kNzQvtgECujTIEfuXWKzQARQfV1JY6YKkT1jSBXNMZmjoOHkHHQQA6euHXUaGK+OxusTr1SeB3pOYpn6M+CPS+tjUKAUEAJjBp5rQkFNSuQCShoCpkDbbUcfAjpkMAOmZOmtRShVNVOp09kGvqfHqW/PI56ZWA761WBIAjgFaQnWGjXnTb0eIJBWfOOwEjPLG/S6QA6IjFX1olFTQ7M9ji/ydLAr9dIy7+dQQEoLVEIKpQUB0H/+QTw81uyxEpAGq58Pd3u97/eLUW2kCu3eu2ms+Nm7g9QaQgAHUnAlGFgmu43eOTxAVu8xIpAGqx8M/p9u+S4fnjIwqesdRPYEWfE28jUm1Yi9AAtH1wRhUKquPgiW7H0nEQgErOLerUt1fAuUUCPxUpO7VqRcoQAUIAirF0iykUfNFSyeNz6TgIQCXmEu3s/iAvsvMEci20wK8TCQBHAEEQWCgoYvJrtwc8+dclUgCEXqDWsNSp74Jgi//lhsAvHCAA8YhAVKHgkm7X+wRzjdviRAqAUAv/wm5aZG92WzaQa8Pd1vA5bWMEfhAA0HMi0F0o+EIg174lYuKTzZlusxMpANq68M/ipqu86tT3nUCu/dNta7cVfC67lUgFXWfQAFRikEvAIzGPWl9GEvO8bV0dB98jUgC0bE5Qp75dLelzZgjkmrqQHl3XOQERIASgnck3lz8Od9vOYu3eiO3v53YhPbkBKDoHaOJUp77j3OYP5Non1iXwe7nG779WBIAjgArBB9YLbirfKaHgdYFc+5qbGonc7QNkAJECoMjis5I/1BDn4mCL/xWWBH4/rfPiX0dAAKpJBB5y28D/uL7bQ4FcW8HtNp+o/ui2IJECoCkLf1+3C/2Pd7mtEsi1hsDvu26PEykIAGgtEbg+7wZoVyCSUFBblI/6pHWi20xECoBeLfwzuB3jf3zM7fuBXEPgV5c1BA1AbSaLqEJBdRxUgaNf0nEQgB6NZXXqU02QwW6zBXJNol8RkpM7VfSLBgBE3Q0Y46bWngu5/cYtStU+dRz8hdvDPng2JlIAfOECM9DSsd4ZgRZ/CfzUOfDrPsccxY0fdgDYAYg/kahwz/GWdAKR8Fe3PX0SuZcoAfCf8bqUpd4bawdz7Sq3QT5eHyNK7ACA6uwIRBUKruY2zAfSEDoOAhaUvnO7acfu/mCL/31ua/kcshGLf30BAag/EYgoFBTjVbOSkT75HeE2LZECHbbwT+12iP9R5XG3z2MiAp51+6Elgd/NRKrm6wNHAB016UQVCo62ro6DnxApUOMxqI+ubdyOcJs7kGsdL/DrYfy2NY4AQEV3A6IKBedwO9tSx8H1iBSo6eKxlqW78+cGWvwR+HUwIACdSQS6VxS8PpBr/dyu84nyz279iBSoycK/iNuV/scb85iLgqs15nwu+InbS0QKAhBt4EzrtpXbVISqCBGQUFAiQXX4GxHItQ3ybsBZbnMQKVDRhX9Wt9MtdeobGMi1B9zW8bE/EIEfBCDiwJnUbRf/4z/cfuv2WCYCCAfKEIFr85fJj9xeDOLWV9x+7Pakx31/SCCo0MI/hdveyl23XXIuR8Bzbtu6Ledj/kYiBcKJAH3gbGqpneTC4/h/6+747p68txO6YpOXFPkSCUosOHUg1/7ltr/bUDoOgqBjR5Pa9yyJ6foGcu0dt2PdTuSMf6JjLAJFO+BmEwB/sWpyoRaXq/bgP7/UbW9P5n+QksUSXSKlRuvhSDsvIoF7eOxvI0og0Hj5hj9Ocls5kFsS+J3jdoiPl9FECQIQjgD4C10oM+ZNJ/CvUF15na8d7sn9OqlZLOH7++MEt3WDuSYSuI/H/kmiBNo4PubP89f3grl2df5IeoQoQQBCEoAskNE576QT8Vdp8dfVtjM92T8kRYslvoR5Ki0cSZ0vEqia6YdBAkGLx8OMlo6kfuY2eSDXJPDbizN+CEBoAmArza8f3cx76CPzF+FlpGmx5JeYSUcCOhqYM5BrWvwbHQchgaDkGNDHyk6WOvXNEsg1CfwOcBviY+BTIlUk9lqzjsjEDwIQjAA0QLOZ8gMhqlDwyUwCLyVKoEDeb2TpOGzhQG6NsS6B37tEqVjspe1Qs6ZVmv6XQwCKQNcH9/dB8S/St9igiCoU1C2R3SGBoEl5vkye/NcM5JYEfqooeLDn+YtEqVjs+1rSeGxR7B+BABTD+3ngHuuD5G3SudggiSoUHOq2HyQQ9DKv57G05btNMIL7Z0sCvxFEqVjsZ7AujccURf8xCEBx6ArMwW6/odlM0UETUSgoEqjrWcdAAkEP8zjqEdeDlo43byBKxWIvjceOloTls7bkH4UAtAxizFLIXkeqFxtAUYWCqnXe6Dj4MZEC48jdPt1yd65Arj3vdqDbBQj8isZ/YP6AWbSl/zAEoOW4LhMBttA67ytKMR+Uyx8D0MjXdSwdF/YP5BYCv9bEfqkc+7Xb4gAEoC3QUYBa4h5MlayigyvqOep1mQg8RJQ6Oj8Xy199GwZyC4Ffa2IfQ8QMAWgrVCdbvQdOpk52jVn2uPFpNxLIRNtZ+Ti7pbv8Ou/9SiDX2J0sH3vtSA7KNk3bHYIAhMCzbvsZzWZKD75vW+r5sEQgt2iW0jn5N6U/fp7H+vSBXHsoL/zXE6VisZfG44duR7rNHcYxCEAoDLd0h5xmM+UGopS221uq3jdHMBKoqz+/hQTWLuc033zf0m7ffIFce8GSOPU8BH5F468aDroNtHQ45yAAIaGSwqoqN5LhU2xQSii4j9ueblMFI4HqOPhXolSLPFs1T/4rBnJLAj9pD07wPBtDlIrFfpH8njcK6yQEICwazWbUcfA1hlOxQRpVKPgnSwVXIIHVzKsFLB3t/E8gtzTnqZnMQZ5XLxClYrHXHf5D3Ha2WBqPsXGJE4C25ScEoGdQsxmpRc+g2UzRQRtRKCgS+EtLHQchgdXII3Xq07b6rm6TBXKNmyflYz9FjrvqJswQ2NU7LWk+/ta2NRgCMMGg2UxrBnFEoeAbmQSeDgkMmzeT5S8+ffnNHMg1BH7lY6/1ZHNLdfvnD+zqU5aOPS9p6IwgANUDzWbKD+ioQkENYB0LXEKUQuXLdy2d9S4UyC0Efq2J/Tcs7Rx+I7Cb491FhgBUFzSbKT+4owoF78gk8B6i1Nb8WC5P/qsHcktV+9Qc63jPj3eIUrHY60tftzq2COymFvvT3I7wXHhjnL8DAlBpqNnMyUpEms0UHexRhYK/s9R2+hmi1NJ8mNfSfe6tA+WDJtOGwO95olQs9jrbP8BtNyvdqW/icFH+QHz6C38PBKAWULOZRsdBms2UG/wRhYINEqiOg28RpaLxb+wIqcfElIFc+4ulc/4HiVKx2OtY8MeWKjjOGthV7Q6qa+PdPfpdEIBa4eE8EdBspuxkEFEoKBIoAdo5kMCmx7vRZVK7QJE0ITSXak381alPxyqLBHZT14X3nVCROASgnrg+EwGu/JT9ItjBUu/u2YORQAkFryFKTYnzennyXzKQW+od0RD4fUKUisVeO34q4rRWYDdfzXPQWZ4LH03wb4QA1BY0m2nNJDGddQkF2RauT1z7Wdrl+VYgtxD4tSb2qtWv3Z5tLZbmpzs+cDvV7ajxCfwgAJ1NABqg2UxrJo2IwrBG5bcDIYE9juMc+YtKuztRqrgh8GtN7NWdT/qOvd2mDuzq0DymR030b4YANHWQThI4aWg205pJZJn8lRZp23BMJoEnQALHGzdd89zdbV+36QK5dqOl3hDs5JSLvTr1bZO/+ucO7Kr6g+zZzBowEIDmQW0+58iTyJSBk2h4TqJbGfpFJxUJh7SFvFggt57rRgIpDmP/qeL2v25HuX0tkGtoOVoTfxF13exZOrCbT+RcuLzpv7+NBKBPzXLpTQ+QJteFNcHmHYGIUPGSWzzxL3NbmCmgELsdNuoqf/S3VB72pSBuqZ7BBW73eOxX7/QY+TsY4I9hebxGWfxHW7putjSLf9HYL+J2paUdlqiL/8uWegssUWLxb/scWbMdgO08SOd3S7CIW8FjQ6rRM90OpdlM0ckmqlDw8vxl8USHxePrlo5ENg3k1nv5S/RYBH5FY687/IPddrK4nfpaVtuDI4BCBKBbwmkrWE0ilgg8Lmg205rJJ6JQ8ONuJPDVmr//mSwVzNrF4nTq0ySoXRmJup5jlBSLvar2qXqfqvhF7dSnXJDAb/9WlXiHABQmADn5ojaXGRs0m2nNZBRxd+jNTAJPqxsJ9Pc9uT9+khf/mQK5pu1n6XH+zqgoFvtGpz7t+PQN7OpNee4d3tL3AwEoTwC6JaNKiQ6ydNUk8jUTms20ZnKKKBRU7XBdg7qkDrdF/B1vkt/x1wO5hcCvNbGvQqe+R3MuXNWWd4QIsIWMZ9iod9xUrlVtQ8+1uLUIVnUb5gNoqNt8TCXF8iGiUFBdzi52u81jv1KFJ//l3W7zP14aaPFXjBH4lY/9/G6/9z/eGXjxfymP+/7tWvzbPv912g7AOBJV5UXVR3z9wHGi2UxrJq2oQsELLZ1JjqrIe/yqpTatWwUbQw2BH107y8W+Cp36JPY8KUoucATQRgLQLXHXtXQm3D/w+NKVFJ2h0mym7CQWUSioBewUS2VH3wr63kSgVMRnj0AEShPcEC1K/t6eJbuLxb4KnfpCij0hAAEIQE7iqlSjesRSBzK2MMtOasvkL4U1gpFAHWH9OgoJ7CawlYAxUlMmibrUi+F+srlo/KvQqS+s2BMCEIQAdEtolSTVNrC2g6cNnNQ0m2nNBLeRpWOiSBPco5kEXt3md7NBfjf9gr2bvTv1XLeFsa9Cp77wYk8IQDAC0C3BdV1wsNuPLG7BCprNtO4rd8ecD7MF+7JpeZ36rJ3RV996gd6FRF3aHeGIrGzsq9CprzLtmiEAQQlAt4RfNH/lDAycRzSbac3kN72lc+5I/SY+60YCXyj8++e0VEvj/yzOLSIEfq3J/Sp06qtcu2YIQHAC0G0ArJGTa7nA+USzmdZMhlK6q3nNVoG+gkQCj8sk8N0m/96Ix2II/FqT61XQRlW2XTMEoCIEIA+GSfKkL5X41wLn1X2WtobpOFg2H5bLpHCNQG49n0ngkIklgTnff5DJzryBfuMtlkRd95GFRfO7Cp36rrOkh3moku8YAlAdAtBtYGj7d7c80c4QOL86stlMGybKiELB+/MieXMvf9PqefKPtOP1eJ7sryTriubzIpnYRj721IIvEfT1lX7XEIDqEYBuA0V3XnU3X52tJguaYx3TbKbNk2ZUoeAVmQQ+3sPfoRbV0pNsHOg3vJzf69kI/IrPZ4Mtdqc+6VwaAr/KH3NCACpMALoNHJUWVsfBTQPnWm2bzQSbRCMKBT/pRgJfGY/fM1tS0e8ciMxSBbM1OVuFTn0NofNJngtjavPuIQDVJwDdBpJq+GvrbOXAOVerZjOBJ9WIQkGRwCMyCfwg+6lOfT/NX1UzRnl91uK2rB2ao1Xo1Cfyqr4tB9fxqjMEoEYEYKxBpXroCwTOPXUc1Bnx3UyFRfMholDw6bxL8Wme/CPl6S2WznaHkz1F87IKnfr+bOn4akRt4wABqBcB6DbA9GW1S/6ymilwDlaq2UyFJ9yIQsFIQODXmjxUt0kdV34vsJsPZBJ4Y+3jQTvgekLn7G46v1wwM+2o5+5buj3qE8Mx+fwalMkHLWz9Mil8mTfyH7yS30k/Fv+iC/+MbqoT8VjgxV91TLZ1W64TFv+2z0nsALSceetYYIvAORGu2UxNJ2MRrf3cfm6xWg+3Eo0Oh0d7rr1JVhTLNd1O2SmP66id+lS1T0dRJ3ZaJVOOADqEAHQbkCtYaqIxILCbIZrNdMDkPJ+lolJbddhPl8BPFfyeIQuK5lf0YycJ/M62dDtldEfGCALQWQSg2+DcxNJZ3MKB3WxLs5kOnKiXt3RMtFrNf+pfLQlP7yXqRfNp6ZxPkTv1XZU/Mh7r6FhBADqTAOSBWoXtuZY1m2Hi7vtdS/X8F67ZT1MlSqm5LyfKRfNHtfq1o6Ta/VE79al88169rVAJAWgeEAG2GTpndzvd//h1S/qA9yO66ba920ifYA52m5rIFcsHLZBLuO1qSRxXdbySf8sSLP5FF/5p3AZrjFrcNr3/dPuh2wos/kHmG3YAwg3kiMVjxkbTms2AL8wFVWSTUPBnVj2hIAK/1uRIo1OfvvrnCurmW/nj5hRalcfaAYAAxB3Yy1oS70Q+w5uoZjOgx7lQNaHg7yzVlUDgVzYv1rZ0zr9UUBcl8DvLksCPa68QAAhALwa5unHpeszigd2coGYzoNe5EF0oeLslweg9RKtoHiyaPw4id+rTcc8+zAkQAAjAxA94CQV1Bn+Y2xxB3fy4G9t/hWFdNB+iCQVH5sn+MqJTNO7qMCmxcOROffdmEngbEYtPABABVgBZKKi7shIKqpvfuwHdFElRQ5knfaLaK3cXA2XyIYpQUK2l1UFuCRb/ogv/FG57Z6K1S9DFX8c9OqJakcW/QnMJOwCVnBDmzkRgO4srFGw0m7mYjoNFc6EdQkF1ETzV7SiP7RtEoVhsNbZVsle1QvoGdVMCT4mWT/VceJ+oVWsHAAJQ7QliSUtngesHdvNOS0LBuxjqRXOhVUJBGke1Jp7q0KdqoVHbin/kdqbbYZ4LrxIxCAAEoH2TxXqZCPQP7OZF2hFg4SieC6WEggj8WhO/KnTquzSP5ZFEDAIAAYgxcTTuAx/hNndQN7V1rLvhR3E3vHg+NEsoiMCvNfGa0VJtDR3lTB7UzbstVfC7nYjVgwAgAqwJVJDHTeV6F3I7yFJ3rWiQMFBiJgkFf5JvN4Ay+SChoFoPS6TXmy3a1yx1KkTgV3bhn9Ttp5loDQq6+EvPow6m32Dxr9k8wQ5AbScWXRc81G0Hi3tlSE1A1AzkKiLWkq/L3TIJ+yJ86Haa2xEI/IrHJXqnPsVfO4qneS58SMTqtwMAAaj/JFOFoiHqOCih4N+JWNFc6GtJsb3leP4n0mns53F4mrdVNA7RO/VJ4HeG2+GeC68RMQgABKD6k86amQgsF9VFN8VOHQefJ2JFc2EFSwrzAfn/dEcmYHfzdoq+9yp06rvYksDvKSIGAYAA1GsC0jvfKk9CXwvqpoocSbx2gsdyDFErmg+b+KOPv+dLeBtF3/M0ls73ZVE7aeq6rgR+fyNiEAAIQL0npKksVZHTufAMQd3ULsCBbhfQcRBUdJxVoVOfvvT3cbuEgl2dRwC4BdCBUEtON31lq7Tw6ZbO/KJB26Xnug33iXQtogYqtvirU999OYcjLv6NWx6L+VzwRxb/Dl0L2AEAPlnp6qCKj2wa2E3dFNiL7mIg+FiKLrrllkf5HND15p3d9sgE8ER/1+9G3AGAAIDuiTsgT15Ry482+osPpuMgCDZ2qtCpj1se5fPgO3kO7V6A6wVLtVnO93f/CQQAAhA5gRWXzfOOwPxB3VQVQZ2rqgHJB0QNtHG8qK6CqvdF1tOoeI9ueQwjYsXyYBlLN2vW+IL/2QhLVTWvgQBAAKIntCqS7ZKZ60xB3RxlqePgHzjDBG0gytE79VHGuXwezJM/Rn5oPb/aeZOlAmj3tZsAIAIE42aGw0Z96Hay/3HBzGwjVgLTxPt7tztz9zQAWjHpK9fuzLkXcfFX6WdVfaSMc7kcmNbt0EyyJrSug0TN9/p/PyR38WQHgB2A8Amv44CjLdUEj4o/WCpiwhknKDUGInfqe9/tVI1TBH7FckAfzdu5HW7Nud3xgd399JQQgObgYUstS68nVYsNgBUtlTEdENRF7VQ0Og4yCYJm5Lx6KRyQv6qjduobKh89558hYsXyYJ089zW37frdT7etKmTdCEADf7Z0xvIwaVtsMKiK3LGWug9GhG4JaIvuLM+Dj4kY6EWO6zqXVP2D3WYJ6uZfLQn87iVixfJgcUvVSTcs8g9AAIpA1y3OcTvYB8dLpHHRCVLXn2YN6ubjmQxeScTABOS2OvWdYJ+/zhUtr/f2vL6CaBXLgdkz+dvRSl7thAAUxduWzq5/oQp4pHWRgaLrT1Ljq7LYlEHdvCl/KT1AxMAX5LKuc2mbd82gLr6cF6Wz2dkqlgNT5rlsP7fpi/+DEICW4J85oBdyZazYwPmqpXazajgUsduZ4n6BpbNSOg6C7rmr61xHWNxOfRL46VbOMZ67bxGxIjmguH8/fzC2Tp0PAWgp7rEkFLydlC82kJa1VA0rag1/leXU9u5xdBzs+FxVp7693faymJ36NEH/NpPWfxGxYnmwqqXrziu2/B+HALQFl1o6Q/sH6V9sUKkeuoSCiwd1USU61XHwfDoOdlxu6jrXtvmrP2qnPh1bqf/F/USsWB4skOeo/2mbExCAtkFd8NQN73AfZK8zHIoMMAkFt3c7zG2OoG4+aGlX6EYi1hE5uXb+2usf1MVH88fJVUSrWA7MmMm/rnZO1lZnIABthxZ/XRk7UxXwGB5FBty0lrZa97SYW63C1fmL6zEiVsscVKc+Hf1sGNTF0ZYEfucg8CuWA1rsG1c7Zw7hFAQgDKidXX4Azm2pipaqaUUUW+n66K8sdRx8mYjVIudmyxP+jy1mpz7dTtLNg2M9594hYsXy4LuW7vPHutoJAQgHimuUH4xLWhIKrh/URSmtGx0H3ydilcwxXefSFq+q+E0f0UVLt1IO9Bx7jogVy4PlMsFaPaSDHUwAtN0+adS8sVReU/2zn2UYFRuc62UiEPU8dpSl66MXcX20MjmluUU9K3Sdq29QN2/MHxl/J2LF8mDeTOK3tpi7jZ1LACaZZBIFSFsxUmBuHDiP3reu7bm3GVZFBqoU2bp/LUX23EHdvMuSPuAOIhY6l1bJ43XloC6qJ7wqU15LtIrlgPRG+1jSG00V3uFOJQDdAjYgD9oVA4dJAp2D3X7jg/cThlmRgStx4B558E4b1M2LLXUcfIqIhcqd+fPHxOZBXXzR7SC385g/in5I6MaRNEZzVsbxTicAOXhV2LZrMHh9CV7HkCs2kHVdULcydrCYoi0dXZ2mHQs6DrY9V6J36msUnToegV/RPFg3f0QuWTnnIQCfC+QU/tg1D+oZA4ftukwERjD8ig1qXduSPmBgUBdfta7ro1zbam1uRO/UJ4Hzefrq99x4gYgVy4PFM8H6VmV/BARgnIHVHU1tme1i7S7UMH5oK+83ljoOjmY4Fhvka2YisFxQF5+wdK5LZ7bW5EP0Tn3X5Xx4iGgVy4HZM/n+kcXcJYQATAwB6BboBS2d7W0WOITa2tPRxcl0HCw24JUwajIkVe/Xgrp5i6WKgpRuLZMD0Tv1acHXruD1RKtYDkjU1+jUN10tfhQEoEeBV7MGFXFYJXAo1axjf7ehXBkrOgHsmt/zDBFddPt/lpq3cLe7OTGP3qlPnSVVVvYCekoU/QDYMn9ofa1WPw4CMEFJsFneEVggcEjvzV+CtzF0i00Is/rjEEvV3SIeEWknSMcWiL96H+PonfrG5LnoRI/xu0SsWB7olph6N6xQyx8IAZjghJDaV9oAaQRmChxalRRWaeGRDONik8NC/jjGbdOgLr6Yvw7P4+uwxzGN3qlP2p9zLWl/XiRixfKgCse/EIBWE4BuCdLo6KQt4cmDhlcdB8+w1HHwNYZ10a8ECcNWCuqizoe1K3QD0frCOEbv1Hd1JvUPE61iOTBTt3l9str/YAjARCeMioDobGiLwGFWx0EVqDiDjoPFJg4l1eZ5R2D+oG5eY0kh/ggR+1zsonfqe8CSwI+W0eVyQIv9TywVXJu5Y344BKBpCbRSnkQGBA73k/kL4lKGfLGJRLtBP81fERGPiLSFfLaljoMvdXisonfqk5BTNUmGcIRTNA9UDl4i74UCu3m7232Wik5BAKIRgG7JtImls6PoybQ7HQeLTirRtxLVcVA7V7/otI6DFejU93aeQ07iam/RPFje0tXO1QK7+Z828e7vtpYKPEEAohKAnFia8FUpTErxWQInV6Pj4L+YDorlQvQjomcs3Wv+fd2vj1ag5De7M63Jg3lzDqi2R9ROfa9YKjb0K8+Fj7LfEIAqEIBuiTZjnlz1tTFl0ETT15+ET8fQcbBoLkQ/IhpmSSh4R03ff/ROfVdZ0mc8xmgplgNq8rWvpU59kefjU0RQPBfeHMt/CECVCEC3wM1nqYrcVoHHh744Gh0HqS1fLheiHxH90dKW41M1ed/RO/UNzwv/zYyOYjkgfUejU98cgV3VjqyKeD0znt8BAagiAegWwCqcOemK0V70DC+aBzoikvBMR0SzBnRRW47qOHh4VTsOVqBT3z+zf1TuLJsH6+U5t19gN2/Jc+7wL/ktEIAqE4BugVRDEVVqWyRwUl6fk5KmIuXyQOWEdUT0M4u5JanaEY2Ogx9V5J2qU9/OFld/0xBfnoLAr2ge9Mtz7AaB3Xzc0u7PlT38TRCAOhCAbhPVjpauIc0WNEF19ajRcZCqY+Vy4av+OMriipJG5onq8uDv8Tt50o/YqU/Hame5Hebv8WWyvlgOzJFJ6w4Wt1Pfy3neP3tCjlshADUiAN2CqmtI+7jtYXGFKaon36g7zldLuVxQy2HdR14rqIu3uu35ZVuVbXhv6tQnIesaQd/bnyzpKp4gy4vlgBp17W5J5Be1U58EfjqOOLY3gmsIQA0JQLfg6mqKhIJbW9yrKc9a6oT3W84ti+bCwEwEFovontsQS2KlZ9v8nubJY+aHQccMjbnK50AVWnU3ZcxAAGpMAMb6mjkh8FegMDxPbH9lCiqWBzoiknL5MIupXH6v29fMOy1+N7rONSjbVAHfzShLAr8LIcpF8+CblnZ+lg/spso36/js/ib8XghA3QnAWF+Bqiu/RGA32dpszWLXOCKK2JZW2hB1xjy3dLna3KlvO0vXuSJ26tO9bXURPM3fxQdkb7E8+LqlI8lNA7up21R7ex5c08TfDQHoFAJQka9AQerwM90OpeNg0VyYOy98WgAjJrBui+jWyPWFfv86ecehf+AxIIHfq2RrsTGg8tqqVaJ27FE79Y3OPp7b7HoqEIAOIwDj+ApUBaupgrr5Rl6gTqfjYNFc0AIofcD6QV38s6Utz4eb9Hulg5CyP2qnPjXW2td/70iys1jOq45Do1PfTEHdfDcT1ONKHYlBADqUAFToK1BQBTltfV3C1FU0F1TgRFqRJQO6p5r251i6PvpSL3+frsbqOpeuyka8znVX3vG4g2wsmuebZML79agu5kX5IM+F5wu/CwhAJxOAsb4CNfmvG9hNTYzqOHgP01ixPNCZ+DaWzp3nDuiirjo1Og6+18PfpKuwKoyk2yYRO/U9bemq2cUI/IrmtoR9Evh9M7Cbf8kk8MEWvRMIAATgcwmhKlfaHo1c5vJ3mszHV98aNCUPJA7U8dDebtMGdFFlb1XxcLyq+G6d+iR8nS/gb3jDugR+HHGVy+VGUawfBHZTehcdc13X4ncDAYAAjPMrMLIyWlABjJMtdRx8i2muWC5Er4Km3SBdH719LL9XtXR+ulJAnxt9EY5wv18ny4rlror3aGclckG0FyzdeDmv9I0XCAAEYEKTYxp/7GXpbvQ0Qd3UebBqtJ9Dx8GiuSDhnM5NBwZ1UfoQiVo/y1/8UTv1XWxJ4PcUWVUsVxs3nfQBM3tQN8dY2mk9wXNhTBvfFQQAAvClSaJdgMPyrkDUWtiPWNpCu8ZAyVxY05JWZNmgX9aaACJ26rvT0tnu38iiovkZ/QhTYtZzLUgvFAgABGBCkqVf/gr8VmA3Wyqi6dBJtgqlUqPgSUvb0Jci8Cuak0vmhX/9wG7qOqtuM40I9N4gABCACU6ayAVUhE9zUh9Ix8GieaD6EbtZEuPNwBv5HFTASrtmZyLwK5qD0qhoq19b/lF3J/+eP0puCPj+IAAQgF4ljoSCW+evwHmCuqmzNZX3PIGOg0VzYVZLOoyd3Cbt8Nehxb4h8HuD7ChKPiXu0+7KtEHdfM5S/4Yh7RD4QQAgAK0aiLoutk/wgdjoOPipgVK5sJAlAd6mHfoKLrR0PXUU2VAsxxrHT6oFMW9QNyvT6hwCAAFoViJFvy4m3GfpytitTKVFc2GAJaHgSh3yk2/PeUWBqrJ5pQI+uvq7XFAXJfD7tdtgz4XRFXmnEAAIQFMTalFLYpyBgd283JIYh46DZb/UNs87AvPX9GeqVr86V15GxIvmknaWJD7eOLCbV1m6hfRYxd4tBAACUCSxIl8XE1QzoNFxkG5r5fJAV/J+6nagxW26MqF4xdJu1688dz4iysVyZ2ZLzXrUtCdqpz7tKkrgd3NF3zEEAAJQLLkkFNR5ncqdRr0upn7rUhFTjrVsLsyUScCugSfzL4OqT57idrTnyptEtShp3CUv/jMGdVOlqCXw+12VdUUQAAhAK5JMQkE1Y9F1semDuqmGLKp7fwn3tYvmgo4DJODaomKuD9WET/+J4vmxmSUB3YJBXXwr5+8pdbhZBAGAALQy2dSOtXFdLKpQUB0H9/TBfTcRK5oLEgjqiGhAcFdvsXS2ey9RK5oPK1jq1Bc1HyTwO8vSkeHLNXrvEAAIQMuTbuHM8iOLerjS1Zpc2CTnwkLBXHs8L/xXEqWi8dfRoDr1bRXYzT9ZEns+UcP3XysC0IchFR8aSG6a+Fdzi/pltaXboz5AjnGbnqgVywUp6JewpA14JYBL+rrT+XM/Fv+iC890bkdlohV18dfctJrmKm4MVWQ+YQegchPBJHmx1WQwX1A3tSjo6OLXdBwsmgsqJyydiPQirW7fKoGftqCPpb100RirUqRqhegWRdROfdJ5qHDYhXXXA3EEAAGIkohT5K9AKcWj1pV/1NK28NVErGgufNW6toVLDyxNGEMsCfye5e0XjauaiKlGyBJBXdTNDt1Y0o2gDzokJhAACECohJzF0vWfnS3udbEbLVV+o+Ng2VxQxTcVgFmr0D9xk6U73PfztovGUZ361Dxs3aAuqpaDaoIc1mk1QSAAEICoiSlRmK7bbBbVRevqOPgCESuaCwMzEVisSX/lI5ZEXVfxdovGbU7r6tQXVZ91qdu+ngsjOzRGEAAIQOgEXdXSdbGVg7o4Ji9O6jj4LhErlgeT5oVELXbn6OVfo/rs2l06Fy1H0Vg1GoSpU980Qd28y9Luzx0dHisIAAQgfJJWoa7885aEQ0PoOFg0F9RxUp0n1Qp26h7+ZyrYoi1oCfze4S0Wi02j8qd27qK2CH86E5OLKfgFAYAAVCtZGyVCD7K4deV1nrxnVWuDVygX5ra0vbydjV8oqMngfOWLx+M53lrReKyeSVbUTn2vWxL4nU7JbwgABKDaSVuFuvJXWOo4+DgRK5oL/S0py9cb6//1F0tbvAg1y77/6EW9JPA7TYu/58LrRAwCAAGoT/IuYOlYYPOgLuqcuVE+9BUiVjQXRABOyLsBuqp5LW+l6Ptu3NZRp75Jg7p5sSWB31NEDAIAAahvEquuvLYfVw3qYsfdL25THvxbaY4Go+g71jFco15H1E59EvZp9+cuIgYBgAB0TjJvlncEvh7URQRIoMrj638sbfcvENTFJ/MX/yVEqzMJQJ/gL3tqDaLMokGzSVga+KoyplKyEQt66AbDRW63ew6sTMRARRaJFd1ut7SlHnHxf83t5xr7LP4dvgZE3AHwwaPWt1Ir6w7zXEbv+VZMWtqe1LW83dymCOrmRfmLZRQRAwHHkHpz6ErflkFd1HHaqW5H+Rh6g4ixAxCOAOQqZsfYuOtf32mppCy958sleF9LdeUjT2Kn5EnsTSIGAowZdb/cL39VTxnUTdp1QwDiEgB/sctbup60Rg/+899rwJHMRRNd8ZBQcLWgLuqWgDoOnk2VOtCmMdLo1KedytmCunmbpTob9xAxCEA4AuAvVOe8R/bii1Nfgr9wO5ovwaIJ/11LpXsXDuqi6gbsRZ160OJx8e38wbJ4UBefsFRX43KiBQEYH/q0+WWelCfw3mw365xaJU5H+t/zk8zGQbOJWppAdByza/7qjoZF3K70+N/othQRA4XnrP5uKpp0ddDF/5U8Vpdg8QdhdwBspfnFepp5//jRzHj5Eiw3+emsU9fydreYZ52NUrbqOPg8EQNNzH2JkRud+iLeYX7f0o7oMeyIFs2DQy0VdKrFDkCdCEAD6j2vM6+/k67FBsFXLQkFtwo6GarLYKPj4BgiBiYi19VASZ36tNsYsVOfJvChlgR+/yJixfJAPRu0Y918TRQEoMig0DnNQXwJFh8UWmjXCuqiYq8KbBdQ7Q5MYG7reHRrS/qkqJ36brGkfxlOxIrlwbz5Y+cHxT52IADFoK8/CXWOp/d80UEyMBOBxYK6+IClXaGbiBboQT6vYekGzLJBXdRx5z6ez1cSrWI50GijvZeVPu6EAPAlWIMB07gSpTOy2YO6eVX+YqLjIBhXDi+cPxi+E9TFlyxdfT2Hq6/FcqBRhE69SOZoyT8KAeBLsIbMWeemUwV08RPr6jj4MhEDuVOfFtadLWanvvfzjsSxnrNvE7FiedDokLlkS/9hCABfgjUcTPNkFr2NxRQKSimts71T6DjYsTmqHiMqfa3dwRkiuuh2gaVbLc8RsWJ50M/SEea32uIABKCtX4KD6T1fdHAtlb9e1g7q4ihLVxv/QJ+JjslJzT2NTn3zB3WT20zl80Bb/Dqy1NHlV9rmCASg7V+CUvqeypdg0cG2gaXz1X5BXVQvdPWZ+BvRqnUermTpOtcqQV182FI9k2uIVrEc0NHk7pn4T9d2hyAAfAl2yMBrCGxUUGXOoG7+wVLHwaeJWK1yr6+lTn3fD+rii24HuZ3nufcJESuSA1pz/tfS0d/XwjgGAeBLsMMGooSCe2WLWFzlQ+vqOEjb1Grnms72G536Ira51vVkCc90VfkdIlYsDwb442S35cM5BwHgS7BDB2WjvKp2BfoEdFHaEJ0RnsW1q8rlltT8O7oNtpid+jT3nW8UKyudBwtaEvhtGtbJTu0G6MH5raUtmUmChoYvwdYMUl27kT5g/aAu6rbIIAqvVCafNsz5FLUw1XU5nx4iWsVyYCZLRyo/dZssqptuQ5wAbNORBCAHSuVktQW2RuB8ejV/SfAlWHbQrmPpxkD/oC7ebEmZfT/RCpk/yhsJ/KLeONGCr+vH1xOtYjmgq52q56C6DjMFdvWmnAv3t20XPgIB6Ba4jTJrXyRw0J7IQeNLsNwA1lGAGLFqCMwdlLVzNztWzihPGkdJEXcTtcWvDnLnUYm0aB5sYmm7/+uB3fyvrrUQgK4ANs7txN5mDxxEvgTLD+boXdga4q3j6DjY1hwZlC1ijigvVGvgRHqRFM0DCfu08/PNwG6Ozuvab8beRYYA/HdAp7OucrJTRs07vgRbMrhjFOsYP16wVEnufL7uWpYT2iX6oaX6HRF3iXSN71x99XtOvEjEiuVBoy35DwK7+Z51lXEe5y0PCMD4AzxvHuRqyxlVKMg1ntYM9sUtbe9tGNTFBy1dH72RaBXNgzXz197SQV282lKnvoeJVrEcqNUHIgTgywO+jCV9wNqB81Jfgo1CHnwJlhv8a2ciELVVqxYA6UQeI1pNjfsieQ7YKKiLD+S4QwDL5YB2AP/P7TBrVae+3uEvlm559KiMMwSg5wnw7Tz5LxE4+PoSlD7gBoZssYlAW8BbWdr+mzegi9oC/pWlPhN0HJy4WM9qXZ36Ih4B6evuALchEP+ieaArwtpp7RfYzRF54b92gn4bBGCCEkFCwe0rwAKvzsnwKMO32KQQq6b3f+Mt6+o4+D4Rm6DYqmrfrha3U5/a8h7jdrLH9j0iViwP+uWFf/3Abk5UGWcIQO8So9F3fg+3qYMmhpLhbH3B8CVYdJKYLX8l7hT0K/GZTFIuos/El8ZSE8PmeXGdP/CY1u7OS0SsWB7o4+7w/LH3laBujsnk5ISJ0X9BACYuUaLfAW58CaoRyS/4Eiw6aeicWEdE3wnq4t2WjofuIFrjjN83LCmmvxHURd3dHoS+o2gOTJU/6kSYpw3qpo56zrNUxvmFif7NEICmJE7/zMbWDZzf+hJUY5Lf8yVYdBJZPS8kywV18WJLfSaeIlr/jtf8mSBvEdTF4Zm43Uq0iuWAFoStch7MG9jVppdxhgA0N5E2yF+BSwZOomGWrozxJVh2QtnS0hn8fAFdVJ+J09yO6NQ+E7lTnwR0u1nMTn3/zP4NhbAXzQMV8Dk5MGEXHswLf9PLOEMAmp9QUok3+s7PFTip/mjpzjBfguVyYcq8wOxvMcVk6jOhQkdndkqfiSzk/bGl/hqzBnTxzfwleioCv6J5sJClSombBHZTZZwlRL2g1C0PCEC5BFN5UPWcj1oqVPgofwkeTsfBormghUb12CUUjNgd7In8hXFFzeMw0NJRXcSeHyJgZ4mQeRxeYdQUy4GZLanmd7G4nfpaVsYZAlA+4bQLcFjeFYiqKH2t25fgR0wTRb86pDCP2h/8FkvnzffV7L0vZamC31pBXfyTpd24JxglxXJg8rzoa/GP2qmv5WWcIQCtS0DdKZU+4FuBx8nI/CV4OVNG0VwYYEkouGJE90x9ws32r3qfiXxLR50dt7WYt3Skx1EFv9sYFUXzYLNMvCN36lPtFnXqe6Sl7wYC0PJkjN53Xrg1fwkOZ/oolgfR75zr/LnRcfCdir1bHbk1OvVFrNMxytKNHGozlM2DFSzt/AwI7GZbyzhDANqTmI2OYvo6mSfq+Mlfggd4cj7LdFIsF7Q12ag6N2NAF1/MvoXvM5HH1TaWmnhFFOC+mcf8af4uPyD7i+XB1yzdwNkqsJshyjhDANqbqCo80eg7H7XwxPv5S/BYOg4WzYXo4iTdPd4jap+J3KhJO2tLBXRPupozLF27fJVsL5YDKsmtnRWV6I7aqS9UGWcIQIzEjd53Xhjd7UvwEwOlcmGBPEFsHtTFayzpRB4J8r4WtdSpb2DQ93WJJYHfP8juYjmgq52NTn2zB3UzZBlnCECsRFbf+WMDT2aNL8G9ShSlAJ/LBZWk1c7LKkxm43w/0Xsw/C0TJQpulc2DDfI4idylNWwZZwhAzKReMyf1soHd/LMl1eoIpqFieaBElYJZhWEiKpgbfSZOadV2Zu7U9zOLW1xJhbV0pHcJAr+iebBkniPXC+xm+DLOEIC4CR6973zjS/AcSx0HRzMtFcsFCQXVk17FhGYO6OIzeUG+sNSil8nQ9ywdj/QN+A5et1T98wx/Bx+StcXGwpyWtvq15d8nqJuVKeMMAYif8BIK/txSh6rpg7pJf/LW5IJuCUiHoVsDkwd0cVj+4rm9yb9bxyG6zrVywN+sxf50SwK/18nSovPgnnkejFpZteU7YhCAmhOAbgMg+plng/nqS/B3bH8WzQV9AWtnaMugLkr4tvfE9pnInfqkiYkqiLzIbT//nU+TlcVyvbETqoU16pXpypZxhgBUb0BE7zsv3Ou2e7O/BMF/5ULkQie97jORdzoanfoi7nTckXc67iYLi+Z39NbaQqXLOEMAqjs4VsuDY/nAbl6aB8eTTGdFc2GT/KW8UED3etxnIl/n0g7XYLdZAv6WkfmL/xKyrmg+L5zzeePgHzl7VL2MMwSg2gMlet/5xpegiqAcxhlp0VxoLJ46JorY5vYL+0y4/xtZUnUvHND3Rtvks2iWVTSHZ875K8Fr1E59oywdc/6+DsecEIB6DJzofecFLf5S7/4SlXTRXFD8VQ1NV+UiVkP7XJ8J93cZSztZawb0VeV6TxXBpl120ZzVMc9PLVXCnDGom7Us4wwBqNdAmjUPosgMWscBEohdxtRXNBfmyxOWBFTREl4D/7eWrpFuYzE79Q211AfjGbKpaJ6qzoU0TQsEdVE7Pmda2sGsXRlnCEA9B1X0vvOCzs50hnYv02DRXJCASlvra/A2eoS/5h0K8rJsXqoVtgSsqwZ2U1oPaT5G1jYOEIBaD7LIfee7f2lpkP2LabFoLuiMXTXzF+FtjBNSce89Po0CaFoeamdKV/q2DOzmXZbKnde+jDMEoP4DLnrfeeH9/DVwjA+6t5kmi+WChII/sqSyn5038m+8nN/H2Z57H/M6iuWeiphJm6KiZlE79amegwoNXdwpdUwgAJ0zAKP3nRfUWEYahnOZjIvmgtqmql79noEn41aQzpMz6XyLrChKOtXlVALg2YK6KYGy9DKnd5pAGQLQeQMyet95QQ2GdGXsWqbQormgHhNHum1tMYV4RX62pWOn/Tl2Kp5f37Z07LR4UBcbxao6towzBKBzB+eCls7iNg/sploO6yzuIabTormwlCWtyNo1/6k35Xy6n6gXzaf+loSn6wZ282K3fSe2XDUEAAJQ9cEaue+88Knbb9wO9sH6IhEr/sWmK1lL1OynPWpJ4HcVUS6aP+rUp6307Sxupz4J+7S7+DciBgEA9rm+8yq/GfU+7jvZvxPpOFg0FybNE7jObOes+M9Ri+rBbuegKSmaM1Nb0pNIVxK1U9+T+YufMs4QAAjAeAZy9L7zwrOWKh7+lo6DRXNhWn0pue3lNnXF3BdB1JHGsZ4j7xDNYjmir3zpR6Qjidqp77VMZs+kAikEAALQs4Edve+8oFKyKthyKxErmgtz++PwvCsQfeBoQrlAuet58RzRK5oXa2SStWxQF1Wu93RLAj/KOEMAIAC9GOSqGyCh4BaB3ax0O84K5YKEXdIHrB/Uxb9YOtv9O9Eqmgdq1iRlf+R25BdauuUxiohBACAAEz/oI/edFxr1ug/1Qf8aESuaC+tZEo0uGcQlroy2Ju5qz9zo1DdpUDdvt1Re/B4iBgGAADR/Eojcd17QVp+2q0/nvK9oHujsd7v8rudqkxu6EaJ6Fud5rD8hKsVi3SggpncdtdOoavXvQ4MxCAAEoPyEoOJBjb7zswR186k8IfyRiBXNhXaov8dY2oI+EYFf0dg2bgbp2CdqCfFX3A51O4tbHhAACEBrJ4jofecF3fnVluAwIlY0F3RdUErr7d2+UuifUT2I8/Ql6vF8gbdeNJ4rWTryi1obRGWcT3E72nPhTSIGAYAAtG+yUHcvXQPaKrCbEgXtR2/34rnQz1LTqQ2b/FdfZ+mcn4qQZePX15Lo9/uB3VQZ5wMYyxAACECsyWN5S9eCVgv81fCL/NVA85eyuaCSwhIKLj2Rf9WDlq563sBbLRqvxm6eOvVNEdTNWyyVcR5OxCAAEIC4k0n0vvNq/6pCR1SHK5sHE1Mk5nlLdSgu8Bh9ytssFiOp+Xe0VC0xaqe+xy3t/lxJxCAAEAAmlmbh0fxFcQ0RK5oLU/ljD0tCwem+5H8uUZ9EZxL4vcvbKxqXDTNRXywwUdf8cTZEHQIAAajmJDO9P/Z1293iCgW1vaxt5geJWNFcmD1P6CKGYwsFdY3vHLdDPA6jeVtF46CCThL4Re38qKO6Rhnnt4kYBAACUP1JJ3rfeSXiuYbCvBW5sGj+8hyY/09XW+rU9whvp+h7V72GRqe+qGNwiCWB37NEDAIAAajfJLSMJXHYWkFd1B3zRsdBtqDL5sLq/pjU3/ONvI2i71m1GgZli9qp7yZLx3H3EzEIAASg/pPSwLzQLh7URTWSOUBfJIjQQEXHmESYP7S08zZ3UDcftlSw62oiBgGAAHTWBCWhoArHqIDMHEHd1BeJ9AE3EzFQobG1pqVz/qWDuiidh27inIvADwIAAejsyUp956UQV0nZqYK6eYWlc+rHiRgIPJZ09Vb6io2CuviedQn8KOMMAYAAgP9MXrorruYy21pMkZK+VM5yG+yT16tEDAQaO7NaV6e+r0R00VIZ54N97DxHxCAAEAAwvslM15QkFFw3qIuqPS419Wk+mX1AxEAbx4qq9qlTn4omRe3U9xdLAj+u2UIAIACgx5PbBpa2M/sFdfFpSzUOLvbJ7TMiBlo4NjSBbW6p70LUTn0jLFXwu5aIQQDGhT68fjBekpYmDomYfuQW8W6+Jt6L3G73CXllIgZatPh/QzmXcy/i4v9CHrNLs/gDdgBAMyY93V/ey2LfZdaEvK9PeqOIGCgwBrTYq1PfFkFdVA0N7did4GNgDBFjBwACAJo9CaqamYSCqmYWcQdJmgD1KT+KPuWgSTmvs33VpNjNYnbqU50MCfyoogkBgACAlkyKS1pqGrNBUBdfsVT3/lfccwa9zHHVyfhxzqNZg7qpLX5dj32IiEEAIACg1ZPkOpbuFfcP6qLqBkgBfRXRAhOQ16qUqZswUVtqS9GvAlk3EC0IAAQAtHOy1FHANpau5kUteapa53v4hPl3Iga+IJeXslTBL2qvjOctXTm8gBLZEAAIAIg0earpiaoJ7u02bUQX3c7XBOqT5/NEDHTL3bkzgd3WYhbBUtU+HbnRJAsCAAEAoSdT9RU41G0Hi1kV7d08maKWJlcbt1tEWqcO6OInbue4HeK5OpqIQQAgAKAqk+vieaHdMKiLUkxL3c12auflZuPYSp365grqpjr0SeD3CBGDAEAAQFUn27UzEVg2qIvSBUhQdSPR6ph8lHB1qaAuqgPmIPIRAgABAHX64trK7Si3eYO6eVWeeB8jYrXMwUUtFcoZGNTFZ932dxvKjhQEAAIA6jgJq93w7pZq+E8X0EWduarj4KE+Cb9MxGqRc7NZ6tS3k8XUpLxtqafAyZ5z7xExCAAEANR9Up7dHwcHnpTfsnQ+fKpPyu8TsUrmmKr2/Sx/VUfs1Ceyebal9tYvETEIAAQAdNokrUIr0gd8J6iLo9z2c7uIjoOVySlNLt/LX9V9g7p5hSWB3+NEDAIAAQCdPmmvbkmYtVxQF++yJBS8k2iFziN16lMhn6jdIYfnPLqVaAEIAACf/3KTUFAFWeYL6ubFbvv4BP40EQuVO+rUd6zb5kFd/KelK6dD2UkCEAAIABj/ZD6lpc5rUc9uP3Q7TUTFJ/M3iFhbc2VG6+rUN3lAF9WRUjdfTkPgByAAEADQ88ldHdga6u1JA7r4qqWKh2fScbDluTFpzovBbrMEdFH50LhN8goRAxAACADo3WS/sD+Odts0qItPWKofcAXRakk+bGSpU9/CQV38k6VjoieIFoAAQABAcyb+AZaEgisGdfEWSx0H7ydaReK/TI7/mkFdHGap9fRtRAtAACAAoPmLgBJni7wj0Deii25D3Pb3heA5ItaUmM9jSRiq2v0RJ45RxlVRAAGAAICWLQoq8vJTS73RZwzoogRf2qY+zheFd4hYr2KsTn3q0qdufRE79b2ZiYkEfh8QMQABgACA1i4SM/vjILdd3CYL6OKLmaScR333HsdUfSO2czvcYnbq+8jtDEu3QF4lYgACAAEA7V00FrR0D3yzoC4+ZEkfcAPR+sI4rmPpnL9/UBcvsSTw+wfRAhAACACItYCsYqnj2ypBXbzG0o0Berx/Pm6L5bhtGNRFVYKUwO8OogUgABAAEHcxmSTvBGhHYIGALqoJzK/dDun0JjC5U59qKexoMZtCPWWpc+UfEfgBCAAEAFRncVFlOGkDpBGYKaCLagOrKnGndFqVuFztsdGpb/qALr5uSYNwhsfmQ0YTgABAAEA1FxvdEpAQb1eLWS72mbwQXlj3r8xu1zjVqS9ivwcJ/Bplnl9n9AAIAAQA1GPxUcOYo/MCFBEqJKNOcbfX9P2vakngt1JQF//gtp+//6cYLQACAAEA9VyIVsoL0apBXayV0tzf9wL5iz9qp747MvG6m9EBIAAQANAZRGDTvDAtFNC9ym9Fdzt6Uae+iDUannTb19/vJYwGAAGAAIDOIwFamNRVTl0HI3aVe83tMLdf+kL1UcXe6WC3mQO6qOI9EvidicAPQAAgAAAioK/V/fPX6hQBXRzptrcvWH8K/h6/64/jLGanPpXrPdXtKH+Pb5D1AAIAAQCg+wImZfqRblsFdfGvls6r7w323pa1pKtYI+h7u9BSg6ZRZDmAAEAAAPiiBW35vKCtFtE9t6GWFOvPtvk9qVOfahlsbTE79elGhUow30NWAwgABACACVngIm9pv59JyjGt7jjo72Va6+rUN1XAd/OEpSOTy8liAAGAAADQ28VuUkulage7zRbQxdGWqh2e6wveJ4XfRaNTn9rgzhnwXbxiqbTwWf4uPiZ7AQQAAgBAMxY/laxVXfjd3aYM6OIIS/qA6wv9/nXzjsOSAX+7dkNOcTvaf/+bZCuAAEAAACixEH7V0rm3hIIRE/k6S53rRjTp9y7ujxPcvhUxHJb0EBL4/YvsBBAACAAArSACy+SFca2A7uko4DduB/vCOLqXv292S9vpP7KYnfpuyURnONkIIAAQAADaQQQGWhIKLhbQPYkD1f/g5J52HPTfI1Ffo1PfdAF/0+Nug/z3XEn2AQgABACAdpMACQV3sCQUnCOgi//KC/rQ8XUczJ36trR0vBGxU99Llio2noPAD0AAIAAARCMCuh63j9ueFvN6nLbLd/cF9Lax/B5gSeC3YkCfG9cdj3W/3ybLAAQAAgBAZCKgAjm6KreNxRQKXpaJyqdaWN02i/ga3Ya4HdDugkcAQAAgAABMKBFYKn+9rh3QvUZzoYid+m60JPB7gCwCEAAIAABVJgIb+ON4t368jS/Ew5Yq+F3DqwAQgLLow+sHoAWEd9ioa/2xtKUrdS/yRv4Luqr4Y70jFn8A2AEAoK67ARIKDrIkFJymw1/Hu5aOSI5rdT8DADp9BwACAED7iMBc/jjcUm39TtuN08RznttBvvA/TzYACAAEAIBOJAKqrS99wPod8pP/Ykng9yDRBxAACAAATAQr9l0vE4H+Nf2JD1kS+F1LtAFoPwFABAhAEOQufuovsL1bnbbFX7BUJXFpFn8AAs057AAAEHI3YGpLIkEV66mqUHCMpR2NE3zhH0NUAYi1AwABACA2EZjTUke+/7OYHfnGBXUilMBPnQhfIIoAQAAgAAD0nggsbqnj4IbBXf2zpXP+EUQNAAgABACA5hEBlRQ+wVJRoUiQon9PX/hvIEoAVIMAIAIEoELwBVY18pdz29YtQoOc5yyJFpdh8QegYvMJOwAAVHY3QO2Gd3fb1226Fv/zqtqnLoIn+sL/HtEAoHo7ABAAAKpPBGb3x2C3Ha28UFACv3PcDvGFfzRvHwAIAAQAgPYTgUUtCQU3KvRPXG1J4PcIbxsACAAEAIB4RGB1Sw12lmvSX3mfpdK9N/N2AagPAUAECEDN4Av1rf5YwW1rt39OxF8lkeEP9Xex+ANQw7mCHQAAar0bIKHgbm77uc3Qw//sbbdj3E5G4AdAfXcAIAAAdAYRmNUfh7jt5DbpeP5nEvid5XaoL/wv89YAgABAAACoDxFY2NL1vY3H+n9dYUng9zhvCQAIAAQAgPoSgW9aqiioa4N7Zt0AAAACAAAAAIA6g1sAAAAAAAQAAAAAABAAAAAAAEAAAAAAAAABAAAAAAAEAAAAAAAQAAAAAABAAAAAAAAAAQAAAAAABAAAAAAAEAAAAAAAQAAAAAAAAAEAAAAAAAQAAAAAABAAAAAAAHwp/r8AAwDW2VBNWM7BMwAAAABJRU5ErkJggg==;fontSize=24;fontColor=#808080;fontStyle=1" vertex="1" parent="1">
          <mxGeometry x="571.7400000000001" y="785.48" width="109.52" height="109.52" as="geometry" />
        </mxCell>
        <mxCell id="epuEaKkqdymQAd3olJLZ-13" value="&lt;svg xmlns=&quot;http://www.w3.org/2000/svg&quot; width=&quot;247.808&quot; height=&quot;185.85&quot; viewBox=&quot;0 0 232.32 174.235&quot;&gt;&lt;path d=&quot;m276.515 367.463 15.556 5.662 15.785-5.745-15.555-5.662zm15.624-12.783 15.555 5.662 15.786-5.745-15.556-5.662z&quot; style=&quot;fill:#f7f7f4;fill-opacity:1;stroke:#ccc;stroke-width:.35507631;stroke-linejoin:bevel;stroke-miterlimit:4;stroke-dasharray:none&quot; transform=&quot;translate(-260.714 -252.848)&quot;/&gt;&lt;path d=&quot;m292.139 354.68 15.555 5.662v18.283l-15.555-5.662z&quot; style=&quot;fill:#efeeea;fill-opacity:1;stroke:#ccc;stroke-width:.35507631;stroke-linejoin:bevel;stroke-miterlimit:4;stroke-dasharray:none&quot; transform=&quot;translate(-260.714 -252.848)&quot;/&gt;&lt;path d=&quot;m260.892 391.608 15.555 5.662 15.786-5.745-15.555-5.662z&quot; style=&quot;fill:#f7f7f4;fill-opacity:1;stroke:#ccc;stroke-width:.35507631;stroke-linejoin:bevel;stroke-miterlimit:4;stroke-dasharray:none&quot; transform=&quot;translate(-260.714 -252.848)&quot;/&gt;&lt;path d=&quot;m260.892 391.608 15.555 5.662v18.283l-15.555-5.662z&quot; style=&quot;fill:#efeeea;fill-opacity:1;stroke:#ccc;stroke-width:.35507631;stroke-linejoin:bevel;stroke-miterlimit:4;stroke-dasharray:none&quot; transform=&quot;translate(-260.714 -252.848)&quot;/&gt;&lt;path d=&quot;m260.892 365.608 15.555 5.662 15.786-5.745-15.555-5.662z&quot; style=&quot;fill:#f7f7f4;fill-opacity:1;stroke:#ccc;stroke-width:.35507631;stroke-linejoin:bevel;stroke-miterlimit:4;stroke-dasharray:none&quot; transform=&quot;translate(-260.714 -252.848)&quot;/&gt;&lt;path d=&quot;M276.447 371.27v18.283l15.786-5.746v-18.282z&quot; style=&quot;fill:#fff;fill-opacity:1;stroke:#ccc;stroke-width:.35507631;stroke-linejoin:bevel;stroke-miterlimit:4;stroke-dasharray:none&quot; transform=&quot;translate(-260.714 -252.848)&quot;/&gt;&lt;path d=&quot;m260.892 365.608 15.555 5.662v18.283l-15.555-5.662z&quot; style=&quot;fill:#efeeea;fill-opacity:1;stroke:#ccc;stroke-width:.35507631;stroke-linejoin:bevel;stroke-miterlimit:4;stroke-dasharray:none&quot; transform=&quot;translate(-260.714 -252.848)&quot;/&gt;&lt;path d=&quot;m276.7 350.057-.025.03a2.783 2.783 0 0 0-2.758 2.782 2.783 2.783 0 0 0 .053.531l-11.746 14.385 7.646 9.363-3.869-9.363 9.984-12.228a2.783 2.783 0 0 0 .715.095 2.783 2.783 0 0 0 .715-.093l5.315 6.507 5.373 1.955-8.672-10.62a2.783 2.783 0 0 0 .05-.532 2.783 2.783 0 0 0-2.755-2.781l-.025-.031zm2.135-7.289a2.136 2.136 0 1 0-4.271 0v3.265a2.136 2.136 0 0 0 4.271 0v-3.265zm-.98-.002v3.265a1.155 1.155 0 0 1-2.31 0v-3.265a1.154 1.154 0 1 1 2.31 0zm.98-11.211a2.136 2.136 0 1 0-4.271 0v3.265a2.136 2.136 0 0 0 4.271 0v-3.265zm-.98-.002v3.265a1.155 1.155 0 0 1-2.31 0v-3.265a1.154 1.154 0 1 1 2.31 0z&quot; style=&quot;fill:#646464;fill-opacity:1&quot; transform=&quot;translate(-260.714 -252.848)&quot;/&gt;&lt;path d=&quot;M277.22 335.545v6.498a.518.518 0 1 1-1.04 0v-6.498a.518.518 0 1 1 1.04 0zm0 11.213v6.497a.518.518 0 1 1-1.04 0v-6.497a.518.518 0 1 1 1.04 0zm0-22.463v6.498a.518.518 0 1 1-1.04 0v-6.498a.518.518 0 1 1 1.04 0z&quot; style=&quot;fill:#646464;fill-opacity:1&quot; transform=&quot;translate(-260.714 -252.848)&quot;/&gt;&lt;path d=&quot;m276.515 397.29 15.556 5.661v18.283l-15.556-5.662z&quot; style=&quot;fill:#efeeea;fill-opacity:1;stroke:#ccc;stroke-width:.35507631;stroke-linejoin:bevel;stroke-miterlimit:4;stroke-dasharray:none&quot; transform=&quot;translate(-260.714 -252.848)&quot;/&gt;&lt;path d=&quot;m276.515 378.826 15.556 5.661 15.785-5.745-15.555-5.662z&quot; style=&quot;fill:#f7f7f4;fill-opacity:1;stroke:#ccc;stroke-width:.35507631;stroke-linejoin:bevel;stroke-miterlimit:4;stroke-dasharray:none&quot; transform=&quot;translate(-260.714 -252.848)&quot;/&gt;&lt;path d=&quot;m276.515 378.826 15.556 5.661v18.283l-15.556-5.661z&quot; style=&quot;fill:#efeeea;fill-opacity:1;stroke:#ccc;stroke-width:.35507631;stroke-linejoin:bevel;stroke-miterlimit:4;stroke-dasharray:none&quot; transform=&quot;translate(-260.714 -252.848)&quot;/&gt;&lt;path d=&quot;M354.564 391.589v18.283l15.786-5.746v-18.282z&quot; style=&quot;fill:#fff;fill-opacity:1;stroke:#ccc;stroke-width:.35507631;stroke-linejoin:bevel;stroke-miterlimit:4;stroke-dasharray:none&quot; transform=&quot;translate(-260.714 -252.848)&quot;/&gt;&lt;path d=&quot;M338.94 397.27v18.283l15.787-5.746v-18.282z&quot; style=&quot;fill:#ffd242;fill-opacity:1;stroke:#ccc;stroke-width:.35507631;stroke-linejoin:bevel;stroke-miterlimit:4;stroke-dasharray:none&quot; transform=&quot;translate(-260.714 -252.848)&quot;/&gt;&lt;path d=&quot;M351.866 401.728a2.617 3.737 35 0 1-3.032 4.33 2.617 3.737 35 0 1-3.032-2.123 2.617 3.737 35 0 1 3.032-4.33 2.617 3.737 35 0 1 3.032 2.123z&quot; style=&quot;fill:#fff;fill-opacity:1&quot; transform=&quot;translate(-260.714 -252.848)&quot;/&gt;&lt;path d=&quot;M323.318 402.952v18.282l15.785-5.745v-18.283z&quot; style=&quot;fill:#ffd242;fill-opacity:1;stroke:#ccc;stroke-width:.35507631;stroke-linejoin:bevel;stroke-miterlimit:4;stroke-dasharray:none&quot; transform=&quot;translate(-260.714 -252.848)&quot;/&gt;&lt;path d=&quot;M307.694 408.633v18.282l15.786-5.745v-18.283z&quot; style=&quot;fill:#fff;fill-opacity:1;stroke:#ccc;stroke-width:.35507631;stroke-linejoin:bevel;stroke-miterlimit:4;stroke-dasharray:none&quot; transform=&quot;translate(-260.714 -252.848)&quot;/&gt;&lt;path d=&quot;m292.139 402.971 15.555 5.662v18.282l-15.555-5.661z&quot; style=&quot;fill:#efeeea;fill-opacity:1;stroke:#ccc;stroke-width:.35507631;stroke-linejoin:bevel;stroke-miterlimit:4;stroke-dasharray:none&quot; transform=&quot;translate(-260.714 -252.848)&quot;/&gt;&lt;path d=&quot;M354.564 373.125v18.283l15.786-5.746V367.38z&quot; style=&quot;fill:#ffd242;fill-opacity:1;stroke:#ccc;stroke-width:.35507631;stroke-linejoin:bevel;stroke-miterlimit:4;stroke-dasharray:none&quot; transform=&quot;translate(-260.714 -252.848)&quot;/&gt;&lt;path d=&quot;m339.009 349 15.555 5.661 15.786-5.745-15.556-5.662z&quot; style=&quot;fill:#ffc91d;fill-opacity:1;stroke:#ccc;stroke-width:.35507631;stroke-linejoin:bevel;stroke-miterlimit:4;stroke-dasharray:none&quot; transform=&quot;translate(-260.714 -252.848)&quot;/&gt;&lt;path d=&quot;M354.564 354.661v18.283l15.786-5.746v-18.282zm-15.624 24.145v18.283l15.787-5.745V373.06z&quot; style=&quot;fill:#ffd242;fill-opacity:1;stroke:#ccc;stroke-width:.35507631;stroke-linejoin:bevel;stroke-miterlimit:4;stroke-dasharray:none&quot; transform=&quot;translate(-260.714 -252.848)&quot;/&gt;&lt;path d=&quot;M338.94 360.342v18.283l15.787-5.745v-18.283z&quot; style=&quot;fill:#3775a9;fill-opacity:1;stroke:#ccc;stroke-width:.35507631;stroke-linejoin:bevel;stroke-miterlimit:4;stroke-dasharray:none&quot; transform=&quot;translate(-260.714 -252.848)&quot;/&gt;&lt;path d=&quot;m323.385 336.217 15.556 5.661 15.785-5.745-15.555-5.662z&quot; style=&quot;fill:#2f6491;fill-opacity:1;stroke:#ccc;stroke-width:.35507631;stroke-linejoin:bevel;stroke-miterlimit:4;stroke-dasharray:none&quot; transform=&quot;translate(-260.714 -252.848)&quot;/&gt;&lt;path d=&quot;M338.94 341.878v18.283l15.787-5.745v-18.283z&quot; style=&quot;fill:#3775a9;fill-opacity:1;stroke:#ccc;stroke-width:.35507631;stroke-linejoin:bevel;stroke-miterlimit:4;stroke-dasharray:none&quot; transform=&quot;translate(-260.714 -252.848)&quot;/&gt;&lt;path d=&quot;M323.318 384.488v18.282l15.785-5.745v-18.283z&quot; style=&quot;fill:#ffd242;fill-opacity:1;stroke:#ccc;stroke-width:.35507631;stroke-linejoin:bevel;stroke-miterlimit:4;stroke-dasharray:none&quot; transform=&quot;translate(-260.714 -252.848)&quot;/&gt;&lt;path d=&quot;M323.318 366.024v18.282l15.785-5.745v-18.283zm-15.624 24.145v18.282l15.786-5.745v-18.283z&quot; style=&quot;fill:#3775a9;fill-opacity:1;stroke:#ccc;stroke-width:.35507631;stroke-linejoin:bevel;stroke-miterlimit:4;stroke-dasharray:none&quot; transform=&quot;translate(-260.714 -252.848)&quot;/&gt;&lt;path d=&quot;m292.139 384.507 15.555 5.662v18.282l-15.555-5.661zm0-18.464 15.555 5.662 15.786-5.746-15.556-5.661z&quot; style=&quot;fill:#2f6491;fill-opacity:1;stroke:#ccc;stroke-width:.35507631;stroke-linejoin:bevel;stroke-miterlimit:4;stroke-dasharray:none&quot; transform=&quot;translate(-260.714 -252.848)&quot;/&gt;&lt;path d=&quot;M307.694 371.705v18.282l15.786-5.745v-18.283z&quot; style=&quot;fill:#3775a9;fill-opacity:1;stroke:#ccc;stroke-width:.35507631;stroke-linejoin:bevel;stroke-miterlimit:4;stroke-dasharray:none&quot; transform=&quot;translate(-260.714 -252.848)&quot;/&gt;&lt;path d=&quot;m292.139 366.043 15.555 5.662v18.282l-15.555-5.661zm15.623-24.145 15.556 5.662 15.785-5.746-15.555-5.662z&quot; style=&quot;fill:#2f6491;fill-opacity:1;stroke:#ccc;stroke-width:.35507631;stroke-linejoin:bevel;stroke-miterlimit:4;stroke-dasharray:none&quot; transform=&quot;translate(-260.714 -252.848)&quot;/&gt;&lt;path d=&quot;M323.318 347.56v18.282l15.785-5.745v-18.283z&quot; style=&quot;fill:#3775a9;fill-opacity:1;stroke:#ccc;stroke-width:.35507631;stroke-linejoin:bevel;stroke-miterlimit:4;stroke-dasharray:none&quot; transform=&quot;translate(-260.714 -252.848)&quot;/&gt;&lt;path d=&quot;m307.762 341.898 15.556 5.662v18.282l-15.556-5.661z&quot; style=&quot;fill:#2f6491;fill-opacity:1;stroke:#ccc;stroke-width:.35507631;stroke-linejoin:bevel;stroke-miterlimit:4;stroke-dasharray:none&quot; transform=&quot;translate(-260.714 -252.848)&quot;/&gt;&lt;path d=&quot;M332.242 353.432a2.617 3.737 35 0 1-3.032 4.33 2.617 3.737 35 0 1-3.031-2.123 2.617 3.737 35 0 1 3.031-4.33 2.617 3.737 35 0 1 3.032 2.123z&quot; style=&quot;fill:#fff;fill-opacity:1&quot; transform=&quot;translate(-260.714 -252.848)&quot;/&gt;&lt;path d=&quot;M297.375 291.705c0-9.645-2.75-14.596-8.25-14.868a15.497 15.497 0 0 0-6.404 1.053c-1.66.594-2.776 1.181-3.364 1.775v23.022c3.519 2.208 6.643 3.234 9.368 3.073 5.765-.381 8.65-5.062 8.65-14.055zm6.785.4c0 4.9-1.149 8.968-3.46 12.202-2.576 3.66-6.146 5.546-10.71 5.649-3.441.11-6.985-.968-10.633-3.228v20.923l-5.9-2.104v-46.444c.968-1.187 2.214-2.207 3.725-3.073 3.512-2.046 7.779-3.098 12.801-3.15l.084.084c4.59-.058 8.128 1.827 10.614 5.649 2.317 3.505 3.48 7.998 3.48 13.492zm36.063 13.732c0 6.572-.659 11.123-1.976 13.654-1.323 2.53-3.84 4.552-7.56 6.056-3.014 1.188-6.275 1.833-9.774 1.943l-.974-3.719c3.557-.484 6.062-.968 7.514-1.452 2.86-.969 4.823-2.453 5.9-4.442.866-1.62 1.292-4.713 1.292-9.29v-1.536a30.317 30.317 0 0 1-12.686 2.744c-2.905 0-5.468-.91-7.676-2.744-2.479-1.995-3.718-4.526-3.718-7.592V274.9l5.9-2.021v24.72c0 2.64.852 4.673 2.557 6.1 1.704 1.427 3.912 2.111 6.617 2.06 2.705-.059 5.604-1.104 8.683-3.15v-28.84h5.9v32.067zm23.034 3.796c-.704.058-1.35.084-1.943.084-3.338 0-5.94-.794-7.799-2.389-1.853-1.594-2.782-3.796-2.782-6.604v-23.241h-4.042v-3.712h4.042v-9.858l5.894-2.098v11.956h6.63v3.712h-6.63v23.08c0 2.214.594 3.783 1.782 4.7 1.02.755 2.64 1.187 4.848 1.297v3.073zm35.727-.484h-5.9v-22.776c0-2.318-.543-4.313-1.621-5.978-1.246-1.885-2.976-2.828-5.197-2.828-2.705 0-6.088 1.427-10.149 4.28v27.302h-5.9v-54.442l5.9-1.86v24.797c3.77-2.743 7.89-4.118 12.363-4.118 3.125 0 5.655 1.052 7.592 3.15 1.943 2.098 2.912 4.713 2.912 7.837v24.636zm31.362-18.373c0-3.706-.703-6.766-2.104-9.187-1.666-2.95-4.255-4.506-7.754-4.668-6.469.375-9.697 5.01-9.697 13.893 0 4.074.672 7.476 2.028 10.207 1.73 3.48 4.325 5.197 7.785 5.139 6.495-.052 9.742-5.178 9.742-15.384zm6.463.038c0 5.275-1.35 9.665-4.042 13.17-2.963 3.925-7.056 5.894-12.279 5.894-5.177 0-9.212-1.969-12.124-5.894-2.64-3.505-3.957-7.895-3.957-13.17 0-4.958 1.426-9.128 4.28-12.524 3.015-3.602 6.979-5.41 11.879-5.41 4.9 0 8.89 1.808 11.962 5.41 2.854 3.396 4.28 7.566 4.28 12.524zm33.828 18.335h-5.9v-24.067c0-2.64-.795-4.7-2.383-6.185-1.588-1.479-3.705-2.195-6.346-2.137-2.802.052-5.468.968-7.999 2.744v29.645h-5.9v-30.375c3.396-2.472 6.52-4.086 9.374-4.842 2.692-.703 5.067-1.052 7.114-1.052 1.4 0 2.718.136 3.957.407 2.318.536 4.203 1.53 5.656 2.989 1.62 1.614 2.427 3.55 2.427 5.816v27.057z&quot; style=&quot;fill:#646464;fill-opacity:1&quot; transform=&quot;translate(-260.714 -252.848)&quot;/&gt;&lt;path d=&quot;M482.106 267.276h1.014v-6.358h2.401v-.758h-5.817v.758h2.402v6.358m4.314 0h.866v-5.807l1.88 5.806h.964l1.96-5.786v5.787h.944v-7.116h-1.25l-2.14 6.096-1.826-6.096h-1.398v7.116&quot; style=&quot;font-style:normal;font-weight:400;font-size:15.16445827px;line-height:125%;font-family:&amp;quot;Bitstream Vera Sans&amp;quot;;fill:#646464;fill-opacity:1;stroke:none;stroke-width:1px;stroke-linecap:butt;stroke-linejoin:miter;stroke-opacity:1&quot; transform=&quot;translate(-260.714 -252.848)&quot;/&gt;&lt;path d=&quot;M381.321 335.579h2.988v-6.183h2.68c3.632 0 6.414-1.726 6.414-5.461 0-3.916-2.73-5.204-6.415-5.204h-5.667v16.848zm2.988-8.579v-5.873h2.448c2.447 0 3.71.695 3.71 2.808 0 2.06-1.212 3.065-3.71 3.065h-2.448zm10.503 5.178c0 2.216 1.546 3.71 3.761 3.71 1.494 0 2.782-.747 3.916-1.7h.077l.232 1.39h2.421v-7.496c0-3.53-1.545-5.461-4.714-5.461-2.01 0-3.787.773-5.178 1.648l1.082 1.984c1.108-.67 2.293-1.236 3.555-1.236 1.7 0 2.267 1.133 2.293 2.473-5.178.566-7.445 1.983-7.445 4.688zm2.885-.232c0-1.262 1.134-2.164 4.56-2.602v2.834c-.928.876-1.726 1.391-2.757 1.391-1.056 0-1.803-.49-1.803-1.623zm10.316-2.679c0 4.2 2.653 6.62 6.105 6.62 1.443 0 2.963-.566 4.148-1.622l-1.237-1.88c-.695.566-1.571 1.081-2.602 1.081-1.983 0-3.374-1.674-3.374-4.199 0-2.55 1.416-4.225 3.452-4.225.798 0 1.468.335 2.138.928l1.417-1.88c-.85-.825-2.087-1.47-3.71-1.47-3.375 0-6.337 2.422-6.337 6.647zm12.749 6.312h2.91v-3.22l1.984-2.268 3.246 5.488h3.22l-4.765-7.497 4.328-5.152h-3.246l-4.689 5.822h-.077v-11.36h-2.911v18.187zm12.641-3.401c0 2.216 1.546 3.71 3.761 3.71 1.495 0 2.783-.747 3.916-1.7h.077l.232 1.39h2.422v-7.496c0-3.53-1.546-5.461-4.715-5.461-2.009 0-3.786.773-5.178 1.648l1.082 1.984c1.108-.67 2.293-1.236 3.555-1.236 1.7 0 2.267 1.133 2.293 2.473-5.178.566-7.445 1.983-7.445 4.688zm2.886-.232c0-1.262 1.133-2.164 4.56-2.602v2.834c-.928.876-1.727 1.391-2.757 1.391-1.056 0-1.803-.49-1.803-1.623zm12.763 5.487c0-.592.309-1.159.979-1.674.489.129 1.03.18 1.725.18h1.726c1.443 0 2.242.284 2.242 1.263 0 1.082-1.391 2.035-3.427 2.035-2.009 0-3.245-.67-3.245-1.804zm-2.474.438c0 2.216 2.242 3.298 5.256 3.298 4.122 0 6.75-1.958 6.75-4.457 0-2.19-1.598-3.117-4.638-3.117h-2.241c-1.546 0-2.06-.438-2.06-1.16 0-.566.231-.875.617-1.21a4.665 4.665 0 0 0 1.726.335c2.68 0 4.792-1.494 4.792-4.302 0-.876-.31-1.649-.721-2.138h2.318v-2.19h-4.534a5.7 5.7 0 0 0-1.855-.31c-2.653 0-4.997 1.624-4.997 4.535 0 1.494.798 2.705 1.648 3.349v.103c-.72.515-1.39 1.365-1.39 2.344 0 1.03.489 1.7 1.133 2.112v.103c-1.16.722-1.804 1.65-1.804 2.705zm5.41-8.166c-1.236 0-2.215-.927-2.215-2.55 0-1.597.979-2.5 2.215-2.5 1.237 0 2.19.928 2.19 2.5 0 1.623-.979 2.55-2.19 2.55zm7.597-.438c0 4.173 2.731 6.62 6.235 6.62 1.597 0 3.117-.566 4.328-1.365l-1.005-1.854c-.927.592-1.855.927-2.937.927-2.035 0-3.478-1.288-3.735-3.58h8.037c.077-.31.13-.825.13-1.392 0-3.53-1.804-6.002-5.23-6.002-2.963 0-5.823 2.524-5.823 6.646zm2.86-1.133c.258-2.113 1.546-3.22 3.04-3.22 1.726 0 2.576 1.21 2.576 3.22h-5.616zm-81.124 33.721h2.988v-16.848h-2.988v16.848zm6.988 0h2.962v-8.836c1.056-1.03 1.778-1.572 2.885-1.572 1.392 0 1.984.773 1.984 2.86v7.548h2.963v-7.935c0-3.194-1.185-5.023-3.89-5.023-1.726 0-3.014.901-4.148 2.01h-.103l-.206-1.701h-2.447v12.649zm13.667-6.312c0 4.173 2.035 6.62 5.204 6.62 1.365 0 2.653-.746 3.58-1.674h.104l.206 1.366h2.447v-18.188h-2.962v4.586l.103 2.035c-.98-.85-1.88-1.391-3.323-1.391-2.757 0-5.359 2.524-5.359 6.646zm3.066-.026c0-2.653 1.314-4.173 2.937-4.173.85 0 1.7.283 2.576 1.056v5.9c-.85.979-1.675 1.416-2.654 1.416-1.829 0-2.86-1.468-2.86-4.199zm11.424.026c0 4.173 2.73 6.62 6.234 6.62 1.597 0 3.117-.566 4.328-1.365l-1.005-1.854c-.927.592-1.855.927-2.937.927-2.035 0-3.477-1.288-3.735-3.58h8.037c.078-.31.13-.825.13-1.392 0-3.53-1.804-6.002-5.23-6.002-2.963 0-5.822 2.524-5.822 6.646zm2.86-1.133c.257-2.113 1.545-3.22 3.039-3.22 1.726 0 2.576 1.21 2.576 3.22h-5.616zm9.224 7.445h3.091l1.34-2.5c.36-.772.747-1.52 1.108-2.24h.103c.438.72.876 1.494 1.288 2.24l1.546 2.5h3.194l-4.019-6.26 3.736-6.39h-3.066l-1.21 2.397c-.31.695-.67 1.442-.98 2.138h-.103a87.248 87.248 0 0 1-1.16-2.138l-1.416-2.396h-3.194l3.76 6.054-4.018 6.595z&quot; style=&quot;font-style:normal;font-variant:normal;font-weight:600;font-stretch:normal;font-size:medium;line-height:125%;font-family:&amp;quot;Source Sans Pro&amp;quot;;-inkscape-font-specification:&amp;quot;Source Sans Pro Semi-Bold&amp;quot;;letter-spacing:0;word-spacing:0;fill:#646464;fill-opacity:1;stroke:none;stroke-width:1px;stroke-linecap:butt;stroke-linejoin:miter;stroke-opacity:1&quot; transform=&quot;translate(-260.714 -252.848)&quot;/&gt;&lt;/svg&gt;" style="text;whiteSpace=wrap;html=1;" vertex="1" parent="1">
          <mxGeometry x="343.25" y="200" width="154.89" height="120" as="geometry" />
        </mxCell>
        <mxCell id="epuEaKkqdymQAd3olJLZ-14" value="&lt;svg xmlns=&quot;http://www.w3.org/2000/svg&quot; width=&quot;65.812&quot; height=&quot;58&quot;&gt;&lt;g style=&quot;fill:#a29d86;fill-opacity:1;stroke:#ccc;stroke-width:.07269443;stroke-linejoin:bevel;stroke-miterlimit:4;stroke-dasharray:none&quot;&gt;&lt;path d=&quot;m-186.329 59.726 3.185 1.16v3.742l-3.185-1.159z&quot; style=&quot;color:#000;clip-rule:nonzero;display:inline;overflow:visible;visibility:visible;opacity:1;isolation:auto;mix-blend-mode:normal;color-interpolation:sRGB;color-interpolation-filters:linearRGB;solid-color:#000;solid-opacity:1;fill:#e9e9ff;fill-opacity:1;fill-rule:nonzero;stroke:#ccc;stroke-width:.07269443;stroke-linecap:butt;stroke-linejoin:bevel;stroke-miterlimit:4;stroke-dasharray:none;stroke-dashoffset:0;stroke-opacity:1;color-rendering:auto;image-rendering:auto;shape-rendering:auto;text-rendering:auto;enable-background:accumulate&quot; transform=&quot;translate(564.377 -156.012) scale(2.92733)&quot;/&gt;&lt;path d=&quot;M-189.56 60.903v3.743l3.231-1.177v-3.743z&quot; style=&quot;color:#000;clip-rule:nonzero;display:inline;overflow:visible;visibility:visible;opacity:1;isolation:auto;mix-blend-mode:normal;color-interpolation:sRGB;color-interpolation-filters:linearRGB;solid-color:#000;solid-opacity:1;fill:#353564;fill-opacity:1;fill-rule:nonzero;stroke:#ccc;stroke-width:.07269443;stroke-linecap:butt;stroke-linejoin:bevel;stroke-miterlimit:4;stroke-dasharray:none;stroke-dashoffset:0;stroke-opacity:1;color-rendering:auto;image-rendering:auto;shape-rendering:auto;text-rendering:auto;enable-background:accumulate&quot; transform=&quot;translate(564.377 -156.012) scale(2.92733)&quot;/&gt;&lt;path d=&quot;m-189.56 64.646 3.184 1.159 3.232-1.177-3.185-1.159z&quot; style=&quot;color:#000;clip-rule:nonzero;display:inline;overflow:visible;visibility:visible;opacity:1;isolation:auto;mix-blend-mode:normal;color-interpolation:sRGB;color-interpolation-filters:linearRGB;solid-color:#000;solid-opacity:1;fill:#afafde;fill-opacity:1;fill-rule:nonzero;stroke:#ccc;stroke-width:.07269443;stroke-linecap:butt;stroke-linejoin:bevel;stroke-miterlimit:4;stroke-dasharray:none;stroke-dashoffset:0;stroke-opacity:1;color-rendering:auto;image-rendering:auto;shape-rendering:auto;text-rendering:auto;enable-background:accumulate&quot; transform=&quot;translate(564.377 -156.012) scale(2.92733)&quot;/&gt;&lt;path d=&quot;m-189.56 60.903 3.184 1.159 3.232-1.177-3.185-1.159z&quot; style=&quot;fill:#f7f7f4;fill-opacity:1;stroke:#ccc;stroke-width:.07269443;stroke-linejoin:bevel;stroke-miterlimit:4;stroke-dasharray:none&quot; transform=&quot;translate(564.377 -156.012) scale(2.92733)&quot;/&gt;&lt;path d=&quot;M-186.376 62.062v3.743l3.232-1.177v-3.743z&quot; style=&quot;fill:#fff;fill-opacity:1;stroke:#ccc;stroke-width:.07269443;stroke-linejoin:bevel;stroke-miterlimit:4;stroke-dasharray:none&quot; transform=&quot;translate(564.377 -156.012) scale(2.92733)&quot;/&gt;&lt;path d=&quot;m-189.56 60.903 3.184 1.159v3.743l-3.185-1.16z&quot; style=&quot;fill:#efeeea;fill-opacity:1;stroke:#ccc;stroke-width:.07269443;stroke-linejoin:bevel;stroke-miterlimit:4;stroke-dasharray:none&quot; transform=&quot;translate(564.377 -156.012) scale(2.92733)&quot;/&gt;&lt;/g&gt;&lt;g style=&quot;fill:#a29d86;fill-opacity:1;stroke:#ccc;stroke-width:.07269443;stroke-linejoin:bevel;stroke-miterlimit:4;stroke-dasharray:none&quot;&gt;&lt;path d=&quot;m-186.329 59.726 3.185 1.16v3.742l-3.185-1.159z&quot; style=&quot;color:#000;clip-rule:nonzero;display:inline;overflow:visible;visibility:visible;opacity:1;isolation:auto;mix-blend-mode:normal;color-interpolation:sRGB;color-interpolation-filters:linearRGB;solid-color:#000;solid-opacity:1;fill:#e9e9ff;fill-opacity:1;fill-rule:nonzero;stroke:#ccc;stroke-width:.07269443;stroke-linecap:butt;stroke-linejoin:bevel;stroke-miterlimit:4;stroke-dasharray:none;stroke-dashoffset:0;stroke-opacity:1;color-rendering:auto;image-rendering:auto;shape-rendering:auto;text-rendering:auto;enable-background:accumulate&quot; transform=&quot;translate(573.74 -163.673) scale(2.92733)&quot;/&gt;&lt;path d=&quot;M-189.56 60.903v3.743l3.231-1.177v-3.743z&quot; style=&quot;color:#000;clip-rule:nonzero;display:inline;overflow:visible;visibility:visible;opacity:1;isolation:auto;mix-blend-mode:normal;color-interpolation:sRGB;color-interpolation-filters:linearRGB;solid-color:#000;solid-opacity:1;fill:#353564;fill-opacity:1;fill-rule:nonzero;stroke:#ccc;stroke-width:.07269443;stroke-linecap:butt;stroke-linejoin:bevel;stroke-miterlimit:4;stroke-dasharray:none;stroke-dashoffset:0;stroke-opacity:1;color-rendering:auto;image-rendering:auto;shape-rendering:auto;text-rendering:auto;enable-background:accumulate&quot; transform=&quot;translate(573.74 -163.673) scale(2.92733)&quot;/&gt;&lt;path d=&quot;m-189.56 64.646 3.184 1.159 3.232-1.177-3.185-1.159z&quot; style=&quot;color:#000;clip-rule:nonzero;display:inline;overflow:visible;visibility:visible;opacity:1;isolation:auto;mix-blend-mode:normal;color-interpolation:sRGB;color-interpolation-filters:linearRGB;solid-color:#000;solid-opacity:1;fill:#afafde;fill-opacity:1;fill-rule:nonzero;stroke:#ccc;stroke-width:.07269443;stroke-linecap:butt;stroke-linejoin:bevel;stroke-miterlimit:4;stroke-dasharray:none;stroke-dashoffset:0;stroke-opacity:1;color-rendering:auto;image-rendering:auto;shape-rendering:auto;text-rendering:auto;enable-background:accumulate&quot; transform=&quot;translate(573.74 -163.673) scale(2.92733)&quot;/&gt;&lt;path d=&quot;m-189.56 60.903 3.184 1.159 3.232-1.177-3.185-1.159z&quot; style=&quot;fill:#f7f7f4;fill-opacity:1;stroke:#ccc;stroke-width:.07269443;stroke-linejoin:bevel;stroke-miterlimit:4;stroke-dasharray:none&quot; transform=&quot;translate(573.74 -163.673) scale(2.92733)&quot;/&gt;&lt;path d=&quot;M-186.376 62.062v3.743l3.232-1.177v-3.743z&quot; style=&quot;fill:#fff;fill-opacity:1;stroke:#ccc;stroke-width:.07269443;stroke-linejoin:bevel;stroke-miterlimit:4;stroke-dasharray:none&quot; transform=&quot;translate(573.74 -163.673) scale(2.92733)&quot;/&gt;&lt;path d=&quot;m-189.56 60.903 3.184 1.159v3.743l-3.185-1.16z&quot; style=&quot;fill:#efeeea;fill-opacity:1;stroke:#ccc;stroke-width:.07269443;stroke-linejoin:bevel;stroke-miterlimit:4;stroke-dasharray:none&quot; transform=&quot;translate(573.74 -163.673) scale(2.92733)&quot;/&gt;&lt;/g&gt;&lt;g style=&quot;fill:#a29d86;fill-opacity:1;stroke:#ccc;stroke-width:.07269443;stroke-linejoin:bevel;stroke-miterlimit:4;stroke-dasharray:none&quot;&gt;&lt;path d=&quot;m-186.329 59.726 3.185 1.16v3.742l-3.185-1.159z&quot; style=&quot;color:#000;clip-rule:nonzero;display:inline;overflow:visible;visibility:visible;opacity:1;isolation:auto;mix-blend-mode:normal;color-interpolation:sRGB;color-interpolation-filters:linearRGB;solid-color:#000;solid-opacity:1;fill:#e9e9ff;fill-opacity:1;fill-rule:nonzero;stroke:#ccc;stroke-width:.07269443;stroke-linecap:butt;stroke-linejoin:bevel;stroke-miterlimit:4;stroke-dasharray:none;stroke-dashoffset:0;stroke-opacity:1;color-rendering:auto;image-rendering:auto;shape-rendering:auto;text-rendering:auto;enable-background:accumulate&quot; transform=&quot;translate(555.014 -141.542) scale(2.92733)&quot;/&gt;&lt;path d=&quot;M-189.56 60.903v3.743l3.231-1.177v-3.743z&quot; style=&quot;color:#000;clip-rule:nonzero;display:inline;overflow:visible;visibility:visible;opacity:1;isolation:auto;mix-blend-mode:normal;color-interpolation:sRGB;color-interpolation-filters:linearRGB;solid-color:#000;solid-opacity:1;fill:#353564;fill-opacity:1;fill-rule:nonzero;stroke:#ccc;stroke-width:.07269443;stroke-linecap:butt;stroke-linejoin:bevel;stroke-miterlimit:4;stroke-dasharray:none;stroke-dashoffset:0;stroke-opacity:1;color-rendering:auto;image-rendering:auto;shape-rendering:auto;text-rendering:auto;enable-background:accumulate&quot; transform=&quot;translate(555.014 -141.542) scale(2.92733)&quot;/&gt;&lt;path d=&quot;m-189.56 64.646 3.184 1.159 3.232-1.177-3.185-1.159z&quot; style=&quot;color:#000;clip-rule:nonzero;display:inline;overflow:visible;visibility:visible;opacity:1;isolation:auto;mix-blend-mode:normal;color-interpolation:sRGB;color-interpolation-filters:linearRGB;solid-color:#000;solid-opacity:1;fill:#afafde;fill-opacity:1;fill-rule:nonzero;stroke:#ccc;stroke-width:.07269443;stroke-linecap:butt;stroke-linejoin:bevel;stroke-miterlimit:4;stroke-dasharray:none;stroke-dashoffset:0;stroke-opacity:1;color-rendering:auto;image-rendering:auto;shape-rendering:auto;text-rendering:auto;enable-background:accumulate&quot; transform=&quot;translate(555.014 -141.542) scale(2.92733)&quot;/&gt;&lt;path d=&quot;m-189.56 60.903 3.184 1.159 3.232-1.177-3.185-1.159z&quot; style=&quot;fill:#f7f7f4;fill-opacity:1;stroke:#ccc;stroke-width:.07269443;stroke-linejoin:bevel;stroke-miterlimit:4;stroke-dasharray:none&quot; transform=&quot;translate(555.014 -141.542) scale(2.92733)&quot;/&gt;&lt;path d=&quot;M-186.376 62.062v3.743l3.232-1.177v-3.743z&quot; style=&quot;fill:#fff;fill-opacity:1;stroke:#ccc;stroke-width:.07269443;stroke-linejoin:bevel;stroke-miterlimit:4;stroke-dasharray:none&quot; transform=&quot;translate(555.014 -141.542) scale(2.92733)&quot;/&gt;&lt;path d=&quot;m-189.56 60.903 3.184 1.159v3.743l-3.185-1.16z&quot; style=&quot;fill:#efeeea;fill-opacity:1;stroke:#ccc;stroke-width:.07269443;stroke-linejoin:bevel;stroke-miterlimit:4;stroke-dasharray:none&quot; transform=&quot;translate(555.014 -141.542) scale(2.92733)&quot;/&gt;&lt;/g&gt;&lt;g style=&quot;fill:#a29d86;fill-opacity:1;stroke:#ccc;stroke-width:.07269443;stroke-linejoin:bevel;stroke-miterlimit:4;stroke-dasharray:none&quot;&gt;&lt;path d=&quot;m-186.329 59.726 3.185 1.16v3.742l-3.185-1.159z&quot; style=&quot;color:#000;clip-rule:nonzero;display:inline;overflow:visible;visibility:visible;opacity:1;isolation:auto;mix-blend-mode:normal;color-interpolation:sRGB;color-interpolation-filters:linearRGB;solid-color:#000;solid-opacity:1;fill:#e9e9ff;fill-opacity:1;fill-rule:nonzero;stroke:#ccc;stroke-width:.07269443;stroke-linecap:butt;stroke-linejoin:bevel;stroke-miterlimit:4;stroke-dasharray:none;stroke-dashoffset:0;stroke-opacity:1;color-rendering:auto;image-rendering:auto;shape-rendering:auto;text-rendering:auto;enable-background:accumulate&quot; transform=&quot;translate(564.377 -138.137) scale(2.92733)&quot;/&gt;&lt;path d=&quot;M-189.56 60.903v3.743l3.231-1.177v-3.743z&quot; style=&quot;color:#000;clip-rule:nonzero;display:inline;overflow:visible;visibility:visible;opacity:1;isolation:auto;mix-blend-mode:normal;color-interpolation:sRGB;color-interpolation-filters:linearRGB;solid-color:#000;solid-opacity:1;fill:#353564;fill-opacity:1;fill-rule:nonzero;stroke:#ccc;stroke-width:.07269443;stroke-linecap:butt;stroke-linejoin:bevel;stroke-miterlimit:4;stroke-dasharray:none;stroke-dashoffset:0;stroke-opacity:1;color-rendering:auto;image-rendering:auto;shape-rendering:auto;text-rendering:auto;enable-background:accumulate&quot; transform=&quot;translate(564.377 -138.137) scale(2.92733)&quot;/&gt;&lt;path d=&quot;m-189.56 64.646 3.184 1.159 3.232-1.177-3.185-1.159z&quot; style=&quot;color:#000;clip-rule:nonzero;display:inline;overflow:visible;visibility:visible;opacity:1;isolation:auto;mix-blend-mode:normal;color-interpolation:sRGB;color-interpolation-filters:linearRGB;solid-color:#000;solid-opacity:1;fill:#afafde;fill-opacity:1;fill-rule:nonzero;stroke:#ccc;stroke-width:.07269443;stroke-linecap:butt;stroke-linejoin:bevel;stroke-miterlimit:4;stroke-dasharray:none;stroke-dashoffset:0;stroke-opacity:1;color-rendering:auto;image-rendering:auto;shape-rendering:auto;text-rendering:auto;enable-background:accumulate&quot; transform=&quot;translate(564.377 -138.137) scale(2.92733)&quot;/&gt;&lt;path d=&quot;m-189.56 60.903 3.184 1.159 3.232-1.177-3.185-1.159z&quot; style=&quot;fill:#f7f7f4;fill-opacity:1;stroke:#ccc;stroke-width:.07269443;stroke-linejoin:bevel;stroke-miterlimit:4;stroke-dasharray:none&quot; transform=&quot;translate(564.377 -138.137) scale(2.92733)&quot;/&gt;&lt;path d=&quot;M-186.376 62.062v3.743l3.232-1.177v-3.743z&quot; style=&quot;fill:#fff;fill-opacity:1;stroke:#ccc;stroke-width:.07269443;stroke-linejoin:bevel;stroke-miterlimit:4;stroke-dasharray:none&quot; transform=&quot;translate(564.377 -138.137) scale(2.92733)&quot;/&gt;&lt;path d=&quot;m-189.56 60.903 3.184 1.159v3.743l-3.185-1.16z&quot; style=&quot;fill:#efeeea;fill-opacity:1;stroke:#ccc;stroke-width:.07269443;stroke-linejoin:bevel;stroke-miterlimit:4;stroke-dasharray:none&quot; transform=&quot;translate(564.377 -138.137) scale(2.92733)&quot;/&gt;&lt;/g&gt;&lt;g style=&quot;fill:#a29d86;fill-opacity:1;stroke:#ccc;stroke-width:.07269443;stroke-linejoin:bevel;stroke-miterlimit:4;stroke-dasharray:none&quot;&gt;&lt;path d=&quot;m-186.329 59.726 3.185 1.16v3.742l-3.185-1.159z&quot; style=&quot;color:#000;clip-rule:nonzero;display:inline;overflow:visible;visibility:visible;opacity:1;isolation:auto;mix-blend-mode:normal;color-interpolation:sRGB;color-interpolation-filters:linearRGB;solid-color:#000;solid-opacity:1;fill:#e9e9ff;fill-opacity:1;fill-rule:nonzero;stroke:#ccc;stroke-width:.07269443;stroke-linecap:butt;stroke-linejoin:bevel;stroke-miterlimit:4;stroke-dasharray:none;stroke-dashoffset:0;stroke-opacity:1;color-rendering:auto;image-rendering:auto;shape-rendering:auto;text-rendering:auto;enable-background:accumulate&quot; transform=&quot;translate(564.377 -149.203) scale(2.92733)&quot;/&gt;&lt;path d=&quot;M-189.56 60.903v3.743l3.231-1.177v-3.743z&quot; style=&quot;color:#000;clip-rule:nonzero;display:inline;overflow:visible;visibility:visible;opacity:1;isolation:auto;mix-blend-mode:normal;color-interpolation:sRGB;color-interpolation-filters:linearRGB;solid-color:#000;solid-opacity:1;fill:#353564;fill-opacity:1;fill-rule:nonzero;stroke:#ccc;stroke-width:.07269443;stroke-linecap:butt;stroke-linejoin:bevel;stroke-miterlimit:4;stroke-dasharray:none;stroke-dashoffset:0;stroke-opacity:1;color-rendering:auto;image-rendering:auto;shape-rendering:auto;text-rendering:auto;enable-background:accumulate&quot; transform=&quot;translate(564.377 -149.203) scale(2.92733)&quot;/&gt;&lt;path d=&quot;m-189.56 64.646 3.184 1.159 3.232-1.177-3.185-1.159z&quot; style=&quot;color:#000;clip-rule:nonzero;display:inline;overflow:visible;visibility:visible;opacity:1;isolation:auto;mix-blend-mode:normal;color-interpolation:sRGB;color-interpolation-filters:linearRGB;solid-color:#000;solid-opacity:1;fill:#afafde;fill-opacity:1;fill-rule:nonzero;stroke:#ccc;stroke-width:.07269443;stroke-linecap:butt;stroke-linejoin:bevel;stroke-miterlimit:4;stroke-dasharray:none;stroke-dashoffset:0;stroke-opacity:1;color-rendering:auto;image-rendering:auto;shape-rendering:auto;text-rendering:auto;enable-background:accumulate&quot; transform=&quot;translate(564.377 -149.203) scale(2.92733)&quot;/&gt;&lt;path d=&quot;m-189.56 60.903 3.184 1.159 3.232-1.177-3.185-1.159z&quot; style=&quot;fill:#f7f7f4;fill-opacity:1;stroke:#ccc;stroke-width:.07269443;stroke-linejoin:bevel;stroke-miterlimit:4;stroke-dasharray:none&quot; transform=&quot;translate(564.377 -149.203) scale(2.92733)&quot;/&gt;&lt;path d=&quot;M-186.376 62.062v3.743l3.232-1.177v-3.743z&quot; style=&quot;fill:#fff;fill-opacity:1;stroke:#ccc;stroke-width:.07269443;stroke-linejoin:bevel;stroke-miterlimit:4;stroke-dasharray:none&quot; transform=&quot;translate(564.377 -149.203) scale(2.92733)&quot;/&gt;&lt;path d=&quot;m-189.56 60.903 3.184 1.159v3.743l-3.185-1.16z&quot; style=&quot;fill:#efeeea;fill-opacity:1;stroke:#ccc;stroke-width:.07269443;stroke-linejoin:bevel;stroke-miterlimit:4;stroke-dasharray:none&quot; transform=&quot;translate(564.377 -149.203) scale(2.92733)&quot;/&gt;&lt;/g&gt;&lt;g style=&quot;fill:#a29d86;fill-opacity:1;stroke:#ccc;stroke-width:.07269443;stroke-linejoin:bevel;stroke-miterlimit:4;stroke-dasharray:none&quot;&gt;&lt;path d=&quot;m-186.329 59.726 3.185 1.16v3.742l-3.185-1.159z&quot; style=&quot;color:#000;clip-rule:nonzero;display:inline;overflow:visible;visibility:visible;opacity:1;isolation:auto;mix-blend-mode:normal;color-interpolation:sRGB;color-interpolation-filters:linearRGB;solid-color:#000;solid-opacity:1;fill:#e9e9ff;fill-opacity:1;fill-rule:nonzero;stroke:#ccc;stroke-width:.07269443;stroke-linecap:butt;stroke-linejoin:bevel;stroke-miterlimit:4;stroke-dasharray:none;stroke-dashoffset:0;stroke-opacity:1;color-rendering:auto;image-rendering:auto;shape-rendering:auto;text-rendering:auto;enable-background:accumulate&quot; transform=&quot;translate(601.83 -144.947) scale(2.92733)&quot;/&gt;&lt;path d=&quot;M-189.56 60.903v3.743l3.231-1.177v-3.743z&quot; style=&quot;color:#000;clip-rule:nonzero;display:inline;overflow:visible;visibility:visible;opacity:1;isolation:auto;mix-blend-mode:normal;color-interpolation:sRGB;color-interpolation-filters:linearRGB;solid-color:#000;solid-opacity:1;fill:#353564;fill-opacity:1;fill-rule:nonzero;stroke:#ccc;stroke-width:.07269443;stroke-linecap:butt;stroke-linejoin:bevel;stroke-miterlimit:4;stroke-dasharray:none;stroke-dashoffset:0;stroke-opacity:1;color-rendering:auto;image-rendering:auto;shape-rendering:auto;text-rendering:auto;enable-background:accumulate&quot; transform=&quot;translate(601.83 -144.947) scale(2.92733)&quot;/&gt;&lt;path d=&quot;m-189.56 64.646 3.184 1.159 3.232-1.177-3.185-1.159z&quot; style=&quot;color:#000;clip-rule:nonzero;display:inline;overflow:visible;visibility:visible;opacity:1;isolation:auto;mix-blend-mode:normal;color-interpolation:sRGB;color-interpolation-filters:linearRGB;solid-color:#000;solid-opacity:1;fill:#afafde;fill-opacity:1;fill-rule:nonzero;stroke:#ccc;stroke-width:.07269443;stroke-linecap:butt;stroke-linejoin:bevel;stroke-miterlimit:4;stroke-dasharray:none;stroke-dashoffset:0;stroke-opacity:1;color-rendering:auto;image-rendering:auto;shape-rendering:auto;text-rendering:auto;enable-background:accumulate&quot; transform=&quot;translate(601.83 -144.947) scale(2.92733)&quot;/&gt;&lt;path d=&quot;m-189.56 60.903 3.184 1.159 3.232-1.177-3.185-1.159z&quot; style=&quot;fill:#f7f7f4;fill-opacity:1;stroke:#ccc;stroke-width:.07269443;stroke-linejoin:bevel;stroke-miterlimit:4;stroke-dasharray:none&quot; transform=&quot;translate(601.83 -144.947) scale(2.92733)&quot;/&gt;&lt;path d=&quot;M-186.376 62.062v3.743l3.232-1.177v-3.743z&quot; style=&quot;fill:#fff;fill-opacity:1;stroke:#ccc;stroke-width:.07269443;stroke-linejoin:bevel;stroke-miterlimit:4;stroke-dasharray:none&quot; transform=&quot;translate(601.83 -144.947) scale(2.92733)&quot;/&gt;&lt;path d=&quot;m-189.56 60.903 3.184 1.159v3.743l-3.185-1.16z&quot; style=&quot;fill:#efeeea;fill-opacity:1;stroke:#ccc;stroke-width:.07269443;stroke-linejoin:bevel;stroke-miterlimit:4;stroke-dasharray:none&quot; transform=&quot;translate(601.83 -144.947) scale(2.92733)&quot;/&gt;&lt;/g&gt;&lt;g transform=&quot;translate(-1683.66 -513.275) scale(.65177)&quot;&gt;&lt;g style=&quot;fill:#a29d86;fill-opacity:1;stroke:#ccc;stroke-width:.07269443;stroke-linejoin:bevel;stroke-miterlimit:4;stroke-dasharray:none&quot;&gt;&lt;path d=&quot;m-186.329 59.726 3.185 1.16v3.742l-3.185-1.159z&quot; style=&quot;color:#000;clip-rule:nonzero;display:inline;overflow:visible;visibility:visible;opacity:1;isolation:auto;mix-blend-mode:normal;color-interpolation:sRGB;color-interpolation-filters:linearRGB;solid-color:#000;solid-opacity:1;fill:#e9e9ff;fill-opacity:1;fill-rule:nonzero;stroke:#ccc;stroke-width:.07269443;stroke-linecap:butt;stroke-linejoin:bevel;stroke-miterlimit:4;stroke-dasharray:none;stroke-dashoffset:0;stroke-opacity:1;color-rendering:auto;image-rendering:auto;shape-rendering:auto;text-rendering:auto;enable-background:accumulate&quot; transform=&quot;translate(3492.218 570.342) scale(4.49135)&quot;/&gt;&lt;path d=&quot;M-189.56 60.903v3.743l3.231-1.177v-3.743z&quot; style=&quot;color:#000;clip-rule:nonzero;display:inline;overflow:visible;visibility:visible;opacity:1;isolation:auto;mix-blend-mode:normal;color-interpolation:sRGB;color-interpolation-filters:linearRGB;solid-color:#000;solid-opacity:1;fill:#353564;fill-opacity:1;fill-rule:nonzero;stroke:#ccc;stroke-width:.07269443;stroke-linecap:butt;stroke-linejoin:bevel;stroke-miterlimit:4;stroke-dasharray:none;stroke-dashoffset:0;stroke-opacity:1;color-rendering:auto;image-rendering:auto;shape-rendering:auto;text-rendering:auto;enable-background:accumulate&quot; transform=&quot;translate(3492.218 570.342) scale(4.49135)&quot;/&gt;&lt;path d=&quot;m-189.56 64.646 3.184 1.159 3.232-1.177-3.185-1.159z&quot; style=&quot;color:#000;clip-rule:nonzero;display:inline;overflow:visible;visibility:visible;opacity:1;isolation:auto;mix-blend-mode:normal;color-interpolation:sRGB;color-interpolation-filters:linearRGB;solid-color:#000;solid-opacity:1;fill:#afafde;fill-opacity:1;fill-rule:nonzero;stroke:#ccc;stroke-width:.07269443;stroke-linecap:butt;stroke-linejoin:bevel;stroke-miterlimit:4;stroke-dasharray:none;stroke-dashoffset:0;stroke-opacity:1;color-rendering:auto;image-rendering:auto;shape-rendering:auto;text-rendering:auto;enable-background:accumulate&quot; transform=&quot;translate(3492.218 570.342) scale(4.49135)&quot;/&gt;&lt;path d=&quot;m-189.56 60.903 3.184 1.159 3.232-1.177-3.185-1.159z&quot; style=&quot;fill:#f7f7f4;fill-opacity:1;stroke:#ccc;stroke-width:.07269443;stroke-linejoin:bevel;stroke-miterlimit:4;stroke-dasharray:none&quot; transform=&quot;translate(3492.218 570.342) scale(4.49135)&quot;/&gt;&lt;path d=&quot;M-186.376 62.062v3.743l3.232-1.177v-3.743z&quot; style=&quot;fill:#ffd242;fill-opacity:1;stroke:#ccc;stroke-width:.07269443;stroke-linejoin:bevel;stroke-miterlimit:4;stroke-dasharray:none&quot; transform=&quot;translate(3492.218 570.342) scale(4.49135)&quot;/&gt;&lt;path d=&quot;m-189.56 60.903 3.184 1.159v3.743l-3.185-1.16z&quot; style=&quot;fill:#efeeea;fill-opacity:1;stroke:#ccc;stroke-width:.07269443;stroke-linejoin:bevel;stroke-miterlimit:4;stroke-dasharray:none&quot; transform=&quot;translate(3492.218 570.342) scale(4.49135)&quot;/&gt;&lt;/g&gt;&lt;circle cx=&quot;2835.218&quot; cy=&quot;1823.899&quot; r=&quot;2.967&quot; style=&quot;fill:#fff;fill-opacity:1&quot; transform=&quot;skewY(-20) scale(.9397 1)&quot;/&gt;&lt;/g&gt;&lt;g style=&quot;fill:#a29d86;fill-opacity:1;stroke:#ccc;stroke-width:.07269443;stroke-linejoin:bevel;stroke-miterlimit:4;stroke-dasharray:none&quot;&gt;&lt;path d=&quot;m-186.329 59.726 3.185 1.16v3.742l-3.185-1.159z&quot; style=&quot;color:#000;clip-rule:nonzero;display:inline;overflow:visible;visibility:visible;opacity:1;isolation:auto;mix-blend-mode:normal;color-interpolation:sRGB;color-interpolation-filters:linearRGB;solid-color:#000;solid-opacity:1;fill:#e9e9ff;fill-opacity:1;fill-rule:nonzero;stroke:#ccc;stroke-width:.07269443;stroke-linecap:butt;stroke-linejoin:bevel;stroke-miterlimit:4;stroke-dasharray:none;stroke-dashoffset:0;stroke-opacity:1;color-rendering:auto;image-rendering:auto;shape-rendering:auto;text-rendering:auto;enable-background:accumulate&quot; transform=&quot;translate(583.104 -138.137) scale(2.92733)&quot;/&gt;&lt;path d=&quot;M-189.56 60.903v3.743l3.231-1.177v-3.743z&quot; style=&quot;color:#000;clip-rule:nonzero;display:inline;overflow:visible;visibility:visible;opacity:1;isolation:auto;mix-blend-mode:normal;color-interpolation:sRGB;color-interpolation-filters:linearRGB;solid-color:#000;solid-opacity:1;fill:#353564;fill-opacity:1;fill-rule:nonzero;stroke:#ccc;stroke-width:.07269443;stroke-linecap:butt;stroke-linejoin:bevel;stroke-miterlimit:4;stroke-dasharray:none;stroke-dashoffset:0;stroke-opacity:1;color-rendering:auto;image-rendering:auto;shape-rendering:auto;text-rendering:auto;enable-background:accumulate&quot; transform=&quot;translate(583.104 -138.137) scale(2.92733)&quot;/&gt;&lt;path d=&quot;m-189.56 64.646 3.184 1.159 3.232-1.177-3.185-1.159z&quot; style=&quot;color:#000;clip-rule:nonzero;display:inline;overflow:visible;visibility:visible;opacity:1;isolation:auto;mix-blend-mode:normal;color-interpolation:sRGB;color-interpolation-filters:linearRGB;solid-color:#000;solid-opacity:1;fill:#afafde;fill-opacity:1;fill-rule:nonzero;stroke:#ccc;stroke-width:.07269443;stroke-linecap:butt;stroke-linejoin:bevel;stroke-miterlimit:4;stroke-dasharray:none;stroke-dashoffset:0;stroke-opacity:1;color-rendering:auto;image-rendering:auto;shape-rendering:auto;text-rendering:auto;enable-background:accumulate&quot; transform=&quot;translate(583.104 -138.137) scale(2.92733)&quot;/&gt;&lt;path d=&quot;m-189.56 60.903 3.184 1.159 3.232-1.177-3.185-1.159z&quot; style=&quot;fill:#f7f7f4;fill-opacity:1;stroke:#ccc;stroke-width:.07269443;stroke-linejoin:bevel;stroke-miterlimit:4;stroke-dasharray:none&quot; transform=&quot;translate(583.104 -138.137) scale(2.92733)&quot;/&gt;&lt;path d=&quot;M-186.376 62.062v3.743l3.232-1.177v-3.743z&quot; style=&quot;fill:#ffd242;fill-opacity:1;stroke:#ccc;stroke-width:.07269443;stroke-linejoin:bevel;stroke-miterlimit:4;stroke-dasharray:none&quot; transform=&quot;translate(583.104 -138.137) scale(2.92733)&quot;/&gt;&lt;path d=&quot;m-189.56 60.903 3.184 1.159v3.743l-3.185-1.16z&quot; style=&quot;fill:#efeeea;fill-opacity:1;stroke:#ccc;stroke-width:.07269443;stroke-linejoin:bevel;stroke-miterlimit:4;stroke-dasharray:none&quot; transform=&quot;translate(583.104 -138.137) scale(2.92733)&quot;/&gt;&lt;/g&gt;&lt;g style=&quot;fill:#a29d86;fill-opacity:1;stroke:#ccc;stroke-width:.07269443;stroke-linejoin:bevel;stroke-miterlimit:4;stroke-dasharray:none&quot;&gt;&lt;path d=&quot;m-186.329 59.726 3.185 1.16v3.742l-3.185-1.159z&quot; style=&quot;color:#000;clip-rule:nonzero;display:inline;overflow:visible;visibility:visible;opacity:1;isolation:auto;mix-blend-mode:normal;color-interpolation:sRGB;color-interpolation-filters:linearRGB;solid-color:#000;solid-opacity:1;fill:#e9e9ff;fill-opacity:1;fill-rule:nonzero;stroke:#ccc;stroke-width:.07269443;stroke-linecap:butt;stroke-linejoin:bevel;stroke-miterlimit:4;stroke-dasharray:none;stroke-dashoffset:0;stroke-opacity:1;color-rendering:auto;image-rendering:auto;shape-rendering:auto;text-rendering:auto;enable-background:accumulate&quot; transform=&quot;translate(573.74 -134.732) scale(2.92733)&quot;/&gt;&lt;path d=&quot;M-189.56 60.903v3.743l3.231-1.177v-3.743z&quot; style=&quot;color:#000;clip-rule:nonzero;display:inline;overflow:visible;visibility:visible;opacity:1;isolation:auto;mix-blend-mode:normal;color-interpolation:sRGB;color-interpolation-filters:linearRGB;solid-color:#000;solid-opacity:1;fill:#353564;fill-opacity:1;fill-rule:nonzero;stroke:#ccc;stroke-width:.07269443;stroke-linecap:butt;stroke-linejoin:bevel;stroke-miterlimit:4;stroke-dasharray:none;stroke-dashoffset:0;stroke-opacity:1;color-rendering:auto;image-rendering:auto;shape-rendering:auto;text-rendering:auto;enable-background:accumulate&quot; transform=&quot;translate(573.74 -134.732) scale(2.92733)&quot;/&gt;&lt;path d=&quot;m-189.56 64.646 3.184 1.159 3.232-1.177-3.185-1.159z&quot; style=&quot;color:#000;clip-rule:nonzero;display:inline;overflow:visible;visibility:visible;opacity:1;isolation:auto;mix-blend-mode:normal;color-interpolation:sRGB;color-interpolation-filters:linearRGB;solid-color:#000;solid-opacity:1;fill:#afafde;fill-opacity:1;fill-rule:nonzero;stroke:#ccc;stroke-width:.07269443;stroke-linecap:butt;stroke-linejoin:bevel;stroke-miterlimit:4;stroke-dasharray:none;stroke-dashoffset:0;stroke-opacity:1;color-rendering:auto;image-rendering:auto;shape-rendering:auto;text-rendering:auto;enable-background:accumulate&quot; transform=&quot;translate(573.74 -134.732) scale(2.92733)&quot;/&gt;&lt;path d=&quot;m-189.56 60.903 3.184 1.159 3.232-1.177-3.185-1.159z&quot; style=&quot;fill:#f7f7f4;fill-opacity:1;stroke:#ccc;stroke-width:.07269443;stroke-linejoin:bevel;stroke-miterlimit:4;stroke-dasharray:none&quot; transform=&quot;translate(573.74 -134.732) scale(2.92733)&quot;/&gt;&lt;path d=&quot;M-186.376 62.062v3.743l3.232-1.177v-3.743z&quot; style=&quot;fill:#fff;fill-opacity:1;stroke:#ccc;stroke-width:.07269443;stroke-linejoin:bevel;stroke-miterlimit:4;stroke-dasharray:none&quot; transform=&quot;translate(573.74 -134.732) scale(2.92733)&quot;/&gt;&lt;path d=&quot;m-189.56 60.903 3.184 1.159v3.743l-3.185-1.16z&quot; style=&quot;fill:#efeeea;fill-opacity:1;stroke:#ccc;stroke-width:.07269443;stroke-linejoin:bevel;stroke-miterlimit:4;stroke-dasharray:none&quot; transform=&quot;translate(573.74 -134.732) scale(2.92733)&quot;/&gt;&lt;/g&gt;&lt;g style=&quot;fill:#a29d86;fill-opacity:1;stroke:#ccc;stroke-width:.07269443;stroke-linejoin:bevel;stroke-miterlimit:4;stroke-dasharray:none&quot;&gt;&lt;path d=&quot;m-186.329 59.726 3.185 1.16v3.742l-3.185-1.159z&quot; style=&quot;color:#000;clip-rule:nonzero;display:inline;overflow:visible;visibility:visible;opacity:1;isolation:auto;mix-blend-mode:normal;color-interpolation:sRGB;color-interpolation-filters:linearRGB;solid-color:#000;solid-opacity:1;fill:#e9e9ff;fill-opacity:1;fill-rule:nonzero;stroke:#ccc;stroke-width:.07269443;stroke-linecap:butt;stroke-linejoin:bevel;stroke-miterlimit:4;stroke-dasharray:none;stroke-dashoffset:0;stroke-opacity:1;color-rendering:auto;image-rendering:auto;shape-rendering:auto;text-rendering:auto;enable-background:accumulate&quot; transform=&quot;translate(601.83 -156.012) scale(2.92733)&quot;/&gt;&lt;path d=&quot;M-189.56 60.903v3.743l3.231-1.177v-3.743z&quot; style=&quot;color:#000;clip-rule:nonzero;display:inline;overflow:visible;visibility:visible;opacity:1;isolation:auto;mix-blend-mode:normal;color-interpolation:sRGB;color-interpolation-filters:linearRGB;solid-color:#000;solid-opacity:1;fill:#353564;fill-opacity:1;fill-rule:nonzero;stroke:#ccc;stroke-width:.07269443;stroke-linecap:butt;stroke-linejoin:bevel;stroke-miterlimit:4;stroke-dasharray:none;stroke-dashoffset:0;stroke-opacity:1;color-rendering:auto;image-rendering:auto;shape-rendering:auto;text-rendering:auto;enable-background:accumulate&quot; transform=&quot;translate(601.83 -156.012) scale(2.92733)&quot;/&gt;&lt;path d=&quot;m-189.56 64.646 3.184 1.159 3.232-1.177-3.185-1.159z&quot; style=&quot;color:#000;clip-rule:nonzero;display:inline;overflow:visible;visibility:visible;opacity:1;isolation:auto;mix-blend-mode:normal;color-interpolation:sRGB;color-interpolation-filters:linearRGB;solid-color:#000;solid-opacity:1;fill:#afafde;fill-opacity:1;fill-rule:nonzero;stroke:#ccc;stroke-width:.07269443;stroke-linecap:butt;stroke-linejoin:bevel;stroke-miterlimit:4;stroke-dasharray:none;stroke-dashoffset:0;stroke-opacity:1;color-rendering:auto;image-rendering:auto;shape-rendering:auto;text-rendering:auto;enable-background:accumulate&quot; transform=&quot;translate(601.83 -156.012) scale(2.92733)&quot;/&gt;&lt;path d=&quot;m-189.56 60.903 3.184 1.159 3.232-1.177-3.185-1.159z&quot; style=&quot;fill:#f7f7f4;fill-opacity:1;stroke:#ccc;stroke-width:.07269443;stroke-linejoin:bevel;stroke-miterlimit:4;stroke-dasharray:none&quot; transform=&quot;translate(601.83 -156.012) scale(2.92733)&quot;/&gt;&lt;path d=&quot;M-186.376 62.062v3.743l3.232-1.177v-3.743z&quot; style=&quot;fill:#ffd242;fill-opacity:1;stroke:#ccc;stroke-width:.07269443;stroke-linejoin:bevel;stroke-miterlimit:4;stroke-dasharray:none&quot; transform=&quot;translate(601.83 -156.012) scale(2.92733)&quot;/&gt;&lt;path d=&quot;m-189.56 60.903 3.184 1.159v3.743l-3.185-1.16z&quot; style=&quot;fill:#efeeea;fill-opacity:1;stroke:#ccc;stroke-width:.07269443;stroke-linejoin:bevel;stroke-miterlimit:4;stroke-dasharray:none&quot; transform=&quot;translate(601.83 -156.012) scale(2.92733)&quot;/&gt;&lt;/g&gt;&lt;g style=&quot;fill:#a29d86;fill-opacity:1;stroke:#ccc;stroke-width:.07269443;stroke-linejoin:bevel;stroke-miterlimit:4;stroke-dasharray:none&quot;&gt;&lt;path d=&quot;m-186.329 59.726 3.185 1.16v3.742l-3.185-1.159z&quot; style=&quot;color:#000;clip-rule:nonzero;display:inline;overflow:visible;visibility:visible;opacity:1;isolation:auto;mix-blend-mode:normal;color-interpolation:sRGB;color-interpolation-filters:linearRGB;solid-color:#000;solid-opacity:1;fill:#e9e9ff;fill-opacity:1;fill-rule:nonzero;stroke:#ccc;stroke-width:.07269443;stroke-linecap:butt;stroke-linejoin:bevel;stroke-miterlimit:4;stroke-dasharray:none;stroke-dashoffset:0;stroke-opacity:1;color-rendering:auto;image-rendering:auto;shape-rendering:auto;text-rendering:auto;enable-background:accumulate&quot; transform=&quot;translate(601.83 -167.078) scale(2.92733)&quot;/&gt;&lt;path d=&quot;M-189.56 60.903v3.743l3.231-1.177v-3.743z&quot; style=&quot;color:#000;clip-rule:nonzero;display:inline;overflow:visible;visibility:visible;opacity:1;isolation:auto;mix-blend-mode:normal;color-interpolation:sRGB;color-interpolation-filters:linearRGB;solid-color:#000;solid-opacity:1;fill:#353564;fill-opacity:1;fill-rule:nonzero;stroke:#ccc;stroke-width:.07269443;stroke-linecap:butt;stroke-linejoin:bevel;stroke-miterlimit:4;stroke-dasharray:none;stroke-dashoffset:0;stroke-opacity:1;color-rendering:auto;image-rendering:auto;shape-rendering:auto;text-rendering:auto;enable-background:accumulate&quot; transform=&quot;translate(601.83 -167.078) scale(2.92733)&quot;/&gt;&lt;path d=&quot;m-189.56 64.646 3.184 1.159 3.232-1.177-3.185-1.159z&quot; style=&quot;color:#000;clip-rule:nonzero;display:inline;overflow:visible;visibility:visible;opacity:1;isolation:auto;mix-blend-mode:normal;color-interpolation:sRGB;color-interpolation-filters:linearRGB;solid-color:#000;solid-opacity:1;fill:#afafde;fill-opacity:1;fill-rule:nonzero;stroke:#ccc;stroke-width:.07269443;stroke-linecap:butt;stroke-linejoin:bevel;stroke-miterlimit:4;stroke-dasharray:none;stroke-dashoffset:0;stroke-opacity:1;color-rendering:auto;image-rendering:auto;shape-rendering:auto;text-rendering:auto;enable-background:accumulate&quot; transform=&quot;translate(601.83 -167.078) scale(2.92733)&quot;/&gt;&lt;path d=&quot;m-189.56 60.903 3.184 1.159 3.232-1.177-3.185-1.159z&quot; style=&quot;fill:#ffc91d;fill-opacity:1;stroke:#ccc;stroke-width:.07269443;stroke-linejoin:bevel;stroke-miterlimit:4;stroke-dasharray:none&quot; transform=&quot;translate(601.83 -167.078) scale(2.92733)&quot;/&gt;&lt;path d=&quot;M-186.376 62.062v3.743l3.232-1.177v-3.743z&quot; style=&quot;fill:#ffd242;fill-opacity:1;stroke:#ccc;stroke-width:.07269443;stroke-linejoin:bevel;stroke-miterlimit:4;stroke-dasharray:none&quot; transform=&quot;translate(601.83 -167.078) scale(2.92733)&quot;/&gt;&lt;path d=&quot;m-189.56 60.903 3.184 1.159v3.743l-3.185-1.16z&quot; style=&quot;fill:#efeeea;fill-opacity:1;stroke:#ccc;stroke-width:.07269443;stroke-linejoin:bevel;stroke-miterlimit:4;stroke-dasharray:none&quot; transform=&quot;translate(601.83 -167.078) scale(2.92733)&quot;/&gt;&lt;/g&gt;&lt;g style=&quot;fill:#a29d86;fill-opacity:1;stroke:#ccc;stroke-width:.07269443;stroke-linejoin:bevel;stroke-miterlimit:4;stroke-dasharray:none&quot;&gt;&lt;path d=&quot;m-186.329 59.726 3.185 1.16v3.742l-3.185-1.159z&quot; style=&quot;color:#000;clip-rule:nonzero;display:inline;overflow:visible;visibility:visible;opacity:1;isolation:auto;mix-blend-mode:normal;color-interpolation:sRGB;color-interpolation-filters:linearRGB;solid-color:#000;solid-opacity:1;fill:#e9e9ff;fill-opacity:1;fill-rule:nonzero;stroke:#ccc;stroke-width:.07269443;stroke-linecap:butt;stroke-linejoin:bevel;stroke-miterlimit:4;stroke-dasharray:none;stroke-dashoffset:0;stroke-opacity:1;color-rendering:auto;image-rendering:auto;shape-rendering:auto;text-rendering:auto;enable-background:accumulate&quot; transform=&quot;translate(592.467 -152.608) scale(2.92733)&quot;/&gt;&lt;path d=&quot;M-189.56 60.903v3.743l3.231-1.177v-3.743z&quot; style=&quot;color:#000;clip-rule:nonzero;display:inline;overflow:visible;visibility:visible;opacity:1;isolation:auto;mix-blend-mode:normal;color-interpolation:sRGB;color-interpolation-filters:linearRGB;solid-color:#000;solid-opacity:1;fill:#353564;fill-opacity:1;fill-rule:nonzero;stroke:#ccc;stroke-width:.07269443;stroke-linecap:butt;stroke-linejoin:bevel;stroke-miterlimit:4;stroke-dasharray:none;stroke-dashoffset:0;stroke-opacity:1;color-rendering:auto;image-rendering:auto;shape-rendering:auto;text-rendering:auto;enable-background:accumulate&quot; transform=&quot;translate(592.467 -152.608) scale(2.92733)&quot;/&gt;&lt;path d=&quot;m-189.56 64.646 3.184 1.159 3.232-1.177-3.185-1.159z&quot; style=&quot;color:#000;clip-rule:nonzero;display:inline;overflow:visible;visibility:visible;opacity:1;isolation:auto;mix-blend-mode:normal;color-interpolation:sRGB;color-interpolation-filters:linearRGB;solid-color:#000;solid-opacity:1;fill:#afafde;fill-opacity:1;fill-rule:nonzero;stroke:#ccc;stroke-width:.07269443;stroke-linecap:butt;stroke-linejoin:bevel;stroke-miterlimit:4;stroke-dasharray:none;stroke-dashoffset:0;stroke-opacity:1;color-rendering:auto;image-rendering:auto;shape-rendering:auto;text-rendering:auto;enable-background:accumulate&quot; transform=&quot;translate(592.467 -152.608) scale(2.92733)&quot;/&gt;&lt;path d=&quot;m-189.56 60.903 3.184 1.159 3.232-1.177-3.185-1.159z&quot; style=&quot;fill:#f7f7f4;fill-opacity:1;stroke:#ccc;stroke-width:.07269443;stroke-linejoin:bevel;stroke-miterlimit:4;stroke-dasharray:none&quot; transform=&quot;translate(592.467 -152.608) scale(2.92733)&quot;/&gt;&lt;path d=&quot;M-186.376 62.062v3.743l3.232-1.177v-3.743z&quot; style=&quot;fill:#ffd242;fill-opacity:1;stroke:#ccc;stroke-width:.07269443;stroke-linejoin:bevel;stroke-miterlimit:4;stroke-dasharray:none&quot; transform=&quot;translate(592.467 -152.608) scale(2.92733)&quot;/&gt;&lt;path d=&quot;m-189.56 60.903 3.184 1.159v3.743l-3.185-1.16z&quot; style=&quot;fill:#efeeea;fill-opacity:1;stroke:#ccc;stroke-width:.07269443;stroke-linejoin:bevel;stroke-miterlimit:4;stroke-dasharray:none&quot; transform=&quot;translate(592.467 -152.608) scale(2.92733)&quot;/&gt;&lt;/g&gt;&lt;g style=&quot;fill:#a29d86;fill-opacity:1;stroke:#ccc;stroke-width:.07269443;stroke-linejoin:bevel;stroke-miterlimit:4;stroke-dasharray:none&quot;&gt;&lt;path d=&quot;m-186.329 59.726 3.185 1.16v3.742l-3.185-1.159z&quot; style=&quot;color:#000;clip-rule:nonzero;display:inline;overflow:visible;visibility:visible;opacity:1;isolation:auto;mix-blend-mode:normal;color-interpolation:sRGB;color-interpolation-filters:linearRGB;solid-color:#000;solid-opacity:1;fill:#e9e9ff;fill-opacity:1;fill-rule:nonzero;stroke:#ccc;stroke-width:.07269443;stroke-linecap:butt;stroke-linejoin:bevel;stroke-miterlimit:4;stroke-dasharray:none;stroke-dashoffset:0;stroke-opacity:1;color-rendering:auto;image-rendering:auto;shape-rendering:auto;text-rendering:auto;enable-background:accumulate&quot; transform=&quot;translate(592.467 -163.673) scale(2.92733)&quot;/&gt;&lt;path d=&quot;M-189.56 60.903v3.743l3.231-1.177v-3.743z&quot; style=&quot;color:#000;clip-rule:nonzero;display:inline;overflow:visible;visibility:visible;opacity:1;isolation:auto;mix-blend-mode:normal;color-interpolation:sRGB;color-interpolation-filters:linearRGB;solid-color:#000;solid-opacity:1;fill:#353564;fill-opacity:1;fill-rule:nonzero;stroke:#ccc;stroke-width:.07269443;stroke-linecap:butt;stroke-linejoin:bevel;stroke-miterlimit:4;stroke-dasharray:none;stroke-dashoffset:0;stroke-opacity:1;color-rendering:auto;image-rendering:auto;shape-rendering:auto;text-rendering:auto;enable-background:accumulate&quot; transform=&quot;translate(592.467 -163.673) scale(2.92733)&quot;/&gt;&lt;path d=&quot;m-189.56 64.646 3.184 1.159 3.232-1.177-3.185-1.159z&quot; style=&quot;color:#000;clip-rule:nonzero;display:inline;overflow:visible;visibility:visible;opacity:1;isolation:auto;mix-blend-mode:normal;color-interpolation:sRGB;color-interpolation-filters:linearRGB;solid-color:#000;solid-opacity:1;fill:#afafde;fill-opacity:1;fill-rule:nonzero;stroke:#ccc;stroke-width:.07269443;stroke-linecap:butt;stroke-linejoin:bevel;stroke-miterlimit:4;stroke-dasharray:none;stroke-dashoffset:0;stroke-opacity:1;color-rendering:auto;image-rendering:auto;shape-rendering:auto;text-rendering:auto;enable-background:accumulate&quot; transform=&quot;translate(592.467 -163.673) scale(2.92733)&quot;/&gt;&lt;path d=&quot;m-189.56 60.903 3.184 1.159 3.232-1.177-3.185-1.159z&quot; style=&quot;fill:#f7f7f4;fill-opacity:1;stroke:#ccc;stroke-width:.07269443;stroke-linejoin:bevel;stroke-miterlimit:4;stroke-dasharray:none&quot; transform=&quot;translate(592.467 -163.673) scale(2.92733)&quot;/&gt;&lt;path d=&quot;M-186.376 62.062v3.743l3.232-1.177v-3.743z&quot; style=&quot;fill:#3775a9;fill-opacity:1;stroke:#ccc;stroke-width:.07269443;stroke-linejoin:bevel;stroke-miterlimit:4;stroke-dasharray:none&quot; transform=&quot;translate(592.467 -163.673) scale(2.92733)&quot;/&gt;&lt;path d=&quot;m-189.56 60.903 3.184 1.159v3.743l-3.185-1.16z&quot; style=&quot;fill:#efeeea;fill-opacity:1;stroke:#ccc;stroke-width:.07269443;stroke-linejoin:bevel;stroke-miterlimit:4;stroke-dasharray:none&quot; transform=&quot;translate(592.467 -163.673) scale(2.92733)&quot;/&gt;&lt;/g&gt;&lt;g style=&quot;fill:#a29d86;fill-opacity:1;stroke:#ccc;stroke-width:.07269443;stroke-linejoin:bevel;stroke-miterlimit:4;stroke-dasharray:none&quot;&gt;&lt;path d=&quot;m-186.329 59.726 3.185 1.16v3.742l-3.185-1.159z&quot; style=&quot;color:#000;clip-rule:nonzero;display:inline;overflow:visible;visibility:visible;opacity:1;isolation:auto;mix-blend-mode:normal;color-interpolation:sRGB;color-interpolation-filters:linearRGB;solid-color:#000;solid-opacity:1;fill:#e9e9ff;fill-opacity:1;fill-rule:nonzero;stroke:#ccc;stroke-width:.07269443;stroke-linecap:butt;stroke-linejoin:bevel;stroke-miterlimit:4;stroke-dasharray:none;stroke-dashoffset:0;stroke-opacity:1;color-rendering:auto;image-rendering:auto;shape-rendering:auto;text-rendering:auto;enable-background:accumulate&quot; transform=&quot;translate(592.467 -174.739) scale(2.92733)&quot;/&gt;&lt;path d=&quot;M-189.56 60.903v3.743l3.231-1.177v-3.743z&quot; style=&quot;color:#000;clip-rule:nonzero;display:inline;overflow:visible;visibility:visible;opacity:1;isolation:auto;mix-blend-mode:normal;color-interpolation:sRGB;color-interpolation-filters:linearRGB;solid-color:#000;solid-opacity:1;fill:#353564;fill-opacity:1;fill-rule:nonzero;stroke:#ccc;stroke-width:.07269443;stroke-linecap:butt;stroke-linejoin:bevel;stroke-miterlimit:4;stroke-dasharray:none;stroke-dashoffset:0;stroke-opacity:1;color-rendering:auto;image-rendering:auto;shape-rendering:auto;text-rendering:auto;enable-background:accumulate&quot; transform=&quot;translate(592.467 -174.739) scale(2.92733)&quot;/&gt;&lt;path d=&quot;m-189.56 64.646 3.184 1.159 3.232-1.177-3.185-1.159z&quot; style=&quot;color:#000;clip-rule:nonzero;display:inline;overflow:visible;visibility:visible;opacity:1;isolation:auto;mix-blend-mode:normal;color-interpolation:sRGB;color-interpolation-filters:linearRGB;solid-color:#000;solid-opacity:1;fill:#afafde;fill-opacity:1;fill-rule:nonzero;stroke:#ccc;stroke-width:.07269443;stroke-linecap:butt;stroke-linejoin:bevel;stroke-miterlimit:4;stroke-dasharray:none;stroke-dashoffset:0;stroke-opacity:1;color-rendering:auto;image-rendering:auto;shape-rendering:auto;text-rendering:auto;enable-background:accumulate&quot; transform=&quot;translate(592.467 -174.739) scale(2.92733)&quot;/&gt;&lt;path d=&quot;m-189.56 60.903 3.184 1.159 3.232-1.177-3.185-1.159z&quot; style=&quot;fill:#2f6491;fill-opacity:1;stroke:#ccc;stroke-width:.07269443;stroke-linejoin:bevel;stroke-miterlimit:4;stroke-dasharray:none&quot; transform=&quot;translate(592.467 -174.739) scale(2.92733)&quot;/&gt;&lt;path d=&quot;M-186.376 62.062v3.743l3.232-1.177v-3.743z&quot; style=&quot;fill:#3775a9;fill-opacity:1;stroke:#ccc;stroke-width:.07269443;stroke-linejoin:bevel;stroke-miterlimit:4;stroke-dasharray:none&quot; transform=&quot;translate(592.467 -174.739) scale(2.92733)&quot;/&gt;&lt;path d=&quot;m-189.56 60.903 3.184 1.159v3.743l-3.185-1.16z&quot; style=&quot;fill:#efeeea;fill-opacity:1;stroke:#ccc;stroke-width:.07269443;stroke-linejoin:bevel;stroke-miterlimit:4;stroke-dasharray:none&quot; transform=&quot;translate(592.467 -174.739) scale(2.92733)&quot;/&gt;&lt;/g&gt;&lt;g style=&quot;fill:#a29d86;fill-opacity:1;stroke:#ccc;stroke-width:.07269443;stroke-linejoin:bevel;stroke-miterlimit:4;stroke-dasharray:none&quot;&gt;&lt;path d=&quot;m-186.329 59.726 3.185 1.16v3.742l-3.185-1.159z&quot; style=&quot;color:#000;clip-rule:nonzero;display:inline;overflow:visible;visibility:visible;opacity:1;isolation:auto;mix-blend-mode:normal;color-interpolation:sRGB;color-interpolation-filters:linearRGB;solid-color:#000;solid-opacity:1;fill:#e9e9ff;fill-opacity:1;fill-rule:nonzero;stroke:#ccc;stroke-width:.07269443;stroke-linecap:butt;stroke-linejoin:bevel;stroke-miterlimit:4;stroke-dasharray:none;stroke-dashoffset:0;stroke-opacity:1;color-rendering:auto;image-rendering:auto;shape-rendering:auto;text-rendering:auto;enable-background:accumulate&quot; transform=&quot;translate(583.104 -149.203) scale(2.92733)&quot;/&gt;&lt;path d=&quot;M-189.56 60.903v3.743l3.231-1.177v-3.743z&quot; style=&quot;color:#000;clip-rule:nonzero;display:inline;overflow:visible;visibility:visible;opacity:1;isolation:auto;mix-blend-mode:normal;color-interpolation:sRGB;color-interpolation-filters:linearRGB;solid-color:#000;solid-opacity:1;fill:#353564;fill-opacity:1;fill-rule:nonzero;stroke:#ccc;stroke-width:.07269443;stroke-linecap:butt;stroke-linejoin:bevel;stroke-miterlimit:4;stroke-dasharray:none;stroke-dashoffset:0;stroke-opacity:1;color-rendering:auto;image-rendering:auto;shape-rendering:auto;text-rendering:auto;enable-background:accumulate&quot; transform=&quot;translate(583.104 -149.203) scale(2.92733)&quot;/&gt;&lt;path d=&quot;m-189.56 64.646 3.184 1.159 3.232-1.177-3.185-1.159z&quot; style=&quot;color:#000;clip-rule:nonzero;display:inline;overflow:visible;visibility:visible;opacity:1;isolation:auto;mix-blend-mode:normal;color-interpolation:sRGB;color-interpolation-filters:linearRGB;solid-color:#000;solid-opacity:1;fill:#afafde;fill-opacity:1;fill-rule:nonzero;stroke:#ccc;stroke-width:.07269443;stroke-linecap:butt;stroke-linejoin:bevel;stroke-miterlimit:4;stroke-dasharray:none;stroke-dashoffset:0;stroke-opacity:1;color-rendering:auto;image-rendering:auto;shape-rendering:auto;text-rendering:auto;enable-background:accumulate&quot; transform=&quot;translate(583.104 -149.203) scale(2.92733)&quot;/&gt;&lt;path d=&quot;m-189.56 60.903 3.184 1.159 3.232-1.177-3.185-1.159z&quot; style=&quot;fill:#f7f7f4;fill-opacity:1;stroke:#ccc;stroke-width:.07269443;stroke-linejoin:bevel;stroke-miterlimit:4;stroke-dasharray:none&quot; transform=&quot;translate(583.104 -149.203) scale(2.92733)&quot;/&gt;&lt;path d=&quot;M-186.376 62.062v3.743l3.232-1.177v-3.743z&quot; style=&quot;fill:#ffd242;fill-opacity:1;stroke:#ccc;stroke-width:.07269443;stroke-linejoin:bevel;stroke-miterlimit:4;stroke-dasharray:none&quot; transform=&quot;translate(583.104 -149.203) scale(2.92733)&quot;/&gt;&lt;path d=&quot;m-189.56 60.903 3.184 1.159v3.743l-3.185-1.16z&quot; style=&quot;fill:#efeeea;fill-opacity:1;stroke:#ccc;stroke-width:.07269443;stroke-linejoin:bevel;stroke-miterlimit:4;stroke-dasharray:none&quot; transform=&quot;translate(583.104 -149.203) scale(2.92733)&quot;/&gt;&lt;/g&gt;&lt;g style=&quot;fill:#a29d86;fill-opacity:1;stroke:#ccc;stroke-width:.07269443;stroke-linejoin:bevel;stroke-miterlimit:4;stroke-dasharray:none&quot;&gt;&lt;path d=&quot;m-186.329 59.726 3.185 1.16v3.742l-3.185-1.159z&quot; style=&quot;color:#000;clip-rule:nonzero;display:inline;overflow:visible;visibility:visible;opacity:1;isolation:auto;mix-blend-mode:normal;color-interpolation:sRGB;color-interpolation-filters:linearRGB;solid-color:#000;solid-opacity:1;fill:#e9e9ff;fill-opacity:1;fill-rule:nonzero;stroke:#ccc;stroke-width:.07269443;stroke-linecap:butt;stroke-linejoin:bevel;stroke-miterlimit:4;stroke-dasharray:none;stroke-dashoffset:0;stroke-opacity:1;color-rendering:auto;image-rendering:auto;shape-rendering:auto;text-rendering:auto;enable-background:accumulate&quot; transform=&quot;translate(583.104 -160.268) scale(2.92733)&quot;/&gt;&lt;path d=&quot;M-189.56 60.903v3.743l3.231-1.177v-3.743z&quot; style=&quot;color:#000;clip-rule:nonzero;display:inline;overflow:visible;visibility:visible;opacity:1;isolation:auto;mix-blend-mode:normal;color-interpolation:sRGB;color-interpolation-filters:linearRGB;solid-color:#000;solid-opacity:1;fill:#353564;fill-opacity:1;fill-rule:nonzero;stroke:#ccc;stroke-width:.07269443;stroke-linecap:butt;stroke-linejoin:bevel;stroke-miterlimit:4;stroke-dasharray:none;stroke-dashoffset:0;stroke-opacity:1;color-rendering:auto;image-rendering:auto;shape-rendering:auto;text-rendering:auto;enable-background:accumulate&quot; transform=&quot;translate(583.104 -160.268) scale(2.92733)&quot;/&gt;&lt;path d=&quot;m-189.56 64.646 3.184 1.159 3.232-1.177-3.185-1.159z&quot; style=&quot;color:#000;clip-rule:nonzero;display:inline;overflow:visible;visibility:visible;opacity:1;isolation:auto;mix-blend-mode:normal;color-interpolation:sRGB;color-interpolation-filters:linearRGB;solid-color:#000;solid-opacity:1;fill:#afafde;fill-opacity:1;fill-rule:nonzero;stroke:#ccc;stroke-width:.07269443;stroke-linecap:butt;stroke-linejoin:bevel;stroke-miterlimit:4;stroke-dasharray:none;stroke-dashoffset:0;stroke-opacity:1;color-rendering:auto;image-rendering:auto;shape-rendering:auto;text-rendering:auto;enable-background:accumulate&quot; transform=&quot;translate(583.104 -160.268) scale(2.92733)&quot;/&gt;&lt;path d=&quot;m-189.56 60.903 3.184 1.159 3.232-1.177-3.185-1.159z&quot; style=&quot;fill:#f7f7f4;fill-opacity:1;stroke:#ccc;stroke-width:.07269443;stroke-linejoin:bevel;stroke-miterlimit:4;stroke-dasharray:none&quot; transform=&quot;translate(583.104 -160.268) scale(2.92733)&quot;/&gt;&lt;path d=&quot;M-186.376 62.062v3.743l3.232-1.177v-3.743z&quot; style=&quot;fill:#3775a9;fill-opacity:1;stroke:#ccc;stroke-width:.07269443;stroke-linejoin:bevel;stroke-miterlimit:4;stroke-dasharray:none&quot; transform=&quot;translate(583.104 -160.268) scale(2.92733)&quot;/&gt;&lt;path d=&quot;m-189.56 60.903 3.184 1.159v3.743l-3.185-1.16z&quot; style=&quot;fill:#efeeea;fill-opacity:1;stroke:#ccc;stroke-width:.07269443;stroke-linejoin:bevel;stroke-miterlimit:4;stroke-dasharray:none&quot; transform=&quot;translate(583.104 -160.268) scale(2.92733)&quot;/&gt;&lt;/g&gt;&lt;g style=&quot;fill:#a29d86;fill-opacity:1;stroke:#ccc;stroke-width:.07269443;stroke-linejoin:bevel;stroke-miterlimit:4;stroke-dasharray:none&quot;&gt;&lt;path d=&quot;m-186.329 59.726 3.185 1.16v3.742l-3.185-1.159z&quot; style=&quot;color:#000;clip-rule:nonzero;display:inline;overflow:visible;visibility:visible;opacity:1;isolation:auto;mix-blend-mode:normal;color-interpolation:sRGB;color-interpolation-filters:linearRGB;solid-color:#000;solid-opacity:1;fill:#e9e9ff;fill-opacity:1;fill-rule:nonzero;stroke:#ccc;stroke-width:.07269443;stroke-linecap:butt;stroke-linejoin:bevel;stroke-miterlimit:4;stroke-dasharray:none;stroke-dashoffset:0;stroke-opacity:1;color-rendering:auto;image-rendering:auto;shape-rendering:auto;text-rendering:auto;enable-background:accumulate&quot; transform=&quot;translate(573.74 -145.798) scale(2.92733)&quot;/&gt;&lt;path d=&quot;M-189.56 60.903v3.743l3.231-1.177v-3.743z&quot; style=&quot;color:#000;clip-rule:nonzero;display:inline;overflow:visible;visibility:visible;opacity:1;isolation:auto;mix-blend-mode:normal;color-interpolation:sRGB;color-interpolation-filters:linearRGB;solid-color:#000;solid-opacity:1;fill:#353564;fill-opacity:1;fill-rule:nonzero;stroke:#ccc;stroke-width:.07269443;stroke-linecap:butt;stroke-linejoin:bevel;stroke-miterlimit:4;stroke-dasharray:none;stroke-dashoffset:0;stroke-opacity:1;color-rendering:auto;image-rendering:auto;shape-rendering:auto;text-rendering:auto;enable-background:accumulate&quot; transform=&quot;translate(573.74 -145.798) scale(2.92733)&quot;/&gt;&lt;path d=&quot;m-189.56 64.646 3.184 1.159 3.232-1.177-3.185-1.159z&quot; style=&quot;color:#000;clip-rule:nonzero;display:inline;overflow:visible;visibility:visible;opacity:1;isolation:auto;mix-blend-mode:normal;color-interpolation:sRGB;color-interpolation-filters:linearRGB;solid-color:#000;solid-opacity:1;fill:#afafde;fill-opacity:1;fill-rule:nonzero;stroke:#ccc;stroke-width:.07269443;stroke-linecap:butt;stroke-linejoin:bevel;stroke-miterlimit:4;stroke-dasharray:none;stroke-dashoffset:0;stroke-opacity:1;color-rendering:auto;image-rendering:auto;shape-rendering:auto;text-rendering:auto;enable-background:accumulate&quot; transform=&quot;translate(573.74 -145.798) scale(2.92733)&quot;/&gt;&lt;path d=&quot;m-189.56 60.903 3.184 1.159 3.232-1.177-3.185-1.159z&quot; style=&quot;fill:#f7f7f4;fill-opacity:1;stroke:#ccc;stroke-width:.07269443;stroke-linejoin:bevel;stroke-miterlimit:4;stroke-dasharray:none&quot; transform=&quot;translate(573.74 -145.798) scale(2.92733)&quot;/&gt;&lt;path d=&quot;M-186.376 62.062v3.743l3.232-1.177v-3.743z&quot; style=&quot;fill:#3775a9;fill-opacity:1;stroke:#ccc;stroke-width:.07269443;stroke-linejoin:bevel;stroke-miterlimit:4;stroke-dasharray:none&quot; transform=&quot;translate(573.74 -145.798) scale(2.92733)&quot;/&gt;&lt;path d=&quot;m-189.56 60.903 3.184 1.159v3.743l-3.185-1.16z&quot; style=&quot;fill:#2f6491;fill-opacity:1;stroke:#ccc;stroke-width:.07269443;stroke-linejoin:bevel;stroke-miterlimit:4;stroke-dasharray:none&quot; transform=&quot;translate(573.74 -145.798) scale(2.92733)&quot;/&gt;&lt;/g&gt;&lt;g style=&quot;fill:#a29d86;fill-opacity:1;stroke:#ccc;stroke-width:.07269443;stroke-linejoin:bevel;stroke-miterlimit:4;stroke-dasharray:none&quot;&gt;&lt;path d=&quot;m-186.329 59.726 3.185 1.16v3.742l-3.185-1.159z&quot; style=&quot;color:#000;clip-rule:nonzero;display:inline;overflow:visible;visibility:visible;opacity:1;isolation:auto;mix-blend-mode:normal;color-interpolation:sRGB;color-interpolation-filters:linearRGB;solid-color:#000;solid-opacity:1;fill:#e9e9ff;fill-opacity:1;fill-rule:nonzero;stroke:#ccc;stroke-width:.07269443;stroke-linecap:butt;stroke-linejoin:bevel;stroke-miterlimit:4;stroke-dasharray:none;stroke-dashoffset:0;stroke-opacity:1;color-rendering:auto;image-rendering:auto;shape-rendering:auto;text-rendering:auto;enable-background:accumulate&quot; transform=&quot;translate(573.74 -156.864) scale(2.92733)&quot;/&gt;&lt;path d=&quot;M-189.56 60.903v3.743l3.231-1.177v-3.743z&quot; style=&quot;color:#000;clip-rule:nonzero;display:inline;overflow:visible;visibility:visible;opacity:1;isolation:auto;mix-blend-mode:normal;color-interpolation:sRGB;color-interpolation-filters:linearRGB;solid-color:#000;solid-opacity:1;fill:#353564;fill-opacity:1;fill-rule:nonzero;stroke:#ccc;stroke-width:.07269443;stroke-linecap:butt;stroke-linejoin:bevel;stroke-miterlimit:4;stroke-dasharray:none;stroke-dashoffset:0;stroke-opacity:1;color-rendering:auto;image-rendering:auto;shape-rendering:auto;text-rendering:auto;enable-background:accumulate&quot; transform=&quot;translate(573.74 -156.864) scale(2.92733)&quot;/&gt;&lt;path d=&quot;m-189.56 64.646 3.184 1.159 3.232-1.177-3.185-1.159z&quot; style=&quot;color:#000;clip-rule:nonzero;display:inline;overflow:visible;visibility:visible;opacity:1;isolation:auto;mix-blend-mode:normal;color-interpolation:sRGB;color-interpolation-filters:linearRGB;solid-color:#000;solid-opacity:1;fill:#afafde;fill-opacity:1;fill-rule:nonzero;stroke:#ccc;stroke-width:.07269443;stroke-linecap:butt;stroke-linejoin:bevel;stroke-miterlimit:4;stroke-dasharray:none;stroke-dashoffset:0;stroke-opacity:1;color-rendering:auto;image-rendering:auto;shape-rendering:auto;text-rendering:auto;enable-background:accumulate&quot; transform=&quot;translate(573.74 -156.864) scale(2.92733)&quot;/&gt;&lt;path d=&quot;m-189.56 60.903 3.184 1.159 3.232-1.177-3.185-1.159z&quot; style=&quot;fill:#2f6491;fill-opacity:1;stroke:#ccc;stroke-width:.07269443;stroke-linejoin:bevel;stroke-miterlimit:4;stroke-dasharray:none&quot; transform=&quot;translate(573.74 -156.864) scale(2.92733)&quot;/&gt;&lt;path d=&quot;M-186.376 62.062v3.743l3.232-1.177v-3.743z&quot; style=&quot;fill:#3775a9;fill-opacity:1;stroke:#ccc;stroke-width:.07269443;stroke-linejoin:bevel;stroke-miterlimit:4;stroke-dasharray:none&quot; transform=&quot;translate(573.74 -156.864) scale(2.92733)&quot;/&gt;&lt;path d=&quot;m-189.56 60.903 3.184 1.159v3.743l-3.185-1.16z&quot; style=&quot;fill:#2f6491;fill-opacity:1;stroke:#ccc;stroke-width:.07269443;stroke-linejoin:bevel;stroke-miterlimit:4;stroke-dasharray:none&quot; transform=&quot;translate(573.74 -156.864) scale(2.92733)&quot;/&gt;&lt;/g&gt;&lt;g transform=&quot;translate(-1683.66 -513.275) scale(.65177)&quot;&gt;&lt;g style=&quot;fill:#a29d86;fill-opacity:1;stroke:#ccc;stroke-width:.07269443;stroke-linejoin:bevel;stroke-miterlimit:4;stroke-dasharray:none&quot;&gt;&lt;path d=&quot;m-186.329 59.726 3.185 1.16v3.742l-3.185-1.159z&quot; style=&quot;color:#000;clip-rule:nonzero;display:inline;overflow:visible;visibility:visible;opacity:1;isolation:auto;mix-blend-mode:normal;color-interpolation:sRGB;color-interpolation-filters:linearRGB;solid-color:#000;solid-opacity:1;fill:#e9e9ff;fill-opacity:1;fill-rule:nonzero;stroke:#ccc;stroke-width:.07269443;stroke-linecap:butt;stroke-linejoin:bevel;stroke-miterlimit:4;stroke-dasharray:none;stroke-dashoffset:0;stroke-opacity:1;color-rendering:auto;image-rendering:auto;shape-rendering:auto;text-rendering:auto;enable-background:accumulate&quot; transform=&quot;translate(3477.852 524.633) scale(4.49135)&quot;/&gt;&lt;path d=&quot;M-189.56 60.903v3.743l3.231-1.177v-3.743z&quot; style=&quot;color:#000;clip-rule:nonzero;display:inline;overflow:visible;visibility:visible;opacity:1;isolation:auto;mix-blend-mode:normal;color-interpolation:sRGB;color-interpolation-filters:linearRGB;solid-color:#000;solid-opacity:1;fill:#353564;fill-opacity:1;fill-rule:nonzero;stroke:#ccc;stroke-width:.07269443;stroke-linecap:butt;stroke-linejoin:bevel;stroke-miterlimit:4;stroke-dasharray:none;stroke-dashoffset:0;stroke-opacity:1;color-rendering:auto;image-rendering:auto;shape-rendering:auto;text-rendering:auto;enable-background:accumulate&quot; transform=&quot;translate(3477.852 524.633) scale(4.49135)&quot;/&gt;&lt;path d=&quot;m-189.56 64.646 3.184 1.159 3.232-1.177-3.185-1.159z&quot; style=&quot;color:#000;clip-rule:nonzero;display:inline;overflow:visible;visibility:visible;opacity:1;isolation:auto;mix-blend-mode:normal;color-interpolation:sRGB;color-interpolation-filters:linearRGB;solid-color:#000;solid-opacity:1;fill:#afafde;fill-opacity:1;fill-rule:nonzero;stroke:#ccc;stroke-width:.07269443;stroke-linecap:butt;stroke-linejoin:bevel;stroke-miterlimit:4;stroke-dasharray:none;stroke-dashoffset:0;stroke-opacity:1;color-rendering:auto;image-rendering:auto;shape-rendering:auto;text-rendering:auto;enable-background:accumulate&quot; transform=&quot;translate(3477.852 524.633) scale(4.49135)&quot;/&gt;&lt;path d=&quot;m-189.56 60.903 3.184 1.159 3.232-1.177-3.185-1.159z&quot; style=&quot;fill:#2f6491;fill-opacity:1;stroke:#ccc;stroke-width:.07269443;stroke-linejoin:bevel;stroke-miterlimit:4;stroke-dasharray:none&quot; transform=&quot;translate(3477.852 524.633) scale(4.49135)&quot;/&gt;&lt;path d=&quot;M-186.376 62.062v3.743l3.232-1.177v-3.743z&quot; style=&quot;fill:#3775a9;fill-opacity:1;stroke:#ccc;stroke-width:.07269443;stroke-linejoin:bevel;stroke-miterlimit:4;stroke-dasharray:none&quot; transform=&quot;translate(3477.852 524.633) scale(4.49135)&quot;/&gt;&lt;path d=&quot;m-189.56 60.903 3.184 1.159v3.743l-3.185-1.16z&quot; style=&quot;fill:#2f6491;fill-opacity:1;stroke:#ccc;stroke-width:.07269443;stroke-linejoin:bevel;stroke-miterlimit:4;stroke-dasharray:none&quot; transform=&quot;translate(3477.852 524.633) scale(4.49135)&quot;/&gt;&lt;/g&gt;&lt;circle cx=&quot;2816.017&quot; cy=&quot;1772.922&quot; r=&quot;2.967&quot; style=&quot;fill:#fff;fill-opacity:1&quot; transform=&quot;skewY(-20) scale(.9397 1)&quot;/&gt;&lt;/g&gt;&lt;/svg&gt;" style="text;whiteSpace=wrap;html=1;" vertex="1" parent="1">
          <mxGeometry x="155.54999999999995" y="430" width="80" height="60" as="geometry" />
        </mxCell>
        <mxCell id="epuEaKkqdymQAd3olJLZ-15" value="&lt;h1&gt;&lt;font style=&quot;font-size: 36px;&quot;&gt;spark-rapids-user-tools&lt;/font&gt;&lt;/h1&gt;" style="text;html=1;strokeColor=none;fillColor=none;align=center;verticalAlign=middle;whiteSpace=wrap;rounded=0;" vertex="1" parent="1">
          <mxGeometry x="230" y="455" width="407" height="30" as="geometry" />
        </mxCell>
        <mxCell id="epuEaKkqdymQAd3olJLZ-16" value="" style="verticalLabelPosition=bottom;verticalAlign=top;html=1;strokeWidth=2;shape=mxgraph.arrows2.arrow;dy=0.6;dx=40;notch=0;rotation=90;" vertex="1" parent="1">
          <mxGeometry x="378.12" y="531.17" width="88.75" height="27.5" as="geometry" />
        </mxCell>
        <mxCell id="epuEaKkqdymQAd3olJLZ-17" value="" style="verticalLabelPosition=bottom;verticalAlign=top;html=1;strokeWidth=2;shape=mxgraph.arrows2.arrow;dy=0.6;dx=40;notch=0;rotation=30;direction=east;" vertex="1" parent="1">
          <mxGeometry x="447.5000000000001" y="550" width="179.75" height="30" as="geometry" />
        </mxCell>
        <mxCell id="epuEaKkqdymQAd3olJLZ-18" value="&lt;font style=&quot;font-size: 18px;&quot;&gt;Databricks CLI&lt;/font&gt;" style="rounded=1;whiteSpace=wrap;html=1;" vertex="1" parent="1">
          <mxGeometry x="570" y="622" width="113" height="78" as="geometry" />
        </mxCell>
        <mxCell id="epuEaKkqdymQAd3olJLZ-19" value="" style="verticalLabelPosition=bottom;verticalAlign=top;html=1;strokeWidth=2;shape=mxgraph.arrows2.arrow;dy=0.6;dx=40;notch=0;rotation=150;direction=east;" vertex="1" parent="1">
          <mxGeometry x="217.75" y="550" width="179.75" height="30" as="geometry" />
        </mxCell>
        <mxCell id="epuEaKkqdymQAd3olJLZ-20" value="" style="shape=image;verticalLabelPosition=bottom;labelBackgroundColor=default;verticalAlign=top;aspect=fixed;imageAspect=0;image=data:image/png,iVBORw0KGgoAAAANSUhEUgAABR4AAAMgCAYAAABF/36gAAAACXBIWXMAAA7EAAAOxAGVKw4bAAAgAElEQVR42uzdX4yVZYLn8bnaudMr5ULTiSb+udDe6LJrKqO4pQhBhwDSMjFLs0YDUjvpmDBk3NCxorahS1jpbhtaJVIEtLpGzTCts9iLU5PBGUUDYbTHsofGsJQ2iBYs8q+KquKc91nPKSir+Ft/nnPO+57380l+9/BYnKrz9a3n/EkAAAAAAIjsTxwBAAAAABCb8AgAAAAARCc8AgAAAADRCY8AAAAAQHTCIwAAAAAQnfAIAAAAAEQnPAIAAAAA0QmPAAAAAEB0wiMAAAAAEJ3wCAAAAABEJzwCAAAAANEJjwAAAABAdMIjAAAAABCd8AgAAAAARCc8AgAAAADRCY8AAAAAQHTCIwAAAAAQnfAIAAAAAEQnPAIAAAAA0QmPAAAAAEB0wiMAAAAAEJ3wCAAAAABEJzwCAAAAANEJjwAAAABAdMIjAAAAABCd8AgAAAAARCc8AgAAAADRCY8AAAAAQHTCIwAAAAAQnfAIAAAAAEQnPAIAAAAA0QmPAAAAAEB0wiMAAAAAEJ3wCAAAAABEJzwCAAAAANEJjwAAAABAdMIjAAAAABCd8AgAAAAARCc8AgAAAADRCY8AAAAAQHTCIwAAAAAQnfAIAAAAAEQnPAIAAAAA0QmPAAAAAEB0wiMAAAAAEJ3wCAAAAABEJzwCAAAAANEJjwAAAABAdMIjAAAAABCd8AgAAAAARCc8AgAAAADRCY8AAAAAQHTCIwAAAAAQnfAIAMC4FAf6HAIAABckPAIAMCa9h7tDR8vi8If2Z0Pfa8tCcuQrhwIAwDmERwAARuVMcHxx+qTwiz/70/D+spnh+F/dEHqemy1AAgBwDuERAICLOjs4ntmZ8HhmAiQAAMMJjwAAnNeFguOFwqMACQDAcMIjAAAjXCo4Xio8CpAAAJQIjwAAlI02OI42PA4PkP2bV4Wk54hDBgDIEeERACDnxhocxxoeBUgAgHwSHgEAcmq8wXG84VGABADIF+ERACBnJhocJxoeBUgAgHwQHgEAciJWcIwVHgVIAID6JjwCANS52MExdng8J0D29/qPBgBQB4RHAIA6VangWKnwODxADmxtFSABADJOeAQAqDOVDo6VDo8CJABAfRAeAQDqRLWCY7XCowAJAJBtwiMAQMZVOzhWOzwKkAAA2SQ8AgBkVK2CY63C49kBMgz0+SIAAEgx4REAIGP6e46Fd3++pGbBsdbhcXiAPLVjUwiFAV8UAAApJDwCAGREKThue6m55sExLeFRgAQASDfhEQAg5dIWHNMWHgVIAIB0Eh4BAFIqrcExreFRgAQASBfhEQAgZdIeHNMeHgVIAIB0EB4BAFIiK8ExK+FxRID8+LchJEVfZAAAVSQ8AgDUWNaCY9bC4/AAWejsECABAKpEeAQAqJGsBseshkcBEgCguoRHAIAqy3pwzHp4FCABAKpDeAQAqJJ6CY71Eh4FSACAyhIeAQAqrN6CY72Fx3MDZOKLFgAgAuERAKBC6jU41mt4PLPeNfNDYc92ARIAYIKERwCAyOo9ONZ7eBQgAQDiEB4BACLJS3DMS3gUIAEAJkZ4BACYoLwFx7yFRwESAGB8hEcAgHHKa3DMa3gUIAEAxkZ4BAAYo1N9vbkOjnkPj2d28uVFobjvU/8gAAAuQHgEABilQn9f+Pj11bkPjsKjAAkAMBrCIwDAJQiOwqMACQAwdsIjAMAFCI7CowAJADB+wiMAwFkER+FRgAQAmDjhEQDgNMFReKxYgDyw2z8wACB3hEcAIPcER+Gx0ut5bnY4ufGxUOze6x8cAJAbwiMAkFuCo/AoQAIAVI7wCADkjuAoPAqQAACVJzwCALkhOAqPAiQAQPUIjwBA3RMchUcBEgCg+oRHAKBuCY7CYxYDZN9ry0Jy5Cv/gAGAzBMeAYC6IzgKjwIkAEDtCY8AQN0QHIVHARIAID2ERwAg8wRH4VGABABIH+ERAMgswVF4FCABANJLeAQAMkdwFB4FyNmh7++eCUnPES8IAEBqCY8AQGYkxULofKtVcBQebViA7N+8SoAEAFJJeAQAUq8UHHe90y44Co8mQAIAGSI8AgCpJTgKjyZAAgDZJTwCAKkjOAqPJkACANknPAIAqSE4Co9WoQB58rgXGACg6oRHAKDmBEfh0SofIAe2toakv9cLDgBQNcIjAFAzgqPwaAIkAFC/hEcAoOoER+HRBEgAoP4JjwBA1QiOwqMJkABAfgiPAEDFCY7CowmQAED+CI8AQMUIjsKjZTBAbmsPoTDgBQwAmDDhEQCITnAUHi37AfLUjk0CJAAwIcIjABCN4Cg8mgAJAHCG8AgATJjgKDyaAAkAcDbhEQAYN8FReBTlBEgAgAsRHgGAMRMcTXgUIMsBMil6QQQALkh4BABGLUkSwdGERxsRIAudHQIkAHBewiMAcEml4Nj1wZbQOvd6wc2ERxMgAYBRER4BgAsSHE14NAESABgv4REAOIfgaMKjCZAAwEQJjwDAEMHRhEcTIAGAWIRHAEBwNOHRKrreNfNDYc/20ouNF1wAyBHhEQAER8HRhEcTIAEA4REAEBxNeDQBEgAQHgEAwdGERzMBEgCERwBAcDQTHk2ABACERwBAcDTh0eooQBY//50XbwAQHgEAwdGER7HM4u/ky4tCcd+nXswBQHgEAARHEx7NBEgAQHgEAMHRTHg0ARIAEB4BAMHRhEczARIAhEcAQHA04dFMgAQA4dERAIDgaCY8WtbW89zscHLjY6HYvdc3BwAQHgGAifjykw8FRxMezQRIABAeAYB4wbFtwWShy4RHMwESAIRHAEBwNOHRTIAEAOERABAczYRHEyABAOERAARHM+HRbCwBMjnylW80ACA8AoDgaCY8msUPkH2vLRMgAUB4BADB0Ux4NBMgAUB4BAAERxMezQRIAEB4BADB0Ux4NBMgAUB4BADB0Ux4NKtGgDx+yDcuABAeAUBwNBMezeIHyP7Nq0LSc8Q3MgAQHgFAcDQTHs0ESAAQHgFAcDQTHs0ESAAQHgEAwdFMeDQBUoAEAOERAARHM+HRTIAEAOERAARHM+HRLIsBcmBra0j6e31jBADhEQAERzPh0UyABADhEQBS4tCezvBGU2N4cfoksclMeDQTIAFAeAQAwdFMeDQTIAFAeAQAwdFMeDQTIAFAeAQAwdFMeBSYzEYXIENhwDdaAIRHABAczUx4NIsfIE/t2CRAAiA8AoDgaGbCo5kACQDCIwAIjmbCo5kACQDCIwAIjmbCo5kJkAAIjwAgOJqZ8GgmQAKA8AgAgqOZ8GiW1QBZ6OwIISn6Rg6A8AgAgqOZ8GhmAiQACI8ACI5mJjyaCZAAIDwCgOBoJjyaCZACJADCIwAIjmbCo5kJkAAgPAIgOJqZ8GiWyQC5Z3sISeIHAwCERwAQHM2ERzOLu9418wVIAIRHABivowe6BEcz4dHMBEgAhEcAiBcc31w6S3A0Ex7NTIAEQHgEAMHRTHg0MwESAIRHAARHMxMezeo/QAKA8AiA4CjmmAmPZhZ7J19eFIr7PvVDBwDCIwCCo5kJj2YmQAIgPAKA4GgmPJqZAAkAwiMAgqOZCY9mJkACIDwCIDiamfBoZgIkAMIjAAiOZsKjmWU2QHbv9UMMAMIjAIKjmQmPZhZ3Pc/NDic3PiZAAiA8AiA4mpnwaGYCJADCIwCCo5kJj2YmQAIgPAKA4GhmwqOZCZAACI8ACI5mJjyaWRUCZHLyuB+KABAeARAczUx4NLO4K+771A9HAAiPAExMf88xwdHMhEczEx4BEB4BiOvLTz4UWcxMeDQz4REA4REA4dHMhEczEx4BEB4BEB7NTHg0M+ERAOERAOHRzEx4NBMehUcAhEcAhEczEx7NTHgEQHgEQHg0M+HRzIRHAIRHAIRHMxMezUx4BADhEQDh0cyERzMTHgEQHgEQHs1MeDQz4REA4REA4dHMhEczEx4BQHgEQHg0M+HRzIRHAIRHAIRHMxMezUx4BEB4BEB4NDPh0cyERwCERwAQHs1MeDQz4REA4REA4dHMhEczEx4BEB4BEB7NTHg0M+ERAOERAIRHMxMezUx4BEB4BEB4NDPh0cyERwCERwCERzMTHs1MeARAeARAeDQzEx7NTHgEQHgEQHg0M+HRzIRHAIRHAIRHMxMezUx4BEB4BEB4NDPh0cyERwAQHgEQHs1MeDQz4REA4REA4dHMhEczEx4BEB4BEB7NTHg0M+ERAIRHAIRHMxMezUx4BEB4BEB4NDPh0cyERwCERwCERzMTHs1MeARAeAQA4dHMhEczEx4BEB4BEB7NTHg0M+ERAOERAOHRzIRHMxMeARAeAUB4NDPh0cyERwCERwCERzMTHs1MeARAeARAeDQz4dHMhEcAhEcAhEeRxcyERzMTHgEQHgEQHs1MeDQz4REA4REA4dHMhEczEx4BEB4BEB7NTHgUHs2ERwAQHgEQHs1MeDQz4REA4REA4dHMhEczEx4BEB4BEB7NTHg0M+ERAIRHAIRHMxMezUx4BEB4BEB4NDPh0cyERwCERwCERzMTHs1MeARAeAQA4dHMhEczEx4BEB4BEB7NTHg0M+ERAOERAOHRzIRHMxMeARAeAUB4NDPh0cyERwCERwCERzMTHs1MeARAeARAeDQz4dHMhEcAhEcAEB7NTHg0M+ERAOERAOHRzIRHMxMeARAeARAezUx4NDPhEQDhEQDh0cxMeDQz4REA4REA4dHMhEczEx4BEB4BEB7NTHg0M+ERAOERAOHRzIRHMxMeAUB4BEB4NDPh0cyERwCERwCERzMTHs1MeARAeARAeDQz4dHMhEcAEB4BEB7NTHg0M+ERAOERAOHRzIRHMxMeARAeARAezUx4NDPhEQDhEQCERzMTHs1MeARAeARAeDQz4dHMhEcAhEcAhEczEx7NTHgEQHgEAOHRzIRHMxMeARAeARAezUx4NDPhEQDhEQDh0cyERzMTHgEQHgEQHs3MhEczEx4BEB4BEB7NTHg0M+ERAOERAOHRzDKx1Y2Xh1f/+38O7z/5F+H/PTszHH/8+yKMmfAIAMIjAMKjmY1u6x+4sRwYf/0/7gmvPHp3eOG//Zfw9JQrwv+85T+cs5bGSeE3TVPCR0/NCZ/9dN5gkGxuEGfMhEcAhEcAEB7N8rgXpl1Zjot/03RXOTCW4uLz99903rg43pWC5LZlM8O/L38gHFo5Oxx75m7Rxkx4BEB4BADh0awetuHBm0Pbww3luLhhYWM5MD5x22VRA+NY1/bDW0PHkmnlIHlgxQ/CNy33ijlmwiMAwiMAwqOZpW1r77v69NOLU0PbtyvFxRUzrqlpXBzPfjX7uvJTkp/8ZG74YsUDg7+2/ePJQo+Z8AiA8AiA8GhmlVwpLrYvurP89OL6R6aUA2PW4uJ4duYeyR3Ns7+7R/LpKQKQmfAIgPAIgPBoZqPdujnXDgbGpnvCq02DH+yyfOpVuQiM471H8t3HZwzdI3lk+XRhyEx4BEB4BEB4NMvnVjdePvir0Ysby08vrl3QENbMu1VIjHyP5OYf3VUOkvtXnv61bcHITHgEQHgEQHg0q4etf+DGcmAsxcVXHh18evHpKVcIgzXcz2Z8b+geyb3PznOPpJnwCIDwCIDwaJbOvTDtytMf7HJXOTCW4uKqmTeIfBnbkw2XD90jWXpK0j2SZsIjAMIjAMKjWVW2cf4toX3hHeW4uGFhYzkwPnHbZaJdDvb6ww1D90h2r5zrHkkTHoVHAIRHAIRHs7Ft7X1Xn356cWpo+3aluLhixjXim5136+bdVH5KcsQ9ko9/X5gy4REA4dERACA8Wl5X/tToRXeWn15c99Dt5cAopFnseyQ/emrOd/dINjcIViY8AiA8AoDwaPWwdXOuHQyMTfeEV5sGP9hl+dSrhDGr+T2S25bNHLpH8tgzdwtZJjwCIDwCIDyapW2rGy8f/NXoxY3lpxfXLmgIz99/k8hlmbxHsmPJtHKQPLDiB+GblnsFLhMeARAeARAezSq9DQ/eHNoebijHxVceHXx68ekpVwhWVvf71ezrhu6R/GKFeyRNeARAeARAeDQb816YduXpD3a5qxwYS3Fx1cwbxCez86ylcdLQPZKf/dQ9kiY8AiA8AiA8moWN828J7QvvKMfF9Y9MKQfGJ267TEwyi7Th90geWjk7HFk+XSwz4REA4REA4dHqY2vvu/r004tTQ9u3K8XFFTOuEYXMari2H94aNv/orqF7JMtPSYpoJjwCIDwCIDxaGlf+1OhFd5afXlz30O1hzbxbBR6zjN4j+clP5n53j+SPJwtsJjwCIDwCIDxaZbf+gRvLgbEUF19tGvxgl+VTrxJszHJyj+SO5tnf3SP59BThzYRHAIRHAIRHG/1WN14++KvRixvLgXHtgobw/P03iS9mdsF7JN99fEb517a7V851j6TwCADCIwDCY9634cGbQ9vDDeW4uGFhY/npxaenXCGkmFmUrZt309A9kvtXPuAeSeERAOERAITHetoL0648/cEud5UDYykurpp5gyhiZjXbz2Z8b+geyb3PznOPpPAIgPAIgPAoPKZ5G+ffEtoX3lGOi+sfmVIOjAKHmWVpTzZcPnSPZOkpyVKQPPbM3eKe8AiA8AiA8GiV3ro51w5+cnTTPaGtaWo5Lq6YcY1gYWZ1v9cfbggdS6YN3SP5Tcu9op/wCIDwCIDwaGNdOS4uurP89OK6h24Pa+bdKjyYmV3gHsnSU5Ij7pF8/PuCoPAIgPAIgPCY361/4MZyYCzFxVcevbv89OLyqVcJCWZmEe+R/OipOd/dI9ncIBQKjwAIjwAIj/Wx1Y2XD36wy+LGcmBcu6AhPH//TaKAmVkNVwqS25bNLD8leWjlbPdICo8ACI8ACI/p3YYHbw5tDzeU4+KGhY3lpxefuO0yb/DNzDK0th/eOnSP5IEVP3CPpPAIgPAIgPBYna297+rBpxebppYDYykurpp5gzfrZmZ1vl/Nvm7oHskvVrhHUngEQHgEQHgc5zbOvyW0L7yjHBfXPzKlHBi98TYzs7PX0jhp6B7Jz356+h7Jp6cIjwAgPAKQ5/C4bs61g58c3XRPeLVp8INdVsy4xhtpMzOLdo/ku4/PGLpH8sjy6cIjAMIjANRTeCzHxUV3lp9eXPfQ7WHNvFu9ITYzs5reI7n5R3cN3SNZfkpSeARAeARAeExneFz/wI3lwFiKi688Ovj04tNTrvAG18zMMneP5Cc/mfvdPZI/niw8AiA8AiA8VnovTLvy9Ae73FUOjGsXNITn77/Jm1UzM6vrPdlweTlI7mieXX5KMo33SAqPAAiPAGQiPG548ObQ9nBDOS5uWNhYfnrxidsu8+bTzMzsrL3+7ffLM/dIdq+cW7N7JIVHAIRHAFITHtfed/XppxenhrZvV4qLq2be4E2kmZlZhK2bd9PQPZL7Vz5Q8XskhUcAhEcAqh4eN86/JbQvvKP89OL6R6aUA6M3hGZmZrXZz2Z8r/xr2x89NSfsfXbeYJBsbhAeARAeAUhneFw359rBT45uuie82jT4wS7Lp17lDZ6ZmVnG7pHctmzm0D2Sx565W3gEQHgEoHqOH/wy/P7/tIdPt7wWfrf51fCLef8pPDnlyhHzBs7MzKy+7pHsWDJt6B7Jb1ruFR4BEB4BqL6+E8eGdrR7f+j6eNvQ3v/1L8OW1c1DEyzNzMwy8kTkWd+zS//j8d/ffiV88c+bwvF/3RJOHe32QxAAwiMA6ZQkyYhoefDz3SOi5fBg2fbXD4qWZmZmEeLh8O+vH73dPuJ774nD3SO+NwOA8AhA7hRPDYx4YzT8TdOu93474k3VCw/dKVqamZl4CADCIwBU1sDJnqE3Y6U3Z8PfrJXevA1/M9dy73WCpZmZiYcAIDwCQGUNfxN4eH/XiDeJ/7SuZegN5N+vWOIpSzMz8VA8BEB4BAAqKykWRrz5/OqzzqE3pnt2bHWfpZmZeAgAwiMAUF2n+vuG3vD2Hv1mxBvizn/8zYg3zKU30KKlmYmH4iEACI8AQEUNf6N9tHv/iDfi2zetG/FGXbA0M/EQABAeAYCqRsuDn+8eEQCGx4G/fWqRaGkmHoqHAMA5hEcAIKriqYERYWHf73cORYdd7/12RJRo/cs/Fy3NxEMAoE4JjwBAagyc7LngfZal+DE8hrTce51oaSYeAgApJjwCAHVheEQ5vL9rRGR5/9e/HAowf79iiWBp4iEAQBUIjwBAriVJMiLefPVZ5wXvs2z76wdFSxMPAQBGSXgEABinU/19I6LR8KDU+Y+/GRGcXnjoTtFSPAQAyBXhEQCgBoaHqlK4Gh6ytm9ad9H7LMVB8RAAIAuERwCAjBkeyA5+vntEQPundS1Dce1vn1qU6acsxUMAgGwTHgEAciIpFkaEuX2/3zkU7fbs2Doi6rX+5Z9HiZbiIQBAfgmPAABc0vD7LHuPfjMiFp498RAAgBLhEQAAAACITngEAAAAAKITHgEAAACA6IRHAAAAACA64REAAAAAiE54BAAAAACiEx4BAAAAgOiERwAAAAAgOuERAAAAAIhOeAQAAAAAohMeAQAAAIDohEcAAAAAIDrhEQAAAACITngEAAAAAKITHgEAAACA6IRHAAAAACA64REAAAAAiE54BAAAAACiEx4BAAAAgOiERwAAAAAgOuERAAAAAIhOeAQAAAAAohMeAQAAAIDohEcAAAAAIDrhEQAAAACITngEAAAAAKITHgEAAACA6IRHAAAAACA64REAAAAAiE54BAAAAACiEx4BAAAAgOiERwAAAAAgOuERAAAAAIhOeAQAAAAAohMeAQAAAIDohEcAAAAAIDrhEQAAAACITngEAAAAAKITHgEAAACA6IRHAAAAACA64REAAAAAiE54BAAAAACiEx4BuKT+nmPhy08+rOlO7Nsdivs+rcoOb//f4Q/tz6ZyB/9hXRjY2lrxHfibn4R/+18PZ2pfrl8a+l5bVpX1v70qF2eahjMfz1lb5Vfo7Kjaa7Kld0l/rx+SABAeAZiYUvj7xZ/9aU33/rKZ4fhf3VCV/fNfTKr53/dCK/3Z8n4GtT6bPJ1p1s/czCq7UnwEAOERAOFReBQehUfh0cyERwCERwCER+FReBQenbmZCY8ACI8ACI/Co/AoggmPZiY8AoDwCIDwKDwKj8Kj8GhmwiMAwiMAwqPwKDwKj87czIRHAIRHAIRH4VF4FMGERzMTHgEQHgFAeBQehUdnKjyamfAIgPAIgPAoPIpkwqMzNzPhEQDhEQDhUXgUHkUw4dHMhEcAhEcAEB6FR+HRmQqPZiY8AiA8AiA8Co8imfDozM1MeARAeARAeBQehUfhUXg0M+ERAOERAIRH4VEEEx6FRzMTHgEQHgEQHoVH4VF4dOZmJjwCIDwCIDwKj8Kj8Cg8mpnwCIDwCIDwKDwKjyKY8Cg8mpnwCIDwCIDwKDwKj8Kj8GhmwiMAwiMAwqPwKDwKj87czIRHAIRHAIRH4VF4FMGERzMTHgFAeARAeBQehUfhUXg0M+ERAOERAOFReBQehUdnbmbCIwDCIwDCo/AoPIpgwqOZCY8AIDwCIDwKj8Kjryvh0cyERwCERwCER+FReBQenbmZCY8ACI8ACI/Co/AoggmPZiY8AiA8AoDwKDwKj85UeDQz4REA4REA4VF4FMmER2duZsIjAMIjAMKj8Cg8Co/Co5kJjwAIjwAgPAqPIpjwKDyamfAIgPAIgPAoPAqPwqMzNzPhEQDhEQDhUXgUHoVH4dHMhEcAhEcAhEfhUXgUwYRH4dHMhEcAhEcAhEfhUXgUHoVHMxMeARAeARAehUfhUXh05mYmPAIgPAIgPAqPwqMIJjyKL2bCIwAIjwAIj8Kj8Cg8Co9mJjwCIDwCIDwKj8Kj8OjMzUx4BEB4BEB4FB6FRxFMeDQz4REAhEcAhEfhUXgUHoVHMxMeARAeARAehUfhUXh05mYmPAIgPAIgPAqPwqMIJjyamfAIgPAIAMKj8Cg8OlPh0cyERwCERwCER+FRJBMenbmZCY8ACI8ACI/Co/AoPAqPZiY8AiA8AoDwKDyKYM5UeDQz4REA4REA4VF4FMmER2duZsIjAMIjAMKj8Cg8Co/Co5kJjwAIjwAIj8Kj8CiCCY/Co5kJjwAIjwAIj8Kj8Cg8OnMzEx4BEB4BEB6FR+FReBQezUx4BEB4BEB4FB6FRxFMeBQezYRH4REA4REA4VF4FB6FR+HRzIRHAIRHAIRH4VF4FB6duZkJjwAIjwAIj8Kj8CiCCY9mJjwCgPAIgPAoPAqPwqPwaGbCIwDCIwDCo/AoPAqPztzMhEcAhEcAhEfhUXgUwYRHMxMeAUB4BEB4FB6FR2cqPJqZ8AiA8AiA8Cg8imTCozM3M+ERAOERAOFReBQeRTDh0cyERwCERwAQHoVH4dGZCo9mJjwCIDwCIDwKjyKZ8OjMzUx4BEB4BEB4FB6FR+FReDQz4REA4REAhEfhUQQTHoVHMxMeARAeARAehUfhUXh05mYmPAIgPAIgPAqPwqPwKDyamfAIgPAIgPAoPAqPIpjwKDyamfAIgPAIgPAoPAqPwqPwaGbCIwDCIwDCo/AoPAqPztzMhEcAhEcAhEfhUXgUwYRH8cVMeAQA4REA4VF4FB6FR+HRzIRHAIRHAIRH4VF4FB6duZkJjwAIjwAIj8Kj8CiCCY9mJjwCgPAIgPAoPAqPwqPwaGbCIwDCIwDCo0AkPAqPztzMhEcAhEcAhEfhUXgUwYRHMxMeARAeAUB4FB6FR2cqPJqZ8AiA8AiA8Cg8imTCozM3M+ERAOERAOFReBQehUfh0cyERwCERwAQHoVHEUx4FB7NTHgEQHgEQHgUHoVH4dGZm5nwCIDwCIDwKDwKj8Kj8GhmwiMAwiMAwqPwKDyKYMKj8GhmwiMAwiMAwqPwKDwKj8KjmQmPAAiPAAiPwqPwKDw6czMTHgEQHgEQHoVH4VEEE5oEKsUAABhUSURBVB6FRzPhEQCERwCER+FReBQehUczEx4BEB4BEB6FR+FReHTmZiY8AiA8AiA8Co/CowgmPJqZ8AgAwiMAwqPwKDwKj8KjmQmPAAiPAAiPwqPwKDw6czMTHgEQHgEQHoVH4VEEEx7NTHgEQHgEAOFReBQenanwaGbCIwDCIwDCo/AokgmPztzMhEcAhEcAhEfhUXgUwYRHMxMeARAeAUB4FB6FR2cqPJqZ8AiA8AiA8Cg8imTCozM3M+ERAOERAOFReBQehUfh0cyERwCERwAQHoVHEUx4FB7NTHgEQHgEQHgUHoVH4dGZm5nwCIDwCIDwKDwKj8Kj8GhmwiMAwiMAwqPwKDyKYMKj8GhmwiMAwiMAwqPwKDwKj8KjmQmPAAiPAAiPwqPwKDw6czMTHgEQHgEQHoVH4VEEEx7NTHgEAOERAOFReBQehUfh0cyERwCERwCER+FReBQenbmZCY8ACI8ACI/Co/AoggmPZiY8AoDwCIDwKDwKj76uhEczEx4BEB4BEB6FR+FReHTmZiY8AiA8AiA8Co/CowgmPJqZ8AiA8AgAwqPwKDw6U+HRzIRHAIRHAIRH4VEkEx6duZkJjwAIjwAIj8Kj8Cg8Co9mJjwCIDwCgPAoPIpgwqPwaGbCIwDCIwDCo/AoPAqPztzMhEcAhEcAhEfhUXgUHoVHMxMeARAeARAehUfhUQQTHoVHMxMeARAeARAehUfhUXgUHs1MeARAeARAeBQehUfh0ZmbmfAIgPAIgPAoPAqPIpjwKL6YCY8AIDwCIDwKj8Kj8Cg8mpnwCIDwCIDwKDwKj8KjMzcz4REA4REA4VF4FB5FMOHRzIRHABAeARAehUfhUXgUHs1MeARAeARAeBQehUfh0ZmbmfAIgPAIgPAoPAqPIpjwaGbCIwDCIwAIj8Kj8OhMhUczEx4BEB4BEB6FR5FMeHTmZiY8AiA8AiA8Co/Co/AoPJqZ8AiA8AgAwqPwKII5U+HRzIRHAIRHAIRH4VEkEx6duZkJjwAIjwAIj8Kj8Cg8Co9mJjwCIDwCIDwKj8KjCCY8Co9mJjwCIDwCIDwKj8Kj8OjMzUx4BEB4BEB4FB6FR+FReDQz4REA4REA4VF4FB5FMOFReDQTHoVHAIRHAIRH4VF4FB6FRzMTHgEQHgEQHoVH4VF4dOZmJjwCIDwCIDwKj8KjCCY8mpnwCADCIwDCo/AoPAqPwqOZCY8ACI8ACI/Co/AoPDpzMxMeARAeARAehUfhUQQTHs1MeAQA4REA4VF4FB6dqfBoZsIjAMIjAMKj8CiSCY/O3MyERwCERwCER+FReBTBhEczEx4BEB4BQHgUHoVHZyo8mpnwCIDwCIDwKDyKZMKjMzcz4REA4REA4VF4FB6FR+HRzIRHAIRHABAehUcRTHgUHs1MeARAeARAeBQehUfh0ZmbmfAIgPAIgPAoPAqPwqPwaGbCIwDCIwDCo/AoPIpgwqPwaGbCIwDCIwDCo/AoPAqPwqOZCY8ACI8ACI/Co/AoPDpzMxMeARAeARAehUfhUQQTHsUXM+ERAIRHAIRH4VF4FB6FRzMTHgEQHgEQHoVH4VF4dOZmJjwCIDwCIDwKj8KjCCY8mpnwCADCIwDCo/AoPAqPwqOZCY8ACI8ACI8CkfAoPDpzMxMeARAeARAehccKnMOS/yqSCY/O3MyERwCERwCER+Exm+cgPDpT4dHMhEcAhEcAhEfhUSQTHp25mQmPAAiPAAiPwqPwKDwKj2YmPAIgPAKA8Cg8imDCo/BoZsIjAMIjAMKj8Cg8Co/O3MyERwCERwCER+FReBQehUczEx4BEB4BEB6FR+FRBBMehUczEx4BEB4BEB6FR+FReBQezUx4BEB4BEB4FB6FR+HRmZuZ8AiA8AiA8Cg8Co8imPBoZsIjAAiPAAiPwqPwKDwKj2YmPAIgPAIgPAqPwqPw6MzNTHgEQHgEQHgUHoVHEUx4NDPhEQCERwCER+FRePR1JTyamfAIgPAIgPAoPAqPwqMzN7Par+e52aF4eJ8fkgAQHgEQHoVH4VF4FB7NLE5wPLVjUwiFAT8gASA8AjBxRw90hda51wuPwqMIJjwKj2aCox+MABAeAYgrSZLQ9cGWmgVI4VF4FB6duZkJjgAIjwDkIEC2LZhct+HxX+Z/T3gUHp2p8GgmOAqOAAiPANRK6e7HagXIagS3ky8vKn9C5/5/3So8Co/OVHg0ExwBQHgEIA0B8o2mxvDi9EmZDG5nguPwv4/wKDw6U+HRLG/BcWBra0j6e/1gA4DwCED6HNrTWbEAWYngdnZwFB6FR2cqPJoJjgAgPAKQ8gD55tJZUQNkzODWu2Z+KOzZfsE/v/AoPDpT4dFMcAQA4RGAFDt6oCtagIwR3IaCY5Jc9M8tPAqPzlR4NBMcAUB4BCAjAfLt5vkTCpATCW6jDY7Co/DoTIVHM8ERAIRHADKo93B36GhZPK4AOZ7gNtbgKDwKj85UeDSrx+DYv3mV4AiA8AhAfgLkuz9fMqYAOZbgNt7gKDwKj85UeDSru+DYc8QPHgAIjwDkT3/PsbDtpeZRBcjRBLfSm6zCH94bd3AUHrMdyd579D8Kj8KjmeAoOAIgPALAyAC5Y+OzFw2QFwtu5eDY2RFCUozy5xEesxnJqnU2wqPwaCY4AoDwCEDGFPr7wsevrz5vgDxfVIodHIVH4dGZCo9mgiMACI8A1HmA7HyrdUSAHB6VKhUchUfh0ZkKj2aCIwAIjwDkQFIshF3vtJcDZCkqVTo4Co/CozMVHs2yEBz7XlsWkiNf+UEBAOERAGIEyBP7dlc8OAqPwqMzFR7NBEcAEB4BQHgUyYRH4dFMcAQA4REAhEfhUXgUHs1McARAeAQA4VF4FB6FR+HRTHAEAOERAIRH4VF4FB7Nsh0cT258LBS79/pGDIDwCADCo/AoPAqPgpGZ4AgAwiMACI/Co/AoPJoJjgAgPAKA8Cg8Co/Co5ngCADCIwAIj8Kj8Cg8mpngCADCIwAIj8Kj8Cg8mlVjJ19eJDgCIDwCAMKj8OhMhUeziMFx36e+sQIgPAIAwqPw6EyFRzPBEQCERwCokKMHukLr3OuFR+FReBQezQRHABAeASCuJElC1wdbUhcghUfhUXg0ExwBQHgEAAFSeBQehUczwREAhEcA4OJKdz+2LZgsPAqPwqPwaDlf75r5obBnu2+MACA8AkD9BEjhUXgUHs1SEByTxDdDABAeAaByvt61M7zR1BhenD5JeBQehUczwREAEB4BIK5DezqrFiArHdd6npsdTm58LOze9EvhUXgUHk1wFBwBQHgEgLQEyDeXzqpogKxkXCt/SEL33vLfpfTr5MKj8Cg8muAoOAKA8AgAKXL0QFfFAmQl4tr5PpVVeBQeR7P3HrtdpLK6Wump78If3hMcAUB4BID8BciYce18wVF4FB7r6czNxhQcOztCSIq+eQGA8AgA2XHi4P7Q0bI4SoCMEXouFhyFR+FReDTBEQAQHgEgY3oPd084QE4k9JTuLLtUcBQehUfh0QRHAEB4BIAMB8htLzWPK0COJ/SM50MShEfhUXg0wREAEB4BIKP6e46NOUCOJfRM5FNZhUfhUXg0wREAEB4BIEcBcjShZyLBUXgUHoVHq7fgeGrHphAKA77ZAIDwCAD5VejvCx+/vvqiAfJioaf8RM8Eg6PwKDwKjyY4AgDCIwDkMECeL/RU4lcIhUfhUXg0wREAEB4BoE4VTw2EXe+0jwiQw0NPJe8sEx6FR+HRBEcAQHgEgDqXFAtDAbIUeqrxIQnCo/AoPJrgCAAIjwCQowB5Yt/uqnwqq/AoPAqPlvbgOLC1VXAEAOERAMga4VF4FB4tzcEx6e/1Qg0AwiMAIDyKYMKjmeAIAMIjAIDwKDwKjyY4AgDCIwAgPAqPztwERwBAeAQAhEfhUXg0u0hw7P+HXwmOACA8AgDCowgmPIplFik4bl4Vkp4jXoABQHgEAIRHEUx4FB5NcAQAhEcAQHgUHoVHExwBgCoSHgGAcwiPwqPwaIIjADBRwiMAcA7hUXgUHk1wBAAmSngEAM4hPAqPwqPFCo59ry0LyfFDXlgBIIeERwDgHMKj8Cg8WpTgeOQrL6gAkGPCIwBwDuFReBQeTXAEACZKeAQAziE8Co/CowmOAMBECY8AwDmOHugKrXOvF8GER+HRBEcAYNyERwDgvJIkCX/cuTW0LZgsgkX4NN//u+UV4dHqKjie3PiY4AgAXJTwCABc0te7doY3mhrDi9MniWBjDI5Jz5HyGWbx19eFR7tQcCx27/XCCABckvAIAIxa6Vew31w6K5UBMi0R7OzgeIbwaIIjAJA3wiMAMGYnDu4PHS2LUxUgax3Bhu66O37ovGcmPJrgCADkjfAIAIxbf8+xsO2l5lQEyFpFsNF+uIbwaIIjAJA3wiMAMGGF/r7Q+VZrTQNktSPYWD/NV3i0rExwBABiER4BgGiSYiHseqc9tM69vm4j2Hg/zVd4tNQHx5cXheK+T72QAQDRCI8AQHRJkoQ/7twa2hZMrpsINtFfPRUeTXAEAPJGeAQAKurrXTvDG02NFf817EpFsFh33QmPJjgCAHkjPAIAVXH0QFd4c+msigXI2BEs9odrCI8mOAIAeSM8AgBVdeLg/tDRsjh6gIwZwSoRZoRHExwBgLwRHgGAmujvORa2vdQcLUDGiGCVDDPCo9VqvWvmh+Lnv/OiAwBUnfAIANRUob8vdL7VOuEAOZEIVo0nwYRHq0VwLOzZXvq0Jy80AEBNCI8AQCokxULY9U57aJ17fdUiWPlJsCr96qnwaIIjAJA3wiMAkCpJkoQ/7twa2hZMrlgEq0WYER5NcAQA8kZ4BABS6+tdO8MbTY2j+jXs0USwWoYZ4dEERwAgb4RHACD1jh7oCm8unXXRAHmxCJaGMCM8muAIAOSN8AgAZMaJg/tDR8vi8wbI80Wwnudmh0JnRyrCjPBosfbd13XRiwIAkGrCIwCQOf09x8K2l5pHBMjhESyNYUZ4NMERAMgb4REAyKxCf1/ofKu1HCBLESzNYUZ4NMERAMgb4REAyLykWAgn9u1OdZgRHk1wBADyRngEAKgC4dEERwAgb4RHAIAqEB5tNMHx1I5NIRQL/sEAAHVBeAQAqALh0S4ZHAsD/qEAAHVFeAQAqALh0QRHACBvhEcAgCoQHk1wBADyRngEAKgC4dEERwAgb4RHAIAqEB7zHRwHtrULjgBA7giPAABVIDzmNDhubQ1Jf69/AABALgmPAABVIDwKjgAAeSM8AgBUgfAoOAIA5I3wCABQBcKj4AgAkDfCIwBAFQiPgiMAQN4IjwAAVSA81ldw7N+8KiQnj/vCBgC4COERAKAKhMc6Co49R3xBAwCMgvAIAFAFwqPgCACQN8IjAEAVCI+CIwBA3giPAABVIDwKjgAAeSM8AgBUgfCYjeDY99oywREAIBLhEQCgCoTHDATHI1/5QgUAiEh4BACogqMHukLr3OuFR8ERACA3hEcAgCpJkiR0fbAltC2YLDwKjgAAdU94BACogdKvXr/R1BhenD5JeBQcAQDqkvAIAFBDh/Z0hjeXzspkgMxKeBQcAQBqQ3gEAEiB0h2QbzfPz1SATHt4LAXHkxsfC8Xuvb7AAABqQHgEAEiR3sPd4d2fL8lEgExreBQcAQDSQXgEAEih/p5jYdtLzakOkGkLj4IjAEC6CI8AAClW6O8LH7++OpUBMi3hUXAEAEgn4REAIAOSYiHseqc9VQGy1uFRcAQASDfhEQAgQ5IkCV0fbAmtc6/PdXg8+fKiUDyw2xcEAECKCY8AABn15ScfhrYFk2v2FGQtwmM5OO771H98AIAMEB4BADLu0J7O8EZTY9UDZDXDo+AIAJA9wiMAQJ04eqArvLl0VtUCZDXCo+AIAJBdwiMAQJ05cXB/6GhZXPEAWcnwKDgCAGSf8AgAUKf6jn0Ttr3UXLEAWYnw2LtmvuAIAFAnhEcAgDp3qq83fPz66ugBMmZ4LAXHwp7tpY/t9h8MAKBOCI8AADlRPDUQdr3THi1AxgiPgiMAQP0SHgEAciYpFkLXB1tC69zraxYeBUcAgPonPAIA5FSSJOHLTz4MbQsmVy08Co4AAPkhPAIAEL7etTO80dQ4pl/DHkt4FBwBAPJHeAQAYMg3X3wW3lw6a1QBcjThsee52aHQ2SE4AgDkkPAIAMA5jh7oCh0tiy8aIC8WHr8LjkWHCQCQU8IjAAAX1Hu4O2x7qfm8AfJ84VFwBADgDOERAIBL6u85Fj5+ffWIADk8PAqOAACcTXgEAGDUCv19Ydc77eUAWQqPgiMAABciPAIAMGZJsRBO7NstOAIAcEHCIwAAAAAQnfAIAAAAAEQnPAIA/P/27mWldSgAoOj/f54/ICIOOnDqQBDv5QwqIm2S6k7akrWgkz6SnNoI3TlpAACAnPAIAAAAAOSERwAAAAAgJzwCAAAAADnhEQAAAADICY8AAAAAQE54BAAAAABywiMAAAAAkBMeAQAAAICc8AgAAAAA5IRHAAAAACAnPAIAAAAAOeERAAAAAMgJjwAAAABATngEAAAAAHLCIwAAAACQEx4BAAAAgJzwCAAAAADkhEcAAAAAICc8AgAAAAA54REAAAAAyAmPAMC/x8fHf6+vr2dv43HYo6n9Yu3bkvV/fn6uOv7n5+fNxjvWdby9vLx8vQcAwP0SHgGA2S/4AgD2jds0At1a3t7eFm/DWttxPPCxdFsAgNsiPALAzi0NK+Ij9o99bd/Smc5rhsef2/Px8eFDCQB3RHgEgJ1bGhecbs0e3UNwPxwO+TLHKdxLx75VeDz+PdYYLwCwDuERAHbOjEe478/9+E3E2tPT0+LnbhkejxwIAYD7IDwCwI5d+rtpfmeNvZkKj1tcXKbYznrcP82FxzXGu8aYAYCe8AgAO3bprCGzjNibc3Fri+h1yTrKWY+Xjm0qPF6yrPf396+LySx53XiO33wEgNsmPALAjl17VhXc6z5yrfA4At/Dw8PJ51czkk9FzLHOc3GxCo+nljv3egdDAOC2CY8AsFO/jRROt2ZPbi08jvvO7YNFhDu37HH/uTGvFR6H4yzIKWY9AsDtEh4BYKemIsXUhSXMMGJPbjE8DqdmJY7HxtWo6/8Lx3VdIzwOcwc7tr6wDQCwnPAIADs1F1SuGVzgXvaTrdc9t3/+5cDAiJa/Wefa4XFuXGtc1RsAaAiPALBDUzOIjl/wp77or3m69feLS3y/jbgwZmL+5rTKvyxzxJgx3hFWxjLGa6auzDseH88bz7+309LH9o7349wYj+/XFuMaf5Nz2zLuOxwOf57dt/Szc8n9a6/7+31zj1/q1D4/t75hi/A49ZlzMAQAbpfwCAAAAADkhEcAAAAAICc8AgAAAAA54REAAAAAyAmPAAAAAEBOeAQAAAAAcsIjAAAAAJATHgEAAACAnPAIAAAAAOSERwAAAAAgJzwCAAAAADnhEQAAAADICY8AAAAAQE54BAAAAABywiMAAAAAkBMeAQAAAICc8AgAAAAA5IRHAAAAACAnPAIAAAAAOeERAAAAAMgJjwAAAABATngEAAAAAHLCIwAAAACQEx4BAAAAgJzwCAAAAADkhEcAAAAAICc8AgAAAAA54REAAAAAyAmPAAAAAEBOeAQAAAAAcsIjAAAAAJATHgEAAACAnPAIAAAAAOSERwAAAAAgJzwCAAAAADnhEQAAAADICY8AAAAAQE54BAAAAABywiMAAAAAkBMeAQAAAICc8AgAAAAA5IRHAAAAACAnPAIAAAAAOeERAAAAAMgJjwAAAABATngEAAAAAHLCIwAAAACQEx4BAAAAgJzwCAAAAADkhEcAAAAAICc8AgAAAAA54REAAAAAyAmPAAAAAEBOeAQAAAAAcsIjAAAAAJATHgEAAACAnPAIAAAAAOSERwAAAAAgJzwCAAAAADnhEQAAAADICY8AAAAAQE54BAAAAABywiMAAAAAkBMeAQAAAICc8AgAAAAA5IRHAAAAACAnPAIAAAAAOeERAAAAAMgJjwAAAABATngEAAAAAHLCIwAAAACQEx4BAAAAgJzwCAAAAADkhEcAAAAAICc8AgAAAAA54REAAAAAyAmPAAAAAEBOeAQAAAAAcsIjAAAAAJATHgEAAACAnPAIAAAAAOSERwAAAAAgJzwCAAAAADnhEQAAAADICY8AAAAAQE54BAAAAABywiMAAAAAkBMeAQAAAICc8AgAAAAA5IRHAAAAACAnPAIAAAAAOeERAAAAAMgJjwAAAABATngEAAAAAHLCIwAAAACQEx4BAAAAgNx/j+c1sY0J87wAAAAASUVORK5CYII=;clipPath=inset(4.1% 25% 13.93% 24.67%);" vertex="1" parent="1">
          <mxGeometry x="119.67999999999998" y="780.24" width="120.8" height="120" as="geometry" />
        </mxCell>
        <mxCell id="epuEaKkqdymQAd3olJLZ-21" value="" style="edgeStyle=orthogonalEdgeStyle;rounded=0;orthogonalLoop=1;jettySize=auto;html=1;entryX=0.5;entryY=0;entryDx=0;entryDy=0;exitX=0.5;exitY=1;exitDx=0;exitDy=0;exitPerimeter=0;" edge="1" parent="1" source="epuEaKkqdymQAd3olJLZ-6" target="epuEaKkqdymQAd3olJLZ-13">
          <mxGeometry relative="1" as="geometry">
            <mxPoint x="320" y="137" as="sourcePoint" />
            <mxPoint x="378" y="138" as="targetPoint" />
          </mxGeometry>
        </mxCell>
        <mxCell id="epuEaKkqdymQAd3olJLZ-22" value="" style="html=1;shadow=0;dashed=0;align=center;verticalAlign=middle;shape=mxgraph.arrows2.arrow;dy=0.67;dx=20;notch=0;rotation=90;" vertex="1" parent="1">
          <mxGeometry x="397.5" y="407" width="50" height="36" as="geometry" />
        </mxCell>
        <mxCell id="epuEaKkqdymQAd3olJLZ-23" value="&lt;b&gt;&lt;font style=&quot;font-size: 24px;&quot; color=&quot;#808080&quot;&gt;EMR&lt;/font&gt;&lt;/b&gt;" style="text;html=1;strokeColor=none;fillColor=none;align=center;verticalAlign=middle;whiteSpace=wrap;rounded=0;" vertex="1" parent="1">
          <mxGeometry x="150.08000000000004" y="900.24" width="60" height="30" as="geometry" />
        </mxCell>
        <mxCell id="epuEaKkqdymQAd3olJLZ-24" value="" style="endArrow=classic;html=1;rounded=0;entryX=0.5;entryY=0;entryDx=0;entryDy=0;strokeWidth=2;" edge="1" parent="1" source="epuEaKkqdymQAd3olJLZ-8" target="epuEaKkqdymQAd3olJLZ-10">
          <mxGeometry width="50" height="50" relative="1" as="geometry">
            <mxPoint x="280" y="880" as="sourcePoint" />
            <mxPoint x="330" y="830" as="targetPoint" />
          </mxGeometry>
        </mxCell>
        <mxCell id="epuEaKkqdymQAd3olJLZ-25" value="" style="endArrow=classic;html=1;rounded=0;entryX=0.5;entryY=0;entryDx=0;entryDy=0;strokeWidth=2;exitX=0.5;exitY=1;exitDx=0;exitDy=0;" edge="1" parent="1" source="epuEaKkqdymQAd3olJLZ-18" target="epuEaKkqdymQAd3olJLZ-12">
          <mxGeometry width="50" height="50" relative="1" as="geometry">
            <mxPoint x="634.24" y="670" as="sourcePoint" />
            <mxPoint x="636.24" y="770" as="targetPoint" />
          </mxGeometry>
        </mxCell>
        <mxCell id="epuEaKkqdymQAd3olJLZ-26" value="" style="endArrow=classic;html=1;rounded=0;entryX=0.5;entryY=0;entryDx=0;entryDy=0;strokeWidth=2;" edge="1" parent="1" source="epuEaKkqdymQAd3olJLZ-11" target="epuEaKkqdymQAd3olJLZ-20">
          <mxGeometry width="50" height="50" relative="1" as="geometry">
            <mxPoint x="441" y="720" as="sourcePoint" />
            <mxPoint x="443" y="820" as="targetPoint" />
          </mxGeometry>
        </mxCell>
      </root>
    </mxGraphModel>
  </diagram>
</mxfile>
